{
.formatVersion = 3;
classes = (
{
code = "one two three B D F I J P S T V W X Y Igrave Iacute Icircumflex Idieresis Eth Yacute Thorn eth Dcaron dcaron Dcroat Itilde Imacron Ibreve Iogonek Idotaccent IJ Jcircumflex lcaron Sacute Scircumflex Scaron Tcaron Tbar Wcircumflex Ycircumflex Ydieresis uni0218 uni021A uni0402 uni0405 uni0406 uni0407 uni0408 uni0409 uni040A uni040E uni0411 uni0412 uni0414 uni0417 uni0420 uni0422 uni0423 uni0424 uni0425 uni042A uni042B uni042C uni042D uni042E Wgrave Wacute Wdieresis Ygrave G_r G_s f_f f_j g_j j_j l_l q_j r.alt r.fina r.init racute.alt racute.fina racute.init rcaron.alt rcaron.fina rcaron.init s.alt s.fina s.init s_s sacute.alt sacute.fina sacute.init scaron.alt scaron.fina scaron.init scedilla.alt scedilla.fina scedilla.init scircumflex.alt scircumflex.fina scircumflex.init t_h t_t uni0157.alt uni0157.fina uni0157.init uni0219.alt uni0219.fina uni0219.init uni0412044F uni0422044F uni0433.alt uni0433.fina uni0433.init uni0436.alt uni0436.fina uni0436.init uni0436.ss02.alt uni0436.ss02.fina uni0436.ss02.init uni0437.alt uni0437.fina uni0437.init uni043B.alt uni043B.init uni043C.alt uni043C.init uni0445.alt uni0445.fina uni0445.init uni0447.alt uni0447.fina uni0447.init uni044A.alt uni044A.fina uni044A.init uni044D.alt uni044D.fina uni044D.init uni044F.alt uni044F.init uni0453.alt uni0453.fina uni0453.init uni0455.alt uni0455.fina uni0455.init uni0459.alt uni0459.init uni0491.alt uni0491.fina uni0491.init x.alt x.fina x.init y_j z.alt z.fina z.init zacute.alt zacute.fina zacute.init zcaron.alt zcaron.fina zcaron.init zdotaccent.alt zdotaccent.fina zdotaccent.init";
name = aalt;
},
{

glyphs = (
{
glyphname = .notdef;
layers = (
{
hints = (
{
horizontal = 1;
place = (-18,65);
type = Stem;
},
{
horizontal = 1;
place = (641,67);
type = Stem;
},
{
place = (104,76);
type = Stem;
},
{
place = (464,67);
type = Stem;
}
);
layerId = "DBA80DC6-7182-4C80-9763-30666CA5316C";
shapes = (
{
closed = 1;
nodes = (
(529,677,o),
(513,708,o),
(481,708,c),
(152,709,l),
(119,709,o),
(103,678,o),
(103,647,cs),
(103,632,o),
(103.87,593.22,o),
(103.87,539.26,cs),
(103.87,463.71,o),
(102.17,358.42,o),
(94,247,cs),
(88.94,177.14,o),
(82.98,108.3,o),
(82.98,47.11,cs),
(82.98,4.37,o),
(116.49,-17,o),
(150.,-17,c),
(445.,-18,l),
(479.,-18,o),
(513.,4,o),
(513.,48,cs),
(513.,78,o),
(518.,154,o),
(524.,238,cs),
(529.83,317.79,o),
(531.44,400.6,o),
(531.44,470.93,cs),
(531.44,557.49,o),
(529.,625.14,o),
(529,645,c)
);
},
{
closed = 1;
nodes = (
(452.,247.,l),
(447.,178.,o),
(442.,109.,o),
(441.,48.,c),
(441.,47.01,l),
(160.77,47.95,l),
(160.94,48.99,l),
(160.94,78.99,o),
(161.94,153.99,o),
(167.94,237.99,cs),
(174.82,332.67,o),
(179.74,438.54,o),
(179.74,527.34,cs),
(179.74,570.71,o),
(178.57,610.,o),
(175.88,641.93,c),
(455.48,641.08,l),
(461.59,611.87,o),
(464.07,567.4,o),
(464.07,514.15,cs),
(464.07,436.99,o),
(458.86,341.38,o),
(451.94,247.,c)
);
},
{
closed = 1;
nodes = (
(378.94,467.,l),
(371.94,467.,o),
(365.94,464.,o),
(358.94,460.,cs),
(343.47,451.49,o),
(324.42,422.05,o),
(306.4,385.56,c),
(301.22,406.86,o),
(298.14,427.73,o),
(296.94,446.,cs),
(296.,460.16,o),
(287.93,468.08,o),
(277.77,468.08,c),
(277.17,468.08,o),
(276.56,468.05,o),
(275.95,467.99,c),
(260.95,466.99,o),
(252.95,459.99,o),
(252.95,447.99,cs),
(252.95,445.99,o),
(252.95,438.99,o),
(253.95,429.99,cs),
(257.,400.5,o),
(265.48,364.8,o),
(280.84,329.08,c),
(256.96,276.26,o),
(249.5,269.99,o),
(245.96,269.99,cs),
(241.96,269.99,o),
(237.96,273.99,o),
(234.96,276.99,cs),
(229.96,281.99,o),
(225.96,281.99,o),
(219.96,281.99,cs),
(209.61,281.99,o),
(202.97,273.09,o),
(202.97,262.74,cs),
(202.97,256.1,o),
(205.71,248.86,o),
(211.97,242.99,c),
(220.97,234.99,o),
(231.97,230.99,o),
(245.97,230.99,cs),
(272.32,230.99,o),
(290.01,251.66,o),
(305.72,281.67,c),
(317.04,263.75,o),
(330.39,246.57,o),
(345.97,230.99,cs),
(352.97,223.99,o),
(358.97,217.99,o),
(366.97,217.99,cs),
(381.97,217.99,o),
(388.97,229.99,o),
(388.97,239.99,cs),
(388.97,246.99,o),
(386.97,251.99,o),
(379.97,256.99,cs),
(357.12,273.07,o),
(339.46,298.46,o),
(326.39,327.02,c),
(346.26,374.52,o),
(367.12,411.13,o),
(388.96,429.99,cs),
(395.96,435.99,o),
(399.96,440.99,o),
(399.96,446.99,cs),
(399.96,459.99,o),
(389.96,466.99,o),
(378.96,466.99,c)
);
}
);
width = 600;
}
);
},
{
glyphname = exclam;
layers = (
{
hints = (
{
horizontal = 1;
place = (-9,77);
type = Stem;
},
{
horizontal = 1;
place = (708,-20);
target = down;
type = TopGhost;
},
{
place = (60,76);
type = Stem;
},
{
place = (91,49);
type = Stem;
}
);
layerId = "DBA80DC6-7182-4C80-9763-30666CA5316C";
shapes = (
{
closed = 1;
nodes = (
(117,139,o),
(129,150,o),
(130,171,cs),
(136,257,o),
(140,380,o),
(140,491,cs),
(140,562,o),
(138,628,o),
(134,678,c),
(133,698,o),
(120,708,o),
(108,708,cs),
(96,708,o),
(84,697,o),
(86,675,cs),
(90,620,o),
(91,549,o),
(91,475,cs),
(91,279,o),
(82,205,o),
(82,170,cs),
(82,150,o),
(94,139,o),
(105,139,cs)
);
},
{
closed = 1;
nodes = (
(119,-9,o),
(136,8,o),
(136,30,cs),
(136,51,o),
(119,68,o),
(98,68,cs),
(77,68,o),
(60,51,o),
(60,30,cs),
(60,8,o),
(77,-9,o),
(98,-9,cs)
);
}
);
width = 200;
}
);
unicode = 33;
},
{
glyphname = quotedbl;
layers = (
{
hints = (
{
horizontal = 1;
place = (547,200);
type = Stem;
},
{
place = (23,180);
type = Stem;
}
);
layerId = "DBA80DC6-7182-4C80-9763-30666CA5316C";
shapes = (
{
closed = 1;
nodes = (
(56,547,o),
(67,556,o),
(69,574,cs),
(84,714,ls),
(86,736,o),
(74,747,o),
(62,747,cs),
(51,747,o),
(40,738,o),
(38,719,cs),
(23,580,ls),
(21,559,o),
(33,547,o),
(46,547,cs)
);
},
{
closed = 1;
nodes = (
(175,547,o),
(186,556,o),
(188,574,cs),
(203,714,ls),
(205,736,o),
(193,747,o),
(181,747,cs),
(170,747,o),
(159,738,o),
(157,719,cs),
(142,580,ls),
(140,559,o),
(152,547,o),
(165,547,cs)
);
}
);
width = 231;
}
);
leftKerningGroup = quotedbl2;
rightKerningGroup = quotedbl;
unicode = 34;
},
{
glyphname = numbersign;
layers = (
{
hints = (
{
horizontal = 1;
place = (233,39);
type = Stem;
},
{
horizontal = 1;
place = (379,39);
type = Stem;
},
{
place = (55,389);
type = Stem;
}
);
layerId = "DBA80DC6-7182-4C80-9763-30666CA5316C";
shapes = (
{
closed = 1;
nodes = (
(416,377,l),
(434.62,377,o),
(444.12,386.88,o),
(444.12,396.69,cs),
(444.12,406.37,o),
(434.87,415.99,o),
(416,415.99,cs),
(402.27,415.99,o),
(388.27,416.02,o),
(374.11,416.08,c),
(386.99,455.55,o),
(400.62,493.89,o),
(415.01,528.98,cs),
(417.31,534.65,o),
(418.31,539.83,o),
(418.31,544.39,cs),
(418.31,557.67,o),
(409.79,565.77,o),
(399.74,565.77,cs),
(390.7,565.77,o),
(380.43,559.22,o),
(374.01,543.98,cs),
(357.98,506.28,o),
(342.65,462.41,o),
(328.06,416.35,c),
(295.29,416.59,o),
(262.41,416.91,o),
(230.9,417.2,c),
(243.62,456.27,o),
(257.,494.22,o),
(271.,528.98,cs),
(273.3,534.65,o),
(274.3,539.83,o),
(274.3,544.39,cs),
(274.3,557.67,o),
(265.78,565.77,o),
(255.73,565.77,cs),
(246.69,565.77,o),
(236.42,559.22,o),
(230.,543.98,cs),
(214.12,506.62,o),
(199.02,463.21,o),
(184.64,417.61,c),
(157.66,417.83,o),
(132.41,417.98,o),
(110,417.98,cs),
(92.26,417.98,o),
(83,407.96,o),
(83,398.08,cs),
(83,388.47,o),
(91.76,378.99,o),
(110,378.99,cs),
(129.72,378.99,o),
(150.77,378.89,o),
(172.69,378.74,c),
(162.11,343.52,o),
(151.94,307.67,o),
(142.16,272.87,c),
(121.44,272.94,o),
(101.55,272.98,o),
(83,272.98,cs),
(64.13,272.98,o),
(54.88,263.36,o),
(54.88,253.68,cs),
(54.88,243.87,o),
(64.38,233.99,o),
(83,233.99,cs),
(98.34,233.99,o),
(114.5,233.96,o),
(131.22,233.91,c),
(117.74,185.94,o),
(105.02,141.36,o),
(93,104.99,cs),
(91.32,99.96,o),
(90.57,95.36,o),
(90.57,91.25,cs),
(90.57,76.7,o),
(99.89,68.24,o),
(110.27,68.24,cs),
(119.7,68.24,o),
(130.01,75.23,o),
(134.99,90.99,cs),
(147.21,130.16,o),
(160.98,179.79,o),
(176.2,233.75,c),
(208.37,233.61,o),
(241.69,233.44,o),
(274.59,233.29,c),
(261.18,185.55,o),
(248.63,141.2,o),
(236.98,104.98,cs),
(235.3,99.95,o),
(234.55,95.35,o),
(234.55,91.24,cs),
(234.55,76.69,o),
(243.87,68.23,o),
(254.25,68.23,cs),
(263.68,68.23,o),
(273.99,75.22,o),
(278.97,90.98,cs),
(291.14,130.,o),
(304.72,179.39,o),
(319.75,233.11,c),
(342.59,233.03,o),
(364.85,232.98,o),
(385.97,232.98,cs),
(405.66,232.98,o),
(416.76,243.45,o),
(416.76,253.54,cs),
(416.76,262.92,o),
(407.17,271.97,o),
(385.97,271.97,cs),
(368.34,271.97,o),
(349.8,272.01,o),
(330.72,272.07,c),
(340.48,306.46,o),
(350.8,341.97,o),
(361.7,377.14,c),
(380.1,377.04,o),
(398.26,376.98,o),
(415.96,376.98,c)
);
},
{
closed = 1;
nodes = (
(285.51,272.24,l),
(252.85,272.38,o),
(219.51,272.55,o),
(187.21,272.69,c),
(197.1,307.29,o),
(207.54,343.,o),
(218.51,378.36,c),
(250.33,378.07,o),
(283.23,377.73,o),
(315.98,377.46,c),
(305.4,342.44,o),
(295.24,306.82,o),
(285.5,272.24,c)
);
}
);
width = 472;
}
);
leftKerningGroup = slash;
unicode = 35;
},
{
glyphname = dollar;
layers = (
{
hints = (
{
horizontal = 1;
place = (2,43);
type = Stem;
},
{
place = (22,42);
type = Stem;
},
{
place = (75,46);
type = Stem;
},
{
place = (172,45);
type = Stem;
},
{
place = (178,46);
type = Stem;
},
{
place = (188,43);
type = Stem;
},
{
place = (324,46);
type = Stem;
}
);
layerId = "DBA80DC6-7182-4C80-9763-30666CA5316C";
shapes = (
{
closed = 1;
nodes = (
(370,171,l),
(370,284.68,o),
(298.4,336.54,o),
(231.99,383.01,c),
(231.99,385.67,o),
(231.99,388.33,o),
(231.99,390.99,cs),
(231.99,461.22,o),
(231.11,531.45,o),
(227.71,594.29,c),
(258.25,588.05,o),
(282.11,570.7,o),
(302.98,539.01,cs),
(308.98,530.01,o),
(316.98,526.01,o),
(323.98,526.01,cs),
(333.98,526.01,o),
(343.98,535.01,o),
(343.98,547.01,cs),
(343.98,553.01,o),
(341.98,558.01,o),
(337.98,564.01,cs),
(306.87,611.1,o),
(267.27,634.86,o),
(223.94,641.23,c),
(223.29,649.34,o),
(222.64,657.18,o),
(221.99,665.02,cs),
(219.99,684.02,o),
(209.99,692.02,o),
(198.99,692.02,cs),
(188.99,692.02,o),
(177.99,683.02,o),
(177.99,667.02,cs),
(177.99,660.47,o),
(178.42,652.2,o),
(179.,641.65,c),
(117.56,633.03,o),
(74.99,585.03,o),
(74.99,528.03,cs),
(74.99,443.62,o),
(129.75,400.11,o),
(187.91,358.83,c),
(187.12,213.94,o),
(180.42,110.13,o),
(176.53,45.22,c),
(108.49,53.08,o),
(76.99,99.29,o),
(66.99,162.03,cs),
(63.99,181.03,o),
(63.99,192.03,o),
(63.99,200.03,cs),
(63.99,220.03,o),
(53.99,229.03,o),
(43.99,229.03,cs),
(32.99,229.03,o),
(21.99,219.03,o),
(21.99,201.03,cs),
(21.99,191.03,o),
(21.99,180.03,o),
(22.99,171.03,cs),
(33.99,68.39,o),
(87.82,11.1,o),
(173.71,2.24,c),
(172.56,-11.31,o),
(171.99,-22.15,o),
(171.99,-28.97,cs),
(171.99,-46.97,o),
(182.99,-56.97,o),
(193.99,-56.97,cs),
(203.99,-56.97,o),
(214.99,-47.97,o),
(215.99,-29.97,cs),
(216.74,-20.23,o),
(216.93,-9.37,o),
(217.4,2.19,c),
(301.72,12.22,o),
(369.99,86.45,o),
(369.99,171.05,c)
);
},
{
closed = 1;
nodes = (
(120.99,528.05,l),
(120.99,564.05,o),
(142.57,590.02,o),
(181.67,595.83,c),
(184.26,552.28,o),
(187.28,492.19,o),
(187.89,414.99,c),
(149.84,444.81,o),
(121.,477.69,o),
(121.,528.06,c)
);
},
{
closed = 1;
nodes = (
(224.49,125.22,o),
(229.78,224.7,o),
(231.46,327.65,c),
(281.41,290.09,o),
(324.,246.73,o),
(324.,171.05,cs),
(324.,109.86,o),
(277.6,57.32,o),
(220.37,46.22,c)
);
}
);
width = 395;
}
);
unicode = 36;
},
{
glyphname = percent;
layers = (
{
hints = (
{
horizontal = 1;
place = (11,39);
type = Stem;
},
{
horizontal = 1;
place = (-3,21);
target = up;
type = BottomGhost;
},
{
horizontal = 1;
place = (151,39);
type = Stem;
},
{
horizontal = 1;
place = (454,39);
type = Stem;
},
{
horizontal = 1;
place = (594,39);
type = Stem;
},
{
place = (62,41);
type = Stem;
},
{
place = (206,40);
type = Stem;
},
{
place = (251,41);
type = Stem;
},
{
place = (395,40);
type = Stem;
}
);
layerId = "DBA80DC6-7182-4C80-9763-30666CA5316C";
shapes = (
{
closed = 1;
nodes = (
(83,-3,o),
(92,2,o),
(100,12,cs),
(186,119,o),
(331,475,o),
(443,615,cs),
(451,625,o),
(454,633,o),
(454,640,cs),
(454,651,o),
(447,658,o),
(437,658,cs),
(429,658,o),
(420,654,o),
(411,643,cs),
(301,509,o),
(162,172,o),
(64,35,cs),
(59,28,o),
(57,22,o),
(57,16,cs),
(57,5,o),
(65,-3,o),
(76,-3,cs)
);
},
{
closed = 1;
nodes = (
(210,454,o),
(246,507,o),
(246,555,cs),
(246,595,o),
(221,633,o),
(166,633,cs),
(99,633,o),
(62,580,o),
(62,533,cs),
(62,492,o),
(89,454,o),
(145,454,cs)
);
},
{
closed = 1;
nodes = (
(117,493,o),
(103,513,o),
(103,535,cs),
(103,563,o),
(125,594,o),
(163,594,cs),
(193,594,o),
(206,575,o),
(206,554,cs),
(206,526,o),
(184,493,o),
(148,493,cs)
);
},
{
closed = 1;
nodes = (
(399,11,o),
(435,64,o),
(435,112,cs),
(435,152,o),
(410,190,o),
(355,190,cs),
(288,190,o),
(251,137,o),
(251,90,cs),
(251,49,o),
(278,11,o),
(334,11,cs)
);
},
{
closed = 1;
nodes = (
(306,50,o),
(292,70,o),
(292,92,cs),
(292,120,o),
(314,151,o),
(352,151,cs),
(382,151,o),
(395,132,o),
(395,111,cs),
(395,83,o),
(373,50,o),
(337,50,cs)
);
}
);
width = 484;
}
);
unicode = 37;
},
{
glyphname = ampersand;
layers = (
{
hints = (
{
horizontal = 1;
place = (-2,42);
type = Stem;
},
{
horizontal = 1;
place = (605,43);
type = Stem;
},
{
place = (19,49);
type = Stem;
},
{
place = (137,45);
type = Stem;
},
{
place = (270,46);
type = Stem;
},
{
place = (413,42);
type = Stem;
}
);
layerId = "DBA80DC6-7182-4C80-9763-30666CA5316C";
shapes = (
{
closed = 1;
nodes = (
(483,23,l),
(446.36,45.31,o),
(410.33,71.98,o),
(376.64,102.47,c),
(416.67,153.6,o),
(444.81,222.13,o),
(453.01,305,c),
(455.01,319,o),
(455.01,333,o),
(455.01,344,c),
(456.01,360,o),
(447.01,367,o),
(437.01,367,cs),
(426.01,367,o),
(413.01,357,o),
(413.01,340,cs),
(413.01,330,o),
(412.01,318,o),
(411.01,305,cs),
(403.95,235.76,o),
(380.75,176.05,o),
(346.98,130.93,c),
(284.26,194.82,o),
(232.45,272.63,o),
(204.48,360.3,c),
(262.05,419.81,o),
(316,483.31,o),
(316,564.,cs),
(316,617.,o),
(291,648.,o),
(252,648.,cs),
(174,648.,o),
(137,581.,o),
(137,499.,cs),
(137,454.41,o),
(143.47,411.16,o),
(154.86,369.82,c),
(88.86,301.67,o),
(19,230.87,o),
(19,146.99,cs),
(19,55.99,o),
(79,-2.01,o),
(175,-2.01,cs),
(236.34,-2.01,o),
(296.19,22.45,o),
(344.74,67.64,c),
(365.55,48.19,o),
(386.55,30.88,o),
(407.01,15.99,cs),
(451.01,-16.01,o),
(469.01,-19.01,o),
(479.01,-19.01,cs),
(491.01,-19.01,o),
(500.01,-10.01,o),
(501.01,-0.01,c),
(502.01,6.99,o),
(498.01,14.99,o),
(483.01,22.99,c)
);
},
{
closed = 1;
nodes = (
(182.01,549.99,o),
(195.01,604.99,o),
(244.01,604.99,cs),
(260.01,604.99,o),
(270.01,589.99,o),
(270.01,553.99,cs),
(270.01,503.44,o),
(235.34,456.21,o),
(191.77,408.65,c),
(185.43,439.13,o),
(182.02,470.63,o),
(182.01,502.99,c)
);
},
{
closed = 1;
nodes = (
(68.02,215.69,o),
(115.87,269.54,o),
(169.53,324.57,c),
(202.53,235.89,o),
(257.03,157.69,o),
(315.86,96.21,c),
(277.18,60.34,o),
(229.79,40.,o),
(179.01,40.,cs),
(108.01,40.,o),
(68.01,82.,o),
(68.02,152,c)
);
}
);
width = 494;
}
);
unicode = 38;
},
{
glyphname = quotesingle;
layers = (
{
hints = (
{
horizontal = 1;
place = (547,200);
type = Stem;
},
{
place = (23,61);
type = Stem;
}
);
layerId = "DBA80DC6-7182-4C80-9763-30666CA5316C";
shapes = (
{
closed = 1;
nodes = (
(84,714,ls),
(86,736,o),
(74,747,o),
(62,747,cs),
(51,747,o),
(40,738,o),
(38,719,cs),
(23,580,ls),
(21,559,o),
(33,547,o),
(46,547,cs),
(56,547,o),
(67,556,o),
(69,574,cs)
);
}
);
width = 111;
}
);
leftKerningGroup = quotedbl2;
rightKerningGroup = quotedbl;
unicode = 39;
},
{
glyphname = parenleft;
layers = (
{
hints = (
{
horizontal = 1;
place = (-4,21);
target = up;
type = BottomGhost;
},
{
place = (70,48);
type = Stem;
}
);
layerId = "DBA80DC6-7182-4C80-9763-30666CA5316C";
shapes = (
{
closed = 1;
nodes = (
(179,7,l),
(187.24,-0.96,o),
(195.48,-4.25,o),
(202.52,-4.25,cs),
(213.91,-4.25,o),
(222.15,4.37,o),
(222.15,15.72,cs),
(222.15,22.89,o),
(218.86,31.15,o),
(211.,39.01,cs),
(148.,102.01,o),
(118.,205.01,o),
(118.,312.01,cs),
(118.,420.01,o),
(147.,534.01,o),
(202.,618.01,cs),
(207.43,626.26,o),
(209.7,633.76,o),
(209.7,640.09,cs),
(209.7,652.82,o),
(200.54,660.84,o),
(189.45,660.84,cs),
(180.65,660.84,o),
(170.63,655.78,o),
(163.01,644,cs),
(103.01,553,o),
(70.01,429,o),
(70.01,311,cs),
(70.01,192,o),
(104.01,77,o),
(179.01,7,c)
);
}
);
width = 272;
}
);
leftKerningGroup = slash;
unicode = 40;
},
{
glyphname = parenright;
layers = (
{
hints = (
{
horizontal = 1;
place = (-4,21);
target = up;
type = BottomGhost;
},
{
place = (154,48);
type = Stem;
}
);
layerId = "DBA80DC6-7182-4C80-9763-30666CA5316C";
shapes = (
{
closed = 1;
nodes = (
(167,105,o),
(202,228,o),
(202,346,cs),
(202,465,o),
(166,577,o),
(93,650,cs),
(85.04,657.96,o),
(76.93,661.25,o),
(69.93,661.25,cs),
(58.5,661.25,o),
(50.03,652.48,o),
(50.03,640.99,cs),
(50.03,633.89,o),
(53.26,625.75,o),
(61.01,618.,cs),
(124.01,555.,o),
(154.01,452.,o),
(154.01,345.,cs),
(154.01,237.,o),
(125.01,122.,o),
(70.01,39.,cs),
(64.58,30.75,o),
(62.31,23.2,o),
(62.31,16.8,cs),
(62.31,3.94,o),
(71.48,-4.28,o),
(82.58,-4.28,cs),
(91.38,-4.28,o),
(101.39,0.89,o),
(109,13,cs)
);
}
);
width = 272;
}
);
unicode = 41;
},
{
glyphname = asterisk;
layers = (
{
hints = (
{
horizontal = 1;
place = (694,-20);
target = down;
type = TopGhost;
},
{
horizontal = 1;
place = (706,-20);
target = down;
type = TopGhost;
},
{
horizontal = 1;
place = (712,21);
type = Stem;
},
{
place = (96,31);
type = Stem;
},
{
place = (101,31);
type = Stem;
}
);
layerId = "DBA80DC6-7182-4C80-9763-30666CA5316C";
shapes = (
{
closed = 1;
nodes = (
(196,601,l),
(176.57,612.66,o),
(156.99,624.17,o),
(137.38,635.64,c),
(154.51,650.35,o),
(171.67,665.1,o),
(188.99,680.01,cs),
(194.86,684.95,o),
(197.29,690.37,o),
(197.29,695.,cs),
(197.29,701.42,o),
(192.61,706.32,o),
(185.93,706.32,cs),
(181.83,706.32,o),
(176.98,704.48,o),
(171.98,700.01,cs),
(156.9,687.03,o),
(141.82,674.18,o),
(126.74,661.36,c),
(125.88,678.97,o),
(124.99,696.54,o),
(123.99,714.,cs),
(123.51,726.52,o),
(116.77,732.78,o),
(110.02,732.78,cs),
(103,732.78,o),
(95.97,726.,o),
(95.97,712.45,c),
(95.97,711.98,o),
(95.97,711.5,o),
(95.99,711.01,c),
(97.02,693.49,o),
(97.93,675.85,o),
(98.81,658.18,c),
(80.81,668.72,o),
(62.84,679.3,o),
(45.,690.01,cs),
(40.55,692.64,o),
(36.43,693.76,o),
(32.87,693.76,cs),
(25.06,693.76,o),
(19.93,688.39,o),
(19.93,681.84,cs),
(19.93,676.61,o),
(23.21,670.62,o),
(31.01,666.01,cs),
(50.98,654.43,o),
(70.95,642.69,o),
(90.92,630.92,c),
(74.95,617.35,o),
(58.98,603.75,o),
(43.01,590.01,cs),
(37.41,585.3,o),
(35.11,580.24,o),
(35.11,575.86,cs),
(35.11,569.22,o),
(40.38,564.13,o),
(47.46,564.13,cs),
(51.59,564.13,o),
(56.33,565.86,o),
(61.,570.02,cs),
(74.56,581.68,o),
(88.02,593.25,o),
(101.44,604.78,c),
(102.24,588.8,o),
(103.08,572.86,o),
(104.01,557.02,cs),
(104.51,544.52,o),
(111.76,538.27,o),
(118.76,538.27,cs),
(125.51,538.27,o),
(132.03,544.09,o),
(132.03,555.73,c),
(132.03,556.15,o),
(132.03,556.58,o),
(132.01,557.02,c),
(131.03,574.02,o),
(130.16,591.13,o),
(129.32,608.28,c),
(146.55,598.13,o),
(163.78,588.02,o),
(181.01,578.02,cs),
(185.92,575.02,o),
(190.38,573.76,o),
(194.15,573.76,cs),
(201.8,573.76,o),
(206.6,578.94,o),
(206.6,585.3,cs),
(206.6,590.47,o),
(203.42,596.42,o),
(196.01,601.01,c)
);
}
);
width = 231;
}
);
unicode = 42;
},
{
glyphname = plus;
layers = (
{
hints = (
{
horizontal = 1;
place = (314,42);
type = Stem;
},
{
place = (139,46);
type = Stem;
}
);
layerId = "DBA80DC6-7182-4C80-9763-30666CA5316C";
shapes = (
{
closed = 1;
nodes = (
(185,356,l),
(185,448,ls),
(185,467,o),
(174,477,o),
(162,477,cs),
(151,477,o),
(139,467,o),
(139,448,cs),
(139,356,l),
(54,356,ls),
(35,356,o),
(26,346,o),
(26,335,cs),
(26,325,o),
(35,314,o),
(54,314,cs),
(139,314,l),
(139,220,ls),
(139,202,o),
(151,193,o),
(162,193,cs),
(174,193,o),
(185,202,o),
(185,220,cs),
(185,314,l),
(280,314,ls),
(299,314,o),
(309,325,o),
(309,335,cs),
(309,346,o),
(299,356,o),
(280,356,cs)
);
}
);
width = 336;
}
);
unicode = 43;
},
{
glyphname = comma;
layers = (
{
hints = (
{
horizontal = 1;
place = (-133,204);
type = Stem;
},
{
place = (57,49);
type = Stem;
}
);
layerId = "DBA80DC6-7182-4C80-9763-30666CA5316C";
shapes = (
{
closed = 1;
nodes = (
(26,-133,o),
(32,-131,o),
(39,-127,cs),
(79,-104,o),
(106,-47,o),
(106,6,cs),
(106,58,o),
(87,71,o),
(66,71,cs),
(45,71,o),
(28,53,o),
(28,31,cs),
(28,5,o),
(57,-11,o),
(57,-29,cs),
(57,-56,o),
(35,-82,o),
(16,-98,cs),
(8,-105,o),
(5,-112,o),
(5,-118,cs),
(5,-127,o),
(11,-133,o),
(21,-133,cs)
);
}
);
width = 136;
}
);
leftKerningGroup = comma;
unicode = 44;
},
{
glyphname = hyphen;
layers = (
{
hints = (
{
horizontal = 1;
place = (215,38);
type = Stem;
},
{
place = (100,215);
type = Stem;
}
);
layerId = "DBA80DC6-7182-4C80-9763-30666CA5316C";
shapes = (
{
closed = 1;
nodes = (
(306,213,o),
(315,223,o),
(315,232,cs),
(315,242,o),
(306,251,o),
(288,251,c),
(233,252,o),
(174,253,o),
(127,253,cs),
(109,253,o),
(100,243,o),
(100,234,cs),
(100,224,o),
(109,215,o),
(127,215,cs),
(177,215,o),
(235,214,o),
(288,213,c)
);
}
);
width = 390;
}
);
unicode = 45;
},
{
glyphname = period;
layers = (
{
hints = (
{
horizontal = 1;
place = (-10,81);
type = Stem;
},
{
place = (30,80);
type = Stem;
}
);
layerId = "DBA80DC6-7182-4C80-9763-30666CA5316C";
shapes = (
{
closed = 1;
nodes = (
(92,-10,o),
(110,8,o),
(110,31,cs),
(110,53,o),
(92,71,o),
(70,71,cs),
(48,71,o),
(30,53,o),
(30,31,cs),
(30,8,o),
(48,-10,o),
(70,-10,cs)
);
}
);
width = 140;
}
);
leftKerningGroup = comma;
unicode = 46;
},
{
glyphname = slash;
layers = (
{
hints = (
{
horizontal = 1;
place = (-3,21);
target = up;
type = BottomGhost;
},
{
place = (40,307);
type = Stem;
}
);
layerId = "DBA80DC6-7182-4C80-9763-30666CA5316C";
shapes = (
{
closed = 1;
nodes = (
(59,-3,l),
(66,-3,o),
(75,2,o),
(81,12,cs),
(167,156,o),
(249,463,o),
(340,615,cs),
(345.03,623.38,o),
(347.25,631.06,o),
(347.25,637.45,cs),
(347.25,638.69,o),
(347.17,639.88,o),
(347.01,641.02,c),
(346.01,651.02,o),
(338.01,658.02,o),
(329.01,658.02,cs),
(322.01,658.02,o),
(313.01,654.02,o),
(306.01,643.02,cs),
(218.01,505.02,o),
(116.01,160.02,o),
(44.01,35.02,cs),
(40.95,29.67,o),
(39.65,24.32,o),
(39.65,19.42,cs),
(39.65,17.91,o),
(39.77,16.44,o),
(40.01,15.02,c),
(42.01,5.02,o),
(49.01,-2.98,o),
(59.01,-2.98,c)
);
}
);
width = 375;
}
);
leftKerningGroup = slash;
unicode = 47;
},
{
glyphname = zero;
layers = (
{
hints = (
{
horizontal = 1;
place = (-2,43);
type = Stem;
},
{
horizontal = 1;
place = (620,43);
type = Stem;
},
{
place = (30,48);
type = Stem;
},
{
place = (346,48);
type = Stem;
}
);
layerId = "DBA80DC6-7182-4C80-9763-30666CA5316C";
shapes = (
{
closed = 1;
nodes = (
(303,-2,o),
(394,89,o),
(394,345,cs),
(394,583,o),
(314,663,o),
(221,663,cs),
(125,663,o),
(30,568,o),
(30,318,cs),
(30,76,o),
(108,-2,o),
(206,-2,cs)
);
},
{
closed = 1;
nodes = (
(141,41,o),
(78,104,o),
(78,317,cs),
(78,544,o),
(154,620,o),
(221,620,cs),
(286,620,o),
(346,560,o),
(346,349,cs),
(346,113,o),
(274,41,o),
(206,41,cs)
);
}
);
width = 424;
}
);
unicode = 48;
},
{
glyphname = one;
layers = (
{
hints = (
{
horizontal = 1;
place = (-1,21);
target = up;
type = BottomGhost;
},
{
place = (145,46);
type = Stem;
}
);
layerId = "DBA80DC6-7182-4C80-9763-30666CA5316C";
shapes = (
{
closed = 1;
nodes = (
(185,636,l),
(184,650,o),
(174,658,o),
(164,658,cs),
(154,658,o),
(144,651,o),
(140,635,cs),
(119,551,o),
(74,507,o),
(23,461,cs),
(14,453,o),
(10,445,o),
(10,438,cs),
(10,427,o),
(19,419,o),
(30,419,cs),
(36,419,o),
(42,421,o),
(48,425,cs),
(78.54,445.63,o),
(119.97,494.87,o),
(143.07,531.68,c),
(144.06,512.47,o),
(144.53,487.89,o),
(144.53,459.49,cs),
(144.53,344.98,o),
(136.83,168.35,o),
(124,31.01,cs),
(122,10.01,o),
(135,-0.99,o),
(147,-0.99,cs),
(158,-0.99,o),
(169,7.01,o),
(171,25.01,cs),
(183.11,136.05,o),
(191.15,291.92,o),
(191.15,437.46,cs),
(191.15,508.2,o),
(189.25,576.5,o),
(185,636.02,c)
);
}
);
width = 261;
}
);
unicode = 49;
},
{
glyphname = two;
layers = (
{
hints = (
{
horizontal = 1;
place = (-5,43);
type = Stem;
},
{
horizontal = 1;
place = (617,43);
type = Stem;
},
{
place = (67,46);
type = Stem;
},
{
place = (306,48);
type = Stem;
},
{
place = (396,43);
type = Stem;
}
);
layerId = "DBA80DC6-7182-4C80-9763-30666CA5316C";
shapes = (
{
closed = 1;
nodes = (
(93,74,o),
(40,64,o),
(40,33,cs),
(40,19,o),
(51,9,o),
(67,9,cs),
(91,9,o),
(117,36,o),
(135,36,cs),
(166,36,o),
(239,-5,o),
(315,-5,cs),
(394,-5,o),
(439,65,o),
(439,131,cs),
(439,150,o),
(429,160,o),
(417,160,cs),
(408,160,o),
(396,153,o),
(396,134,cs),
(396,77,o),
(358,38,o),
(314,38,cs),
(271,38,o),
(210,56,o),
(170,75,c),
(283,197,o),
(354,395,o),
(354,502,cs),
(354,603,o),
(297,660,o),
(213,660,cs),
(125,660,o),
(67,603,o),
(67,520,cs),
(67,488,o),
(71,453,o),
(96,453,cs),
(108,453,o),
(118,461,o),
(118,476,cs),
(118,485,o),
(113,497,o),
(113,519,cs),
(113,580,o),
(151,617,o),
(213,617,cs),
(267,617,o),
(306,578,o),
(306,508,cs),
(306,371,o),
(208,159,o),
(120,94,cs)
);
}
);
width = 480;
}
);
unicode = 50;
},
{
glyphname = three;
layers = (
{
hints = (
{
horizontal = 1;
place = (-3,43);
type = Stem;
},
{
horizontal = 1;
place = (619,43);
type = Stem;
},
{
place = (74,46);
type = Stem;
},
{
place = (307,48);
type = Stem;
},
{
place = (349,48);
type = Stem;
}
);
layerId = "DBA80DC6-7182-4C80-9763-30666CA5316C";
shapes = (
{
closed = 1;
nodes = (
(319.84,409.89,o),
(355,458.83,o),
(355,529.01,cs),
(355,605.01,o),
(298,662.01,o),
(218,662.01,cs),
(136,662.01,o),
(74,605.01,o),
(74,522.01,cs),
(74,493.01,o),
(79,455.01,o),
(103,455.01,cs),
(114,455.01,o),
(125,463.01,o),
(125,478.01,cs),
(125,489.01,o),
(120,498.01,o),
(120,521.01,cs),
(120,582.01,o),
(162,619.01,o),
(218,619.01,cs),
(271,619.01,o),
(307,583.01,o),
(307,530.01,cs),
(307,465.01,o),
(270,406.01,o),
(204,388.01,cs),
(189,384.01,o),
(182,374.01,o),
(182,364.01,cs),
(182,353.01,o),
(192,342.01,o),
(210,342.01,cs),
(299,342.01,o),
(349,279.01,o),
(349,196.01,cs),
(349,98.01,o),
(291,40.01,o),
(215,40.01,cs),
(162,40.01,o),
(108,68.01,o),
(85,122.01,cs),
(79,136.01,o),
(69,142.01,o),
(60,142.01,cs),
(49,142.01,o),
(40,133.01,o),
(40,118.01,cs),
(40,99.01,o),
(54,74.01,o),
(73,54.01,cs),
(104,21.01,o),
(151,-2.99,o),
(213,-2.99,cs),
(319,-2.99,o),
(397,75.01,o),
(397,191.01,cs),
(397,284.03,o),
(343.34,351.35,o),
(270.84,376.55,c)
);
}
);
width = 447;
}
);
unicode = 51;
},
{
glyphname = four;
layers = (
{
hints = (
{
horizontal = 1;
place = (262,43);
type = Stem;
},
{
place = (121,48);
type = Stem;
},
{
place = (276,48);
type = Stem;
},
{
place = (288,46);
type = Stem;
}
);
layerId = "DBA80DC6-7182-4C80-9763-30666CA5316C";
shapes = (
{
closed = 1;
nodes = (
(396,231,l),
(375.54,243.86,o),
(354.91,255.52,o),
(333.78,265.59,c),
(337.56,310.28,o),
(341.94,349.35,o),
(345.99,383.,cs),
(351.99,435.,o),
(364.99,490.,o),
(364.99,502.,cs),
(364.99,520.,o),
(353.99,529.,o),
(342.99,529.,cs),
(331.99,529.,o),
(319.99,521.,o),
(316.99,504.,cs),
(304.32,431.46,o),
(294.89,356.44,o),
(288.29,284.36,c),
(250.54,297.45,o),
(210.65,305.01,o),
(166.98,305.01,cs),
(147.98,305.01,o),
(133.98,304.01,o),
(113.98,300.01,c),
(154.98,398.01,o),
(168.98,518.01,o),
(168.98,584.01,cs),
(168.98,599.01,o),
(167.98,618.01,o),
(165.98,637.01,cs),
(163.98,656.01,o),
(152.98,664.01,o),
(141.98,664.01,cs),
(129.98,664.01,o),
(117.98,654.01,o),
(117.98,637.01,cs),
(117.98,627.01,o),
(120.98,600.01,o),
(120.98,579.01,cs),
(120.98,473.01,o),
(82.98,321.01,o),
(53.98,295.01,cs),
(37.98,281.01,o),
(19.98,282.01,o),
(19.98,262.01,cs),
(19.98,250.01,o),
(28.98,238.01,o),
(44.98,238.01,cs),
(63.98,238.01,o),
(98.98,262.01,o),
(167.98,262.01,cs),
(207.55,262.01,o),
(247.12,254.66,o),
(284.62,241.08,c),
(278.68,164.31,o),
(275.98,92.31,o),
(275.98,32.02,cs),
(275.98,13.02,o),
(287.98,3.02,o),
(299.98,3.02,cs),
(311.98,3.02,o),
(323.98,13.02,o),
(323.98,32.02,cs),
(323.98,102.66,o),
(326.57,165.53,o),
(330.35,220.92,c),
(345.48,212.98,o),
(360.08,203.98,o),
(373.98,194.02,cs),
(380.98,189.02,o),
(386.98,187.02,o),
(392.98,187.02,cs),
(403.98,187.02,o),
(411.98,196.02,o),
(411.98,206.02,cs),
(411.98,215.02,o),
(406.98,224.02,o),
(395.98,231.02,c)
);
}
);
width = 452;
}
);
unicode = 52;
},
{
glyphname = five;
layers = (
{
hints = (
{
horizontal = 1;
place = (-5,43);
type = Stem;
},
{
horizontal = 1;
place = (402,43);
type = Stem;
},
{
horizontal = 1;
place = (582,43);
type = Stem;
},
{
place = (348,48);
type = Stem;
}
);
layerId = "DBA80DC6-7182-4C80-9763-30666CA5316C";
shapes = (
{
closed = 1;
nodes = (
(306,-5,o),
(396,85,o),
(396,243,cs),
(396,380,o),
(330,445,o),
(230,445,cs),
(197,445,o),
(160,437,o),
(129,426,c),
(145,477,o),
(150,529,o),
(153,567,cs),
(154,578,o),
(159,582,o),
(169,582,cs),
(227,582,o),
(305,586,o),
(356,621,cs),
(369,630,o),
(374,640,o),
(374,649,cs),
(374,659,o),
(367,667,o),
(357,667,cs),
(352,667,o),
(347,666,o),
(341,662,cs),
(288,627,o),
(232,625,o),
(146,625,cs),
(120,625,o),
(111,615,o),
(108,592,cs),
(105,570,o),
(104,476,o),
(75,418,cs),
(71,410,o),
(69,403,o),
(69,397,cs),
(69,381,o),
(81,372,o),
(95,372,cs),
(116,372,o),
(152,402,o),
(226,402,cs),
(302,402,o),
(348,355,o),
(348,243,cs),
(348,108,o),
(279,38,o),
(195,38,cs),
(139,38,o),
(97,73,o),
(85,153,cs),
(82,170,o),
(72,178,o),
(62,178,cs),
(51,178,o),
(40,167,o),
(40,150,cs),
(40,85,o),
(90,-5,o),
(194,-5,cs)
);
}
);
width = 446;
}
);
unicode = 53;
},
{
glyphname = six;
layers = (
{
hints = (
{
horizontal = 1;
place = (-3,43);
type = Stem;
},
{
horizontal = 1;
place = (364,43);
type = Stem;
},
{
horizontal = 1;
place = (620,43);
type = Stem;
},
{
place = (81,46);
type = Stem;
},
{
place = (392,48);
type = Stem;
}
);
layerId = "DBA80DC6-7182-4C80-9763-30666CA5316C";
shapes = (
{
closed = 1;
nodes = (
(267,407,l),
(217.66,407,o),
(172.44,388.19,o),
(130.38,356.78,c),
(147.79,544.38,o),
(229.33,620,o),
(303,620,cs),
(342,620,o),
(371,599,o),
(400,552,cs),
(405,544,o),
(412,540,o),
(419,540,cs),
(429,540,o),
(438,548,o),
(438,561,cs),
(438,567,o),
(436,574,o),
(432,582,cs),
(405,635,o),
(357,663,o),
(302,663,cs),
(172.86,663,o),
(88.8,515.13,o),
(80.65,312.71,c),
(63.26,294.9,o),
(46.4,275.15,o),
(30.,253.99,cs),
(23.,244.99,o),
(20.,235.99,o),
(20.,228.99,cs),
(20.,216.99,o),
(29.,208.99,o),
(39.,208.99,cs),
(48.,208.99,o),
(57.,213.99,o),
(66.,225.99,cs),
(70.96,232.58,o),
(75.91,238.95,o),
(80.84,245.1,c),
(89.61,68.61,o),
(165.73,-3.01,o),
(256.,-3.01,cs),
(345.,-3.01,o),
(440.,91.99,o),
(440.,221.99,cs),
(440.,332.99,o),
(366.,406.99,o),
(267.,406.99,c)
);
},
{
closed = 1;
nodes = (
(257.,39.99,l),
(191.,39.99,o),
(127.,103.99,o),
(127.,279.99,cs),
(127.,285.55,o),
(127.05,291.03,o),
(127.15,296.44,c),
(172.81,340.48,o),
(218.21,363.99,o),
(266.01,363.99,cs),
(339.01,363.99,o),
(392.01,309.99,o),
(392.01,221.99,cs),
(392.01,111.99,o),
(320.01,39.99,o),
(257.01,39.99,c)
);
}
);
width = 500;
}
);
unicode = 54;
},
{
glyphname = seven;
layers = (
{
hints = (
{
horizontal = 1;
place = (-2,21);
target = up;
type = BottomGhost;
},
{
horizontal = 1;
place = (250,44);
type = Stem;
},
{
horizontal = 1;
place = (258,44);
type = Stem;
},
{
horizontal = 1;
place = (580,43);
type = Stem;
},
{
horizontal = 1;
place = (614,43);
type = Stem;
},
{
place = (154,47);
type = Stem;
}
);
layerId = "DBA80DC6-7182-4C80-9763-30666CA5316C";
shapes = (
{
closed = 1;
nodes = (
(376,645,l),
(355,645,o),
(329,623,o),
(299,623,cs),
(226,623,o),
(172,657,o),
(111,657,cs),
(63,657,o),
(30,605,o),
(30,577,cs),
(30,564,o),
(38,556,o),
(49,556,cs),
(57,556,o),
(66,561,o),
(72,574,c),
(87,604,o),
(98,614,o),
(116,614,cs),
(149,614,o),
(218,584,o),
(292,580,c),
(243.74,495.32,o),
(210.82,393.85,o),
(189.27,299.09,c),
(165.58,300.67,o),
(143.22,302.01,o),
(115,302.01,cs),
(95,302.01,o),
(86,290.01,o),
(86,279.01,cs),
(86,268.01,o),
(94,258.01,o),
(112,258.01,cs),
(135.11,258.01,o),
(157.96,257.07,o),
(180.11,255.84,c),
(161.21,159.8,o),
(154,74.99,o),
(154,28.01,cs),
(154,7.01,o),
(165,-1.99,o),
(177,-1.99,cs),
(188,-1.99,o),
(200,8.01,o),
(201,30.01,cs),
(203.84,108.44,o),
(213.1,183.35,o),
(227.09,252.94,c),
(251.43,251.41,o),
(274.37,250.13,o),
(295.19,250.13,cs),
(304.58,250.13,o),
(313.54,250.39,o),
(322.,251.01,cs),
(337.,252.01,o),
(344.,262.01,o),
(344.,273.01,cs),
(344.,283.01,o),
(336.,294.01,o),
(322.,294.01,cs),
(286.87,294.01,o),
(259.73,294.92,o),
(236.53,296.13,c),
(262.09,404.27,o),
(298.93,497.7,o),
(340.,569.01,cs),
(346.,579.01,o),
(356.,580.01,o),
(377.,585.01,cs),
(397.,590.01,o),
(405.,603.01,o),
(405.,616.01,cs),
(405.,631.01,o),
(395.,645.01,o),
(376.,645.01,c)
);
}
);
width = 425;
}
);
unicode = 55;
},
{
glyphname = eight;
layers = (
{
hints = (
{
horizontal = 1;
place = (-8,43);
type = Stem;
},
{
horizontal = 1;
place = (621,43);
type = Stem;
},
{
place = (30,48);
type = Stem;
},
{
place = (85,48);
type = Stem;
},
{
place = (302,48);
type = Stem;
},
{
place = (334,48);
type = Stem;
}
);
layerId = "DBA80DC6-7182-4C80-9763-30666CA5316C";
shapes = (
{
closed = 1;
nodes = (
(303.42,421.82,o),
(349.99,471.03,o),
(349.99,536.,cs),
(349.99,621.,o),
(283.99,664.,o),
(217.99,664.,cs),
(150.99,664.,o),
(84.99,621.,o),
(84.99,536.,cs),
(84.99,472.77,o),
(128.07,423.73,o),
(178.39,377.36,c),
(106.52,321.,o),
(29.99,260.94,o),
(29.99,165.99,cs),
(29.99,48.99,o),
(117.99,-8.01,o),
(205.99,-8.01,cs),
(293.99,-8.01,o),
(381.99,50.99,o),
(381.99,165.99,cs),
(381.99,258.08,o),
(313.82,319.23,o),
(248.82,375.96,c)
);
},
{
closed = 1;
nodes = (
(133.,593.99,o),
(175.,620.99,o),
(218.,620.99,cs),
(260.,620.99,o),
(302.,593.99,o),
(302.,539.99,cs),
(302.,486.99,o),
(263.02,446.17,o),
(214.57,406.19,c),
(169.51,447.16,o),
(133.,488.3,o),
(133.,539.99,c)
);
},
{
closed = 1;
nodes = (
(141.,34.99,o),
(78.,77.99,o),
(78.,165.99,cs),
(78.,239.54,o),
(145.17,292.59,o),
(212.75,346.62,c),
(273.9,292.59,o),
(334.,238.71,o),
(334.,166.,cs),
(334.,80.,o),
(269.,35.,o),
(205.,34.99,c)
);
}
);
width = 422;
}
);
unicode = 56;
},
{
glyphname = nine;
layers = (
{
hints = (
{
horizontal = 1;
place = (-1,21);
target = up;
type = BottomGhost;
},
{
horizontal = 1;
place = (270,43);
type = Stem;
},
{
horizontal = 1;
place = (615,43);
type = Stem;
},
{
place = (30,48);
type = Stem;
},
{
place = (330,47);
type = Stem;
}
);
layerId = "DBA80DC6-7182-4C80-9763-30666CA5316C";
shapes = (
{
closed = 1;
nodes = (
(103,658,o),
(30,575,o),
(30,454,cs),
(30,343,o),
(93,270,o),
(188,270,cs),
(242.76,270,o),
(291.97,297.39,o),
(325.22,341.14,c),
(307.15,162.77,o),
(238.28,68.52,o),
(126,43,cs),
(109,39,o),
(101,29,o),
(101,19,cs),
(101,9,o),
(110,-1,o),
(124,-1,cs),
(136,-1,o),
(163,8,o),
(178,14,cs),
(314,66,o),
(377,216,o),
(377,433,cs),
(377,589,o),
(303,658,o),
(203,658,cs)
);
},
{
closed = 1;
nodes = (
(119,313,o),
(78,368,o),
(78,454,cs),
(78,550,o),
(129,615,o),
(203,615,cs),
(274,615,o),
(330,561,o),
(330,443,c),
(319,362,o),
(258,313,o),
(188,313,cs)
);
}
);
width = 427;
}
);
unicode = 57;
},
{
glyphname = colon;
layers = (
{
hints = (
{
horizontal = 1;
place = (-6,81);
type = Stem;
},
{
horizontal = 1;
place = (265,81);
type = Stem;
},
{
place = (30,80);
type = Stem;
}
);
layerId = "DBA80DC6-7182-4C80-9763-30666CA5316C";
shapes = (
{
closed = 1;
nodes = (
(92,265,o),
(110,283,o),
(110,306,cs),
(110,328,o),
(92,346,o),
(70,346,cs),
(48,346,o),
(30,328,o),
(30,306,cs),
(30,283,o),
(48,265,o),
(70,265,cs)
);
},
{
closed = 1;
nodes = (
(92,-6,o),
(110,12,o),
(110,35,cs),
(110,57,o),
(92,75,o),
(70,75,cs),
(48,75,o),
(30,57,o),
(30,35,cs),
(30,12,o),
(48,-6,o),
(70,-6,cs)
);
}
);
width = 140;
}
);
leftKerningGroup = colon;
unicode = 58;
},
{
glyphname = semicolon;
layers = (
{
hints = (
{
horizontal = 1;
place = (265,81);
type = Stem;
},
{
place = (27,80);
type = Stem;
},
{
place = (57,49);
type = Stem;
}
);
layerId = "DBA80DC6-7182-4C80-9763-30666CA5316C";
shapes = (
{
closed = 1;
nodes = (
(89,265,o),
(107,283,o),
(107,306,cs),
(107,328,o),
(89,346,o),
(67,346,cs),
(45,346,o),
(27,328,o),
(27,306,cs),
(27,283,o),
(45,265,o),
(67,265,cs)
);
},
{
closed = 1;
nodes = (
(26,-133,o),
(32,-131,o),
(39,-127,cs),
(79,-104,o),
(106,-47,o),
(106,6,cs),
(106,58,o),
(87,71,o),
(66,71,cs),
(45,71,o),
(28,53,o),
(28,31,cs),
(28,5,o),
(57,-11,o),
(57,-29,cs),
(57,-56,o),
(35,-82,o),
(16,-98,cs),
(8,-105,o),
(5,-112,o),
(5,-118,cs),
(5,-127,o),
(11,-133,o),
(21,-133,cs)
);
}
);
width = 137;
}
);
leftKerningGroup = colon;
unicode = 59;
},
{
glyphname = less;
layers = (
{
hints = (
{
horizontal = 1;
place = (191,291);
type = Stem;
},
{
place = (44,62);
type = Stem;
},
{
place = (44,182);
type = Stem;
}
);
layerId = "DBA80DC6-7182-4C80-9763-30666CA5316C";
shapes = (
{
closed = 1;
nodes = (
(188,200,l),
(195,194,o),
(202,191,o),
(207,191,cs),
(218,191,o),
(226,200,o),
(226,211,cs),
(226,217,o),
(224,224,o),
(217,230,c),
(110,328,l),
(107,331,o),
(105.5,334,o),
(105.5,336.88,cs),
(105.5,339.76,o),
(107,342.51,o),
(110,345.01,c),
(214,443.01,l),
(222,450.01,o),
(225,458.01,o),
(225,464.01,cs),
(225,474.01,o),
(217,482.01,o),
(207,482.01,cs),
(201,482.01,o),
(194,479.01,o),
(187,473.01,c),
(48,345.01,l),
(45,342.01,o),
(43.5,339.26,o),
(43.5,336.51,cs),
(43.5,333.76,o),
(45,331.01,o),
(48,328.01,c)
);
}
);
width = 275;
}
);
unicode = 60;
},
{
glyphname = equal;
layers = (
{
hints = (
{
horizontal = 1;
place = (257,41);
type = Stem;
},
{
horizontal = 1;
place = (367,41);
type = Stem;
},
{
place = (45,283);
type = Stem;
}
);
layerId = "DBA80DC6-7182-4C80-9763-30666CA5316C";
shapes = (
{
closed = 1;
nodes = (
(299,367,ls),
(318,367,o),
(328,377,o),
(328,388,cs),
(328,398,o),
(318,408,o),
(299,408,cs),
(73,408,ls),
(54,408,o),
(45,398,o),
(45,388,cs),
(45,377,o),
(54,367,o),
(73,367,cs)
);
},
{
closed = 1;
nodes = (
(299,257,ls),
(318,257,o),
(328,267,o),
(328,278,cs),
(328,288,o),
(318,298,o),
(299,298,cs),
(73,298,ls),
(54,298,o),
(45,288,o),
(45,278,cs),
(45,267,o),
(54,257,o),
(73,257,cs)
);
}
);
width = 376;
}
);
unicode = 61;
},
{
glyphname = greater;
layers = (
{
hints = (
{
horizontal = 1;
place = (192,290);
type = Stem;
},
{
place = (47,183);
type = Stem;
}
);
layerId = "DBA80DC6-7182-4C80-9763-30666CA5316C";
shapes = (
{
closed = 1;
nodes = (
(85,200,l),
(225,328,l),
(228,331,o),
(229.5,333.75,o),
(229.5,336.5,cs),
(229.5,339.25,o),
(228,342,o),
(225,345,c),
(86,473,l),
(79,479,o),
(72,482,o),
(66,482,cs),
(56,482,o),
(48,474,o),
(48,464,cs),
(48,458,o),
(51,450,o),
(59,443,c),
(163,345,l),
(166,342.5,o),
(167.5,339.75,o),
(167.5,336.87,cs),
(167.5,333.99,o),
(166,330.99,o),
(163,327.99,c),
(56,229.99,l),
(49,223.99,o),
(47,216.99,o),
(47,210.99,cs),
(47,200.99,o),
(55,191.99,o),
(66,191.99,cs),
(72,191.99,o),
(78,193.99,o),
(85,199.99,c)
);
}
);
width = 275;
}
);
unicode = 62;
},
{
glyphname = question;
layers = (
{
hints = (
{
horizontal = 1;
place = (-9,77);
type = Stem;
},
{
horizontal = 1;
place = (657,43);
type = Stem;
},
{
place = (23,47);
type = Stem;
},
{
place = (108,76);
type = Stem;
},
{
place = (120,48);
type = Stem;
},
{
place = (278,48);
type = Stem;
}
);
layerId = "DBA80DC6-7182-4C80-9763-30666CA5316C";
shapes = (
{
closed = 1;
nodes = (
(156,147,o),
(168,157,o),
(168,178,cs),
(168,253,o),
(191,301,o),
(219,341,cs),
(265,406,o),
(326,450,o),
(326,553,cs),
(326,654,o),
(250,700,o),
(174,700,cs),
(98,700,o),
(23,654,o),
(23,570,cs),
(23,547,o),
(28,503,o),
(55,503,cs),
(66,503,o),
(76,511,o),
(76,527,cs),
(76,536,o),
(70,558,o),
(70,570,cs),
(70,624,o),
(122,657,o),
(175,657,cs),
(226,657,o),
(278,626,o),
(278,553,cs),
(278,478,o),
(232,434,o),
(189,377,cs),
(153,329,o),
(120,272,o),
(120,178,cs),
(120,158,o),
(132,147,o),
(144,147,cs)
);
},
{
closed = 1;
nodes = (
(167,-9,o),
(184,8,o),
(184,30,cs),
(184,51,o),
(167,68,o),
(146,68,cs),
(125,68,o),
(108,51,o),
(108,30,cs),
(108,8,o),
(125,-9,o),
(146,-9,cs)
);
}
);
width = 353;
}
);
unicode = 63;
},
{
glyphname = at;
layers = (
{
hints = (
{
horizontal = 1;
place = (-144,43);
type = Stem;
},
{
horizontal = 1;
place = (24,43);
type = Stem;
},
{
horizontal = 1;
place = (28,42);
type = Stem;
},
{
horizontal = 1;
place = (321,43);
type = Stem;
},
{
horizontal = 1;
place = (487,43);
type = Stem;
},
{
place = (30,46);
type = Stem;
},
{
place = (216,46);
type = Stem;
},
{
place = (453,38);
type = Stem;
},
{
place = (631,46);
type = Stem;
}
);
layerId = "DBA80DC6-7182-4C80-9763-30666CA5316C";
shapes = (
{
closed = 1;
nodes = (
(411,530,l),
(189,530,o),
(30,371,o),
(30,161,cs),
(30,-32,o),
(139,-144,o),
(315,-144,cs),
(370,-144,o),
(422,-136,o),
(467,-115,cs),
(480,-109,o),
(485,-100,o),
(485,-92,cs),
(485,-83,o),
(478,-75,o),
(465,-75,cs),
(447,-75,o),
(395,-101,o),
(315,-101,cs),
(166,-101,o),
(76,-11,o),
(76,162,cs),
(76,346,o),
(217,487,o),
(411,487,cs),
(544,487,o),
(631,404,o),
(631,273,cs),
(631,122,o),
(577,70,o),
(533,70,cs),
(505,70,o),
(491,86,o),
(491,157,cs),
(491,217,o),
(502,323,o),
(502,339,cs),
(502,357,o),
(492,365,o),
(481,365,cs),
(471.77,365,o),
(460.84,357.34,o),
(457.63,342.02,c),
(434.23,355.91,o),
(407.58,364.,o),
(379.98,364.,cs),
(300.98,364.,o),
(215.98,279.,o),
(215.98,164.,cs),
(215.98,70.,o),
(262.98,24.,o),
(322.98,24.,cs),
(376.43,24.,o),
(419.43,52.74,o),
(450.54,105.33,c),
(461.52,50.08,o),
(491.1,27.99,o),
(529.98,27.99,cs),
(599.98,27.99,o),
(676.98,105.99,o),
(676.98,272.99,cs),
(676.98,425.99,o),
(570.98,529.99,o),
(410.98,529.99,c)
);
},
{
closed = 1;
nodes = (
(324.98,66.99,l),
(288.98,66.99,o),
(261.98,94.99,o),
(261.98,163.99,cs),
(261.98,255.99,o),
(325.98,320.99,o),
(382.98,320.99,cs),
(408.98,320.99,o),
(434.98,313.23,o),
(452.98,296.12,c),
(450.41,265.75,o),
(448.44,234.2,o),
(447.21,205.2,c),
(431.32,112.42,o),
(382.03,66.98,o),
(325.,66.98,c)
);
}
);
width = 707;
}
);
unicode = 64;
},
{
glyphname = A;
layers = (
{
anchors = (
{
name = t.uni0302_2;
position = "{603, 700}";
}
);
hints = (
{
horizontal = 1;
place = (-2,43);
type = Stem;
},
{
horizontal = 1;
place = (269,41);
type = Stem;
},
{
horizontal = 1;
place = (636,66);
type = Stem;
},
{
place = (530,48);
type = Stem;
}
);
layerId = "DBA80DC6-7182-4C80-9763-30666CA5316C";
shapes = (
{
closed = 1;
nodes = (
(731,213,l),
(691,119,o),
(657,41,o),
(625,41,cs),
(593,41,o),
(578,96,o),
(578,216,cs),
(578,402,o),
(628,623,o),
(628,672,cs),
(628,690,o),
(616,702,o),
(597,702,cs),
(546,702,o),
(481,614,o),
(374,365,cs),
(365.85,346.08,o),
(357.85,327.69,o),
(349.96,309.91,c),
(307.32,309.36,o),
(266.24,310.11,o),
(230,312,c),
(217.37,313.05,o),
(207.92,304.13,o),
(207.92,291.01,cs),
(207.92,280.01,o),
(215.79,271.94,o),
(229,271,cs),
(260.38,269.41,o),
(295.18,268.63,o),
(331.33,268.78,c),
(268.13,132.34,o),
(209.31,41,o),
(129,41,cs),
(73,41,o),
(58,84,o),
(38,84,cs),
(28,84,o),
(19,75,o),
(19,63,cs),
(19,36,o),
(64,-2,o),
(129,-2,cs),
(247.47,-2,o),
(315.11,118,o),
(383.52,269.64,c),
(434.03,271.09,o),
(485.22,274.4,o),
(531.8,279.89,c),
(530.65,255.88,o),
(529.99,231.19,o),
(529.99,206,cs),
(529.99,37,o),
(569.99,-2,o),
(623.99,-2,cs),
(682.99,-2,o),
(723.99,90,o),
(766.99,196,cs),
(769.44,202.05,o),
(770.5,207.46,o),
(770.5,212.13,cs),
(770.5,224.7,o),
(762.8,231.93,o),
(753.8,231.93,cs),
(745.7,231.93,o),
(736.54,226.08,o),
(730.99,213,c)
);
},
{
closed = 1;
nodes = (
(492.38,316.09,o),
(447.07,312.93,o),
(402.02,311.24,c),
(408.94,326.95,o),
(415.91,342.9,o),
(422.99,359,cs),
(491.99,517,o),
(552.99,636,o),
(573.99,636,cs),
(585.64,636,o),
(547.43,502.35,o),
(534.28,320.91,c)
);
}
);
width = 716;
}
);
leftKerningGroup = A2;
rightKerningGroup = A;
unicode = 65;
},
{
glyphname = B;
layers = (
{
hints = (
{
horizontal = 1;
place = (-3,43);
type = Stem;
},
{
horizontal = 1;
place = (-2,43);
type = Stem;
},
{
horizontal = 1;
place = (108,42);
type = Stem;
},
{
horizontal = 1;
place = (344,29);
type = Stem;
},
{
horizontal = 1;
place = (658,43);
type = Stem;
},
{
place = (59,47);
type = Stem;
},
{
place = (103,48);
type = Stem;
},
{
place = (290,48);
type = Stem;
},
{
place = (527,48);
type = Stem;
},
{
place = (579,48);
type = Stem;
}
);
layerId = "DBA80DC6-7182-4C80-9763-30666CA5316C";
shapes = (
{
closed = 1;
nodes = (
(470.72,373.35,l),
(523.51,388.97,o),
(575,445.12,o),
(575,517,cs),
(575,617,o),
(490,701,o),
(356,701,cs),
(208,701,o),
(103,606,o),
(103,478,cs),
(103,422,o),
(135,361,o),
(169,361,cs),
(179,361,o),
(187,369,o),
(187,380,cs),
(187,401,o),
(151,416,o),
(151,480,cs),
(151,580,o),
(235,658,o),
(355,658,cs),
(462,658,o),
(527,593,o),
(527,516,cs),
(527,449,o),
(481,402,o),
(412,389,c),
(399,387,o),
(392,376,o),
(392,366,cs),
(392,355,o),
(400,344,o),
(415,344,cs),
(527,344,o),
(579,274,o),
(579,200,cs),
(579,102,o),
(517,41,o),
(443,41,cs),
(394.68,41,o),
(343.07,68.61,o),
(292.88,96.04,c),
(321.76,158.4,o),
(338,251.85,o),
(338,380.99,cs),
(338,435.99,o),
(334,490.99,o),
(328,531.99,cs),
(326,547.99,o),
(316,557.99,o),
(305,557.99,cs),
(291,557.99,o),
(281,545.99,o),
(281,530.99,cs),
(281,517.99,o),
(290,454.99,o),
(290,382.99,cs),
(290,260.84,o),
(277.64,174.01,o),
(252.92,117.51,c),
(217.64,135.72,o),
(183.75,149.99,o),
(153,149.99,cs),
(92,149.99,o),
(59,110.99,o),
(59,71.99,c),
(60,33.99,o),
(91,-3.01,o),
(158,-3.01,cs),
(203.76,-3.01,o),
(242.82,17.08,o),
(272.74,60.38,c),
(326.58,30.11,o),
(385.22,-2.01,o),
(442.99,-2.01,cs),
(543.99,-2.01,o),
(626.99,81.99,o),
(626.99,193.99,cs),
(626.99,283.92,o),
(573.09,361.22,o),
(470.71,373.34,c)
);
},
{
closed = 1;
nodes = (
(152.99,39.99,l),
(121.99,39.99,o),
(105.99,55.99,o),
(105.99,72.99,cs),
(105.99,89.99,o),
(120.99,107.99,o),
(152.99,107.99,cs),
(176.09,107.99,o),
(203.46,96.89,o),
(232.73,81.79,c),
(211.84,53.49,o),
(185.05,39.99,o),
(153,39.99,c)
);
}
);
width = 643;
}
);
leftKerningGroup = B2;
rightKerningGroup = B;
unicode = 66;
},
{
glyphname = C;
layers = (
{
anchors = (
{
name = t.uni0302_2;
position = "{419, 700}";
},
{
name = b.uni0326_1_2;
position = "{326, 0}";
}
);
hints = (
{
horizontal = 1;
place = (-5,43);
type = Stem;
},
{
horizontal = 1;
place = (661,43);
type = Stem;
},
{
place = (93,48);
type = Stem;
},
{
place = (468,46);
type = Stem;
}
);
layerId = "DBA80DC6-7182-4C80-9763-30666CA5316C";
shapes = (
{
closed = 1;
nodes = (
(443,-5,o),
(522,57,o),
(580,196,cs),
(582.55,202.12,o),
(583.66,207.72,o),
(583.66,212.62,cs),
(583.66,225.4,o),
(576.13,233.4,o),
(567.09,233.4,cs),
(559.21,233.4,o),
(550.18,227.32,o),
(543.99,213.01,cs),
(489.99,89.01,o),
(427.99,38.01,o),
(340.99,38.01,cs),
(222.99,38.01,o),
(140.99,130.01,o),
(140.99,270.01,cs),
(140.99,517.01,o),
(284.99,661.01,o),
(382.99,661.01,cs),
(440.99,661.01,o),
(467.99,624.01,o),
(467.99,582.01,cs),
(467.99,542.01,o),
(446.99,520.01,o),
(446.99,498.01,cs),
(446.99,488.01,o),
(455.99,480.01,o),
(466.99,480.01,cs),
(473.99,480.01,o),
(481.99,484.01,o),
(487.99,493.01,cs),
(503.99,517.01,o),
(513.99,559.01,o),
(513.99,588.01,cs),
(513.99,657.01,o),
(460.99,704.01,o),
(383.99,704.01,cs),
(245.99,704.01,o),
(92.99,530.01,o),
(92.99,275.01,cs),
(92.99,102.01,o),
(189.99,-4.99,o),
(335,-5,c)
);
}
);
width = 529;
}
);
leftKerningGroup = C;
unicode = 67;
},
{
glyphname = D;
layers = (
{
anchors = (
{
name = t.uni0302_2;
position = "{381, 700}";
}
);
hints = (
{
horizontal = 1;
place = (-2,43);
type = Stem;
},
{
horizontal = 1;
place = (109,41);
type = Stem;
},
{
horizontal = 1;
place = (401,43);
type = Stem;
},
{
horizontal = 1;
place = (662,43);
type = Stem;
},
{
place = (37,46);
type = Stem;
},
{
place = (100,48);
type = Stem;
},
{
place = (288,48);
type = Stem;
},
{
place = (649,49);
type = Stem;
}
);
layerId = "DBA80DC6-7182-4C80-9763-30666CA5316C";
shapes = (
{
closed = 1;
nodes = (
(209,705,o),
(100,630,o),
(100,527,cs),
(100,451,o),
(156,401,o),
(248,401,cs),
(261.19,401,o),
(274.55,401.98,o),
(287.85,403.77,c),
(286.43,317.45,o),
(274.08,197.84,o),
(234.51,120.43,c),
(198.44,137.23,o),
(162.58,150.,o),
(128.,150.,cs),
(68.,150.,o),
(37.,112.,o),
(37.,73.,cs),
(37.,35.,o),
(67.,-2.,o),
(129.,-2.,cs),
(179.4,-2.,o),
(221.17,20.64,o),
(253.67,63.46,c),
(312.75,32.67,o),
(376.71,-2,o),
(438.,-2,cs),
(597.,-2,o),
(698.,137,o),
(698.,362,cs),
(698.,575,o),
(569.,705,o),
(362,705,cs)
);
},
{
closed = 1;
nodes = (
(386.59,41,o),
(331.77,71.05,o),
(276.45,99.6,c),
(313.89,170.77,o),
(334.22,277.45,o),
(335.88,413.66,c),
(360.82,420.53,o),
(384.44,429.72,o),
(405.,440,cs),
(417.,446,o),
(423.,454,o),
(423.,464,cs),
(423.,474,o),
(415.,482,o),
(403.,482,cs),
(392.75,482,o),
(368.86,469.67,o),
(335.97,459.06,c),
(335.86,489.7,o),
(335.34,516.1,o),
(333.,534.01,cs),
(331.,549.01,o),
(320.,557.01,o),
(310.,557.01,cs),
(298.,557.01,o),
(286.,547.01,o),
(286.,527.01,cs),
(286.,513.47,o),
(287.43,491.34,o),
(287.87,447.28,c),
(275.23,445.25,o),
(261.89,444.01,o),
(248.,444.01,cs),
(186.,444.01,o),
(148.,476.01,o),
(148.,528.01,cs),
(148.,611.01,o),
(230.,662.01,o),
(362.,662.01,cs),
(544.,662.01,o),
(649.,554.01,o),
(649.,362.01,cs),
(649.,164.01,o),
(568.,41.01,o),
(437.,41,c)
);
},
{
closed = 1;
nodes = (
(128.,40.01,l),
(98.,40.01,o),
(83.,57.01,o),
(83.,74.01,cs),
(83.,92.01,o),
(97.,109.01,o),
(128.,109.01,cs),
(152.21,109.01,o),
(181.25,98.55,o),
(212.23,84.13,c),
(190.32,56.97,o),
(162.24,40.,o),
(127.99,40.,c)
);
}
);
width = 748;
}
);
leftKerningGroup = D2;
rightKerningGroup = D;
unicode = 68;
},
{
glyphname = E;
layers = (
{
anchors = (
{
name = t.uni0302_2;
position = "{348, 700}";
}
);
hints = (
{
horizontal = 1;
place = (-4,43);
type = Stem;
},
{
horizontal = 1;
place = (362,44);
type = Stem;
},
{
horizontal = 1;
place = (661,43);
type = Stem;
},
{
place = (130,49);
type = Stem;
},
{
place = (182,48);
type = Stem;
},
{
place = (444,44);
type = Stem;
}
);
layerId = "DBA80DC6-7182-4C80-9763-30666CA5316C";
shapes = (
{
closed = 1;
nodes = (
(539,213,l),
(486,88,o),
(419,39,o),
(339,39,cs),
(231,39,o),
(179,112,o),
(179,188,cs),
(179,273,o),
(241,362,o),
(377,362,cs),
(393,362,o),
(402,371,o),
(402,384,cs),
(402,397,o),
(393,406,o),
(377,406,cs),
(278,406,o),
(230,477,o),
(230,544,cs),
(230,604,o),
(268,661,o),
(343,661,cs),
(405,661,o),
(444,623,o),
(444,576,cs),
(444,557,o),
(441,545,o),
(441,537,cs),
(441,527,o),
(447,519,o),
(459,519,cs),
(476,519,o),
(488,542,o),
(488,579,cs),
(488,650,o),
(425,704,o),
(344,704,cs),
(242,704,o),
(182,627,o),
(182,545,cs),
(182,486.09,o),
(212.02,424.18,o),
(279.86,387.87,c),
(177.77,349.39,o),
(130,266.07,o),
(130,185.99,cs),
(130,88.99,o),
(201,-4.01,o),
(333,-4.01,cs),
(436,-4.01,o),
(518,58.99,o),
(575,195.99,cs),
(577.55,202.11,o),
(578.66,207.74,o),
(578.66,212.68,cs),
(578.66,225.6,o),
(571.09,233.82,o),
(562.02,233.82,cs),
(554.16,233.82,o),
(545.16,227.64,o),
(538.99,212.99,c)
);
}
);
width = 524;
}
);
leftKerningGroup = E;
rightKerningGroup = A;
unicode = 69;
},
{
glyphname = F;
layers = (
{
hints = (
{
horizontal = 1;
place = (-1,43);
type = Stem;
},
{
horizontal = 1;
place = (331,42);
type = Stem;
},
{
horizontal = 1;
place = (638,43);
type = Stem;
},
{
horizontal = 1;
place = (656,43);
type = Stem;
},
{
place = (88,48);
type = Stem;
},
{
place = (326,48);
type = Stem;
},
{
place = (329,49);
type = Stem;
},
{
place = (352,48);
type = Stem;
}
);
layerId = "DBA80DC6-7182-4C80-9763-30666CA5316C";
shapes = (
{
closed = 1;
nodes = (
(512,638,l),
(579,638,o),
(634,659,o),
(634,683,cs),
(634,693,o),
(627,700,o),
(617,700,cs),
(601,700,o),
(575,681,o),
(513,681,cs),
(478,681,o),
(337,699,o),
(274,699,cs),
(155,699,o),
(88,642,o),
(88,566,cs),
(88,499,o),
(149,448,o),
(187,448,cs),
(203,448,o),
(210,457,o),
(210,467,cs),
(210,476,o),
(205,481,o),
(191,488,cs),
(157,505,o),
(136,533,o),
(136,566,cs),
(136,617,o),
(185,656,o),
(274,656,cs),
(292.58,656,o),
(320.95,654.02,o),
(351.92,651.37,c),
(347.59,599.57,o),
(337.94,473.94,o),
(329.43,365.56,c),
(300.28,359.83,o),
(271.22,350.87,o),
(241.,339,cs),
(231.,335,o),
(226.,326,o),
(226.,317,cs),
(226.,307,o),
(233.,299,o),
(246.,299,cs),
(260.24,299,o),
(286.63,312.41,o),
(325.98,321.87,c),
(321.11,260.37,o),
(316.98,209.74,o),
(315.01,190.02,cs),
(305.01,87.02,o),
(272.01,42.02,o),
(218.01,42.02,cs),
(177.01,42.02,o),
(149.01,66.02,o),
(133.01,107.02,cs),
(128.01,120.02,o),
(122.01,126.02,o),
(110.01,126.02,cs),
(99.01,126.02,o),
(89.01,118.02,o),
(89.01,103.02,cs),
(89.01,54.02,o),
(141.01,-0.98,o),
(216.01,-0.98,cs),
(304.01,-0.98,o),
(353.01,61.02,o),
(363.01,187.02,cs),
(364.48,206.48,o),
(368.92,262.22,o),
(374.34,329.82,c),
(383.13,330.59,o),
(392.35,331.02,o),
(402.01,331.02,cs),
(453.01,331.02,o),
(489.01,321.02,o),
(501.01,321.02,cs),
(514.01,321.02,o),
(521.01,329.02,o),
(521.01,339.02,cs),
(521.01,349.02,o),
(515.01,359.02,o),
(495.01,363.02,cs),
(470.01,368.02,o),
(433.01,373.02,o),
(405.01,373.02,cs),
(395.82,373.02,o),
(386.74,372.7,o),
(377.74,372.06,c),
(385.84,472.78,o),
(395.1,587.29,o),
(399.97,647.04,c),
(447.91,642.53,o),
(493.5,638.02,o),
(512.02,638.02,c)
);
}
);
width = 646;
}
);
unicode = 70;
},
{
glyphname = G;
layers = (
{
anchors = (
{
name = t.uni0302_2;
position = "{394, 700}";
},
{
name = b.uni0326_1_2;
position = "{297, 0}";
}
);
hints = (
{
horizontal = 1;
place = (-4,43);
type = Stem;
},
{
horizontal = 1;
place = (262,43);
type = Stem;
},
{
horizontal = 1;
place = (661,43);
type = Stem;
},
{
place = (82,49);
type = Stem;
},
{
place = (465,48);
type = Stem;
}
);
layerId = "DBA80DC6-7182-4C80-9763-30666CA5316C";
shapes = (
{
closed = 1;
nodes = (
(559,376,l),
(551,376,o),
(543,371,o),
(535,362,cs),
(492,313,o),
(458,305,o),
(384,305,cs),
(368,305,o),
(358,297,o),
(358,284,cs),
(358,270,o),
(368,262,o),
(395,262,cs),
(418.3,262,o),
(440.1,264.16,o),
(460.1,268.51,c),
(463,253.86,o),
(464.99,236.09,o),
(464.99,218.99,cs),
(464.99,108.99,o),
(402.99,38.99,o),
(311.99,38.99,cs),
(192.99,38.99,o),
(130.99,156.99,o),
(130.99,289.99,cs),
(130.99,462.27,o),
(227.42,661.01,o),
(384.77,661.01,cs),
(437.02,661.01,o),
(465.99,633.12,o),
(465.99,583.98,cs),
(465.99,561.98,o),
(458.99,537.98,o),
(445.99,511.98,cs),
(441.99,503.98,o),
(440.99,498.98,o),
(440.99,493.98,cs),
(440.99,483.98,o),
(449.99,475.98,o),
(460.99,475.98,cs),
(469.99,475.98,o),
(476.99,480.98,o),
(482.99,491.98,cs),
(499.99,523.98,o),
(510.99,557.98,o),
(510.99,588.98,cs),
(510.99,656.98,o),
(462.99,703.98,o),
(382.99,703.98,cs),
(195.99,703.98,o),
(81.99,484.98,o),
(81.99,290.98,cs),
(81.99,135.98,o),
(155.99,-4.02,o),
(308.99,-4.02,cs),
(431.99,-4.02,o),
(512.99,84.98,o),
(512.99,219.98,cs),
(512.99,239.71,o),
(510.05,263.86,o),
(505.42,283.58,c),
(529.79,295.07,o),
(549.94,311.17,o),
(564.99,331.98,cs),
(572.99,342.98,o),
(576.99,350.98,o),
(576.99,357.98,cs),
(576.99,366.98,o),
(569.99,375.98,o),
(558.99,375.98,c)
);
}
);
width = 599;
}
);
leftKerningGroup = C;
rightKerningGroup = G;
unicode = 71;
},
{
glyphname = H;
layers = (
{
anchors = (
{
name = t.uni0302_2;
position = "{443, 700}";
},
{
name = b.uni0326_1_2;
position = "{373, 0}";
}
);
hints = (
{
horizontal = 1;
place = (-3,43);
type = Stem;
},
{
horizontal = 1;
place = (-2,43);
type = Stem;
},
{
horizontal = 1;
place = (355,47);
type = Stem;
},
{
horizontal = 1;
place = (363,41);
type = Stem;
},
{
horizontal = 1;
place = (656,43);
type = Stem;
},
{
horizontal = 1;
place = (708,-20);
target = down;
type = TopGhost;
},
{
place = (89,47);
type = Stem;
},
{
place = (319,48);
type = Stem;
},
{
place = (542,48);
type = Stem;
}
);
layerId = "DBA80DC6-7182-4C80-9763-30666CA5316C";
shapes = (
{
closed = 1;
nodes = (
(726,129,o),
(680,41,o),
(640,41,cs),
(613,41,o),
(590,64,o),
(590,139,cs),
(590,189.35,o),
(595.25,273.04,o),
(601.95,359.87,c),
(629.46,357.63,o),
(652.12,355,o),
(659,355,cs),
(673,355,o),
(682,366,o),
(682,376,cs),
(682,384,o),
(676,394,o),
(661,396,cs),
(643.68,398.34,o),
(625.27,400.24,o),
(605.25,401.6,c),
(616.55,540.97,o),
(630.,676.04,o),
(630.,683,cs),
(630.,699,o),
(619.,708,o),
(608.,708,cs),
(596.,708,o),
(584.,698,o),
(582.,678,cs),
(574.73,605.76,o),
(565.11,503.2,o),
(557.13,403.71,c),
(548.39,403.9,o),
(539.36,404,o),
(530.01,404,cs),
(467.22,404,o),
(411.27,397.52,o),
(362.07,385.84,c),
(365.54,433.97,o),
(367,482.03,o),
(367,527.,cs),
(367,651.,o),
(331,699.,o),
(259,699.,cs),
(190,699.,o),
(141,636.,o),
(141,603.,cs),
(141,591.,o),
(148,584.,o),
(158,584.,cs),
(185,584.,o),
(195,656.,o),
(256,656.,cs),
(298.02,656.,o),
(319.03,621.62,o),
(319.03,533.26,cs),
(319.03,484.77,o),
(316.41,428.37,o),
(311.53,371.27,c),
(162.08,319.87,o),
(88.98,214.72,o),
(88.98,105.,cs),
(88.98,40.,o),
(127.98,-3.,o),
(186.98,-3.,cs),
(292.56,-3.,o),
(340.36,162.71,o),
(358.15,340.39,c),
(410.81,355.11,o),
(471.08,363.,o),
(536.99,363.,cs),
(542.53,363.,o),
(548.19,362.9,o),
(553.9,362.73,c),
(547.01,272.13,o),
(541.99,188.1,o),
(541.99,137.01,cs),
(541.99,38.01,o),
(581.99,-1.99,o),
(635.99,-1.99,cs),
(708.99,-1.99,o),
(750.99,88.01,o),
(796.99,196.01,cs),
(799.49,201.84,o),
(800.57,207.2,o),
(800.57,211.92,cs),
(800.57,224.64,o),
(792.69,232.68,o),
(783.47,232.68,cs),
(775.6,232.68,o),
(766.75,226.82,o),
(761,213,cs)
);
},
{
closed = 1;
nodes = (
(189.99,40,l),
(157.99,40,o),
(135.99,61,o),
(135.99,106,cs),
(135.99,203.12,o),
(200.38,279.43,o),
(306.77,322.88,c),
(290.33,176.76,o),
(255.39,40,o),
(190.01,40,c)
);
}
);
width = 746;
}
);
leftKerningGroup = H;
rightKerningGroup = A;
unicode = 72;
},
{
glyphname = I;
layers = (
{
anchors = (
{
name = t.uni0302_2;
position = "{302, 700}";
},
{
name = b.uni0326_1_2;
position = "{231, 0}";
}
);
hints = (
{
horizontal = 1;
place = (-3,43);
type = Stem;
},
{
horizontal = 1;
place = (659,43);
type = Stem;
},
{
place = (115,48);
type = Stem;
},
{
place = (370,48);
type = Stem;
}
);
layerId = "DBA80DC6-7182-4C80-9763-30666CA5316C";
shapes = (
{
closed = 1;
nodes = (
(369,654,l),
(369.5,625.23,o),
(369.75,597.44,o),
(369.75,570.64,cs),
(369.75,221.15,o),
(327.24,40,o),
(239.01,40,cs),
(200.01,40,o),
(182.01,70,o),
(163.01,70,cs),
(154.01,70,o),
(146.01,62,o),
(146.01,50,cs),
(146.01,24,o),
(190.01,-3,o),
(239.01,-3,cs),
(364.01,-3,o),
(418.01,167,o),
(418.01,566,cs),
(418.01,601,o),
(418.01,636,o),
(416.01,676,c),
(415.01,687,o),
(411.01,692,o),
(396.01,694,cs),
(359.01,699,o),
(318.01,702,o),
(277.01,702,cs),
(178.01,702,o),
(115.01,652,o),
(115.01,576,cs),
(115.01,516,o),
(174.01,452,o),
(212.01,452,cs),
(226.01,452,o),
(234.01,460,o),
(234.01,471,cs),
(234.01,480,o),
(229.01,486,o),
(215.01,496,cs),
(181.01,520,o),
(163.01,548,o),
(163.01,577,cs),
(163.01,630,o),
(204.01,659,o),
(279.01,659,cs),
(306.01,659,o),
(334.01,658,o),
(369.01,654,c)
);
}
);
width = 462;
}
);
leftKerningGroup = I2;
rightKerningGroup = I;
unicode = 73;
},
{
glyphname = J;
layers = (
{
anchors = (
{
name = t.uni0302_2;
position = "{309, 700}";
},
{
name = b.uni0326_1_2;
position = "{239, 0}";
}
);
hints = (
{
horizontal = 1;
place = (-2,43);
type = Stem;
},
{
horizontal = 1;
place = (618,43);
type = Stem;
},
{
horizontal = 1;
place = (660,43);
type = Stem;
},
{
place = (62,48);
type = Stem;
},
{
place = (110,47);
type = Stem;
},
{
place = (365,48);
type = Stem;
}
);
layerId = "DBA80DC6-7182-4C80-9763-30666CA5316C";
shapes = (
{
closed = 1;
nodes = (
(487,667,l),
(477,667,o),
(468,661,o),
(447,661,cs),
(401,661,o),
(329,703,o),
(255,703,cs),
(165,703,o),
(110,653,o),
(110,571,cs),
(110,550,o),
(121,539,o),
(135,539,cs),
(148,539,o),
(157,548,o),
(157,571,cs),
(157,631,o),
(190,660,o),
(259,660,cs),
(292.56,660,o),
(326.65,648.8,o),
(359.21,637.97,c),
(363.07,601.22,o),
(365.,553.04,o),
(365.,501.,cs),
(365.,188.,o),
(320.,41.,o),
(221.,41.,cs),
(158.,41.,o),
(110.,89.,o),
(110.,185.,cs),
(110.,228.,o),
(117.,269.,o),
(117.,288.,cs),
(117.,307.,o),
(106.,315.,o),
(95.,315.,cs),
(83.,315.,o),
(71.,306.,o),
(69.,288.,cs),
(65.,252.,o),
(62.,218.,o),
(62.,185.,cs),
(62.,63.91,o),
(127.02,-2.01,o),
(218.92,-2.01,cs),
(355.14,-2.01,o),
(413.,142.33,o),
(413.,501.,cs),
(413.,531.09,o),
(412.3,579.34,o),
(408.57,622.98,c),
(421.21,619.94,o),
(433.4,618.,o),
(444.99,618.,cs),
(479.99,618.,o),
(501.99,631.,o),
(501.99,650.,cs),
(501.99,660.,o),
(494.99,667.,o),
(486.99,667.,c)
);
}
);
width = 477;
}
);
leftKerningGroup = J2;
rightKerningGroup = J;
unicode = 74;
},
{
glyphname = K;
layers = (
{
anchors = (
{
name = t.uni0302_2;
position = "{465, 700}";
},
{
name = b.uni0326_1_2;
position = "{436, 0}";
}
);
hints = (
{
horizontal = 1;
place = (-4,43);
type = Stem;
},
{
horizontal = 1;
place = (333,44);
type = Stem;
},
{
horizontal = 1;
place = (659,43);
type = Stem;
},
{
place = (307,48);
type = Stem;
}
);
layerId = "DBA80DC6-7182-4C80-9763-30666CA5316C";
shapes = (
{
closed = 1;
nodes = (
(727,213,l),
(691,132,o),
(646,39,o),
(610,39,cs),
(581,39,o),
(557,84,o),
(534,180,cs),
(516.88,253,o),
(492.45,326,o),
(463.63,366.06,c),
(558.22,413.63,o),
(617.09,510.67,o),
(653,655,cs),
(656,667,o),
(657,674,o),
(657,678,cs),
(657,695,o),
(646,704,o),
(635,704,cs),
(624,704,o),
(612,696,o),
(609,680,cs),
(573.44,492.3,o),
(472.49,379.75,o),
(337.97,377.05,c),
(348.33,451.02,o),
(355.02,522.68,o),
(355.02,585.,cs),
(355.02,657.,o),
(311.02,702.,o),
(241.02,702.,cs),
(187.02,702.,o),
(109.02,645.,o),
(109.02,609.,cs),
(109.02,598.,o),
(115.02,592.,o),
(126.02,592.,cs),
(149.02,592.,o),
(182.02,659.,o),
(240.02,659.,cs),
(281.02,659.,o),
(307.02,632.,o),
(307.02,590.,cs),
(307.02,521.21,o),
(300.07,448.05,o),
(290.12,377.76,c),
(282.39,377.9,o),
(275.88,378.,o),
(273.02,378.,cs),
(258.02,378.,o),
(248.02,370.,o),
(248.02,359.,cs),
(248.02,345.42,o),
(260.15,336.31,o),
(283.38,333.19,c),
(257.92,174.83,o),
(221.02,39.93,o),
(221.02,17.,cs),
(221.02,4.,o),
(231.02,-4.,o),
(243.02,-4.,cs),
(254.02,-4.,o),
(265.02,2.,o),
(269.02,18.,cs),
(290.02,109.76,o),
(314.08,222.3,o),
(331.4,332.82,c),
(362.76,334.68,o),
(391.56,339.68,o),
(418.01,347.8,c),
(446.55,311.27,o),
(468.43,244.34,o),
(486.02,173.98,cs),
(509.02,83.98,o),
(535.02,-4.02,o),
(608.02,-4.02,cs),
(675.02,-4.02,o),
(719.02,92.98,o),
(763.02,195.98,cs),
(765.47,201.7,o),
(766.53,206.86,o),
(766.53,211.35,cs),
(766.53,223.64,o),
(758.57,230.91,o),
(749.37,230.91,cs),
(741.37,230.91,o),
(732.45,225.42,o),
(727.,212.97,c)
);
}
);
width = 712;
}
);
leftKerningGroup = K;
rightKerningGroup = A;
unicode = 75;
},
{
glyphname = L;
layers = (
{
anchors = (
{
name = t.uni0302_2;
position = "{402, 700}";
},
{
name = b.uni0326_1_2;
position = "{329, 0}";
}
);
hints = (
{
horizontal = 1;
place = (-4,43);
type = Stem;
},
{
horizontal = 1;
place = (-1,21);
target = up;
type = BottomGhost;
},
{
horizontal = 1;
place = (32,43);
type = Stem;
},
{
horizontal = 1;
place = (480,42);
type = Stem;
},
{
horizontal = 1;
place = (659,43);
type = Stem;
},
{
place = (237,46);
type = Stem;
},
{
place = (431,47);
type = Stem;
}
);
layerId = "DBA80DC6-7182-4C80-9763-30666CA5316C";
shapes = (
{
closed = 1;
nodes = (
(531,100,o),
(495,39,o),
(455,39,cs),
(409,39,o),
(320,75,o),
(257,75,cs),
(224,75,o),
(187,69,o),
(166,62,c),
(240,152,o),
(259,224,o),
(283,464,cs),
(283.58,469.82,o),
(284.21,475.51,o),
(284.88,481.07,c),
(292.42,480.37,o),
(300.13,480.01,o),
(308,480.01,cs),
(414,480.01,o),
(478,543.01,o),
(478,616.01,cs),
(478,666.01,o),
(442,702.01,o),
(389,702.01,cs),
(314.05,702.01,o),
(265.22,644.71,o),
(243.73,531.96,c),
(193.78,549.03,o),
(157.37,587.88,o),
(148,647.01,cs),
(146,662.01,o),
(136,669.01,o),
(127,669.01,cs),
(116,669.01,o),
(106,660.01,o),
(106,645.01,cs),
(106,580.46,o),
(157.43,515.29,o),
(237.36,490.47,c),
(236.48,483.17,o),
(235.69,475.68,o),
(235.,468.,cs),
(214.,234.,o),
(184.,128.,o),
(88.,47.,cs),
(78.,39.,o),
(75.,29.,o),
(75.,21.,cs),
(75.,9.,o),
(84.,-1.,o),
(100.,-1.,cs),
(106.,-1.,o),
(113.,0.,o),
(120.,3.,c),
(166.,21.,o),
(202.,32.,o),
(247.,32.,cs),
(321.,32.,o),
(405.,-4.,o),
(452.,-4.,cs),
(511.,-4.,o),
(555.,47.,o),
(615.,196.,cs),
(617.5,202.17,o),
(618.58,207.67,o),
(618.58,212.4,cs),
(618.58,224.81,o),
(611.13,231.93,o),
(602.24,231.93,cs),
(594.18,231.93,o),
(584.94,226.08,o),
(579,213,cs)
);
},
{
closed = 1;
nodes = (
(413.,659,o),
(431.,641,o),
(431.,614,cs),
(431.,566,o),
(387.,522,o),
(307.,522,cs),
(301.66,522,o),
(296.39,522.19,o),
(291.2,522.56,c),
(308.25,613.52,o),
(340.83,659,o),
(386.,659,cs)
);
}
);
width = 564;
}
);
leftKerningGroup = L;
rightKerningGroup = A;
unicode = 76;
},
{
glyphname = M;
layers = (
{
hints = (
{
horizontal = 1;
place = (0,43);
type = Stem;
},
{
horizontal = 1;
place = (396,-20);
target = down;
type = TopGhost;
},
{
horizontal = 1;
place = (577,43);
type = Stem;
},
{
horizontal = 1;
place = (662,43);
type = Stem;
},
{
horizontal = 1;
place = (679,43);
type = Stem;
},
{
place = (222,48);
type = Stem;
},
{
place = (243,45);
type = Stem;
},
{
place = (632,48);
type = Stem;
},
{
place = (969,32);
type = Stem;
}
);
layerId = "DBA80DC6-7182-4C80-9763-30666CA5316C";
shapes = (
{
closed = 1;
nodes = (
(1168,213,l),
(1133,129,o),
(1091,43,o),
(1044,43,cs),
(1019,43,o),
(1001,62,o),
(1001,115,cs),
(1001,164,o),
(1017,437,o),
(1017,481,cs),
(1017,572,o),
(973,620,o),
(896,620,cs),
(816.22,620,o),
(736.97,550.35,o),
(679.43,413.8,c),
(680.11,431.72,o),
(680.47,449.72,o),
(680.47,467.74,cs),
(680.47,479.49,o),
(680.32,491.25,o),
(680,503.01,cs),
(676,652.01,o),
(623,705.01,o),
(539,705.01,cs),
(433.63,705.01,o),
(348.97,605.7,o),
(287.88,396.15,c),
(284.05,615.51,o),
(237.87,722,o),
(135.,722,cs),
(78.,722,o),
(41.,683,o),
(25.,652,cs),
(22.,646,o),
(20.,640,o),
(20.,633,cs),
(20.,622,o),
(28.,614,o),
(40.,614,cs),
(47.,614,o),
(55.,618,o),
(61.,627,cs),
(85.,663,o),
(105.,679,o),
(135.,679,cs),
(209.,679,o),
(243.,572,o),
(243.,299,cs),
(243.,206,o),
(225.,90,o),
(222.,35,cs),
(221.,15,o),
(233.,5,o),
(245.,5,cs),
(257.,5,o),
(269.,14,o),
(270.,32,cs),
(272.73,77.08,o),
(281.53,151.08,o),
(289.06,219.27,c),
(328.16,482.41,o),
(426.13,662,o),
(538.99,662,cs),
(592.99,662,o),
(631.99,623,o),
(631.99,507,cs),
(631.99,296,o),
(608.99,181,o),
(595.99,117,cs),
(593.99,107,o),
(591.99,97,o),
(591.99,90,cs),
(591.99,74,o),
(601.99,65,o),
(615.99,65,cs),
(625.99,65,o),
(635.99,71,o),
(638.99,87,cs),
(647.66,132.98,o),
(656.19,182.51,o),
(663.24,234.25,c),
(702.03,426.29,o),
(796.08,577.01,o),
(896.,577.01,cs),
(941.,577.01,o),
(969.,548.01,o),
(969.,483.01,cs),
(969.,400.01,o),
(953.,177.01,o),
(953.,116.01,cs),
(953.,36.01,o),
(989.,0.01,o),
(1042.,0.01,cs),
(1112.,0.01,o),
(1161.,89.01,o),
(1204.,196.01,cs),
(1206.55,202.3,o),
(1207.66,208.04,o),
(1207.66,213.04,cs),
(1207.66,226.03,o),
(1200.23,234.11,o),
(1191.27,234.11,cs),
(1183.35,234.11,o),
(1174.24,227.8,o),
(1168.01,213,c)
);
}
);
width = 1153;
}
);
leftKerningGroup = M;
rightKerningGroup = A;
unicode = 77;
},
{
glyphname = N;
layers = (
{
anchors = (
{
name = t.uni0302_2;
position = "{527, 700}";
},
{
name = b.uni0326_1_2;
position = "{453, 0}";
}
);
hints = (
{
horizontal = 1;
place = (0,43);
type = Stem;
},
{
horizontal = 1;
place = (404,-20);
target = down;
type = TopGhost;
},
{
horizontal = 1;
place = (661,43);
type = Stem;
},
{
horizontal = 1;
place = (676,43);
type = Stem;
},
{
place = (248,47);
type = Stem;
},
{
place = (622,48);
type = Stem;
},
{
place = (636,48);
type = Stem;
}
);
layerId = "DBA80DC6-7182-4C80-9763-30666CA5316C";
shapes = (
{
closed = 1;
nodes = (
(809,136,o),
(761,43,o),
(716,43,cs),
(692,43,o),
(670,66,o),
(670,126,cs),
(670,201,o),
(684,420,o),
(684,505,cs),
(684,640,o),
(621,704,o),
(539,704,cs),
(436.48,704,o),
(349.04,590.06,o),
(295.09,403.59,c),
(293.28,640.67,o),
(226.77,719.01,o),
(134.99,719.01,cs),
(77.99,719.01,o),
(40.99,680.01,o),
(24.99,649.01,cs),
(21.99,643.01,o),
(19.99,637.01,o),
(19.99,631.01,cs),
(19.99,619.01,o),
(29.99,611.01,o),
(40.99,611.01,cs),
(47.99,611.01,o),
(54.99,615.01,o),
(60.99,624.01,cs),
(84.99,660.01,o),
(107.99,676.01,o),
(137.99,676.01,cs),
(213.99,676.01,o),
(247.99,575.01,o),
(247.99,352.01,cs),
(247.99,223.01,o),
(226.99,53.01,o),
(226.99,26.01,cs),
(226.99,7.01,o),
(238.99,-1.99,o),
(250.99,-1.99,cs),
(261.99,-1.99,o),
(272.99,7.01,o),
(274.99,24.01,cs),
(276.99,41.01,o),
(286.99,132.01,o),
(292.99,191.01,cs),
(317.99,441.01,o),
(420.99,661.01,o),
(538.99,661.01,cs),
(592.99,661.01,o),
(635.99,618.01,o),
(635.99,500.01,cs),
(635.99,432.01,o),
(621.99,188.01,o),
(621.99,130.01,cs),
(621.99,40.01,o),
(661.99,0.01,o),
(712.99,0.01,cs),
(786.99,0.01,o),
(830.99,90.01,o),
(875.99,196.01,cs),
(878.49,201.84,o),
(879.57,207.26,o),
(879.57,212.06,cs),
(879.57,225.07,o),
(871.61,233.56,o),
(862.33,233.56,cs),
(854.49,233.56,o),
(845.71,227.5,o),
(840,213,cs)
);
}
);
width = 825;
}
);
leftKerningGroup = M;
rightKerningGroup = A;
unicode = 78;
},
{
glyphname = O;
layers = (
{
anchors = (
{
name = t.uni0302_2;
position = "{454, 700}";
}
);
hints = (
{
horizontal = 1;
place = (-4,43);
type = Stem;
},
{
horizontal = 1;
place = (68,43);
type = Stem;
},
{
horizontal = 1;
place = (664,43);
type = Stem;
},
{
place = (110,48);
type = Stem;
},
{
place = (259,48);
type = Stem;
},
{
place = (591,48);
type = Stem;
}
);
layerId = "DBA80DC6-7182-4C80-9763-30666CA5316C";
shapes = (
{
closed = 1;
nodes = (
(680.2,147.92,o),
(621.34,113.98,o),
(557.6,111.19,c),
(612.5,192.96,o),
(638.99,306.66,o),
(638.99,413,cs),
(638.99,568,o),
(578.99,707,o),
(451.99,707,cs),
(411.76,707,o),
(377.07,691.67,o),
(348.65,665.74,c),
(346.04,672.56,o),
(339.68,677.01,o),
(329.99,677.01,cs),
(323.99,677.01,o),
(316.99,676.01,o),
(308.99,672.01,cs),
(181.99,609.01,o),
(109.99,459.01,o),
(109.99,312.01,cs),
(109.99,139.01,o),
(198.99,-3.99,o),
(356.99,-3.99,cs),
(425.45,-3.99,o),
(480.94,24.11,o),
(524.01,69.15,c),
(532.5,68.39,o),
(541.16,68.,o),
(549.98,68.,cs),
(632.98,68.,o),
(708.98,109.,o),
(742.98,196.,cs),
(745.58,202.58,o),
(746.71,208.62,o),
(746.71,213.9,cs),
(746.71,227.22,o),
(739.53,235.68,o),
(730.69,235.68,cs),
(722.81,235.68,o),
(713.61,228.97,o),
(707,213,cs)
);
},
{
closed = 1;
nodes = (
(449.99,664.,l),
(545.99,664.,o),
(590.99,550.,o),
(590.99,413.,cs),
(590.99,308.66,o),
(562.4,190.6,o),
(504.52,115.53,c),
(381.01,141.46,o),
(306.99,274.98,o),
(306.99,422.98,cs),
(306.99,547.98,o),
(359.99,663.98,o),
(449.99,663.98,c)
);
},
{
closed = 1;
nodes = (
(362.99,38.98,l),
(226.99,38.98,o),
(157.99,169.98,o),
(157.99,311.98,cs),
(157.99,437.84,o),
(209.93,559.22,o),
(311.27,620.19,c),
(277.29,565.95,o),
(258.99,492.12,o),
(258.99,415.97,cs),
(258.99,256.85,o),
(338.38,118.99,o),
(470.3,79.38,c),
(440.22,54.04,o),
(404.47,38.97,o),
(362.98,38.97,c)
);
}
);
width = 692;
}
);
leftKerningGroup = O;
rightKerningGroup = A;
unicode = 79;
},
{
glyphname = P;
layers = (
{
hints = (
{
horizontal = 1;
place = (-1,21);
target = up;
type = BottomGhost;
},
{
horizontal = 1;
place = (212,43);
type = Stem;
},
{
horizontal = 1;
place = (664,43);
type = Stem;
},
{
place = (35,48);
type = Stem;
},
{
place = (159,47);
type = Stem;
},
{
place = (204,47);
type = Stem;
},
{
place = (527,48);
type = Stem;
}
);
layerId = "DBA80DC6-7182-4C80-9763-30666CA5316C";
shapes = (
{
closed = 1;
nodes = (
(317,707,l),
(134,707,o),
(35,602,o),
(35,465,cs),
(35,445,o),
(47,437,o),
(59,437,cs),
(71,437,o),
(83,447,o),
(83,465,cs),
(83,580,o),
(167,664,o),
(317,664,cs),
(462,664,o),
(527,566,o),
(527,466,cs),
(527,361,o),
(457,255,o),
(330,255,cs),
(298.41,255,o),
(268.28,259.37,o),
(236.5,269.37,c),
(244.55,332.21,o),
(251,394.21,o),
(251,442.01,cs),
(251,489.01,o),
(248,591.01,o),
(210,591.01,cs),
(197,591.01,o),
(188,582.01,o),
(188,565.01,cs),
(188,546.01,o),
(204,526.01,o),
(204,442.01,cs),
(204,318.01,o),
(159,69.01,o),
(159,29.01,cs),
(159,9.01,o),
(171,-0.99,o),
(183,-0.99,cs),
(194,-0.99,o),
(205,9.01,o),
(206,27.01,cs),
(208.53,72.13,o),
(220.06,147.57,o),
(230.81,226.5,c),
(256.6,219.15,o),
(290.75,212.02,o),
(329.99,212.02,cs),
(488.99,212.02,o),
(574.99,339.02,o),
(574.99,465.02,cs),
(574.99,587.02,o),
(492.99,707.02,o),
(316.99,707.02,c)
);
}
);
width = 598;
}
);
leftKerningGroup = P2;
rightKerningGroup = P;
unicode = 80;
},
{
glyphname = Q;
layers = (
{
hints = (
{
horizontal = 1;
place = (-3,43);
type = Stem;
},
{
horizontal = 1;
place = (-2,43);
type = Stem;
},
{
horizontal = 1;
place = (143,41);
type = Stem;
},
{
horizontal = 1;
place = (658,43);
type = Stem;
},
{
place = (120,48);
type = Stem;
},
{
place = (174,47);
type = Stem;
},
{
place = (559,48);
type = Stem;
}
);
layerId = "DBA80DC6-7182-4C80-9763-30666CA5316C";
shapes = (
{
closed = 1;
nodes = (
(668,213,l),
(648,166,o),
(594,40,o),
(550,40,cs),
(528.67,40,o),
(503.42,60.16,o),
(473.73,85.4,c),
(549.81,161.37,o),
(607,281.32,o),
(607,423.01,cs),
(607,593.01,o),
(522,701.01,o),
(383,701.01,cs),
(228,701.01,o),
(120,571.01,o),
(120,384.01,cs),
(120,334.01,o),
(129,286.01,o),
(140,253.01,cs),
(144,241.01,o),
(153,235.01,o),
(164,235.01,cs),
(175,235.01,o),
(185,245.01,o),
(185,259.01,cs),
(185,275.01,o),
(168,315.01,o),
(168,385.01,cs),
(168,549.01,o),
(261,658.01,o),
(382,658.01,cs),
(489,658.01,o),
(559,569.01,o),
(559,431.01,cs),
(559,292.04,o),
(506.27,180.78,o),
(439.68,114.12,c),
(396.47,149.4,o),
(345.3,184.01,o),
(285,184.01,cs),
(213,184.01,o),
(174,138.01,o),
(174,92.01,cs),
(174,45.01,o),
(211,-1.99,o),
(292,-1.99,cs),
(341.26,-1.99,o),
(393.67,19.07,o),
(441.32,56.59,c),
(478.32,24.96,o),
(513.36,-2.98,o),
(549.99,-2.98,cs),
(624.99,-2.98,o),
(682.99,147.02,o),
(703.99,196.02,cs),
(706.54,202.14,o),
(707.65,207.77,o),
(707.65,212.71,cs),
(707.65,225.63,o),
(700.08,233.85,o),
(691.01,233.85,cs),
(683.15,233.85,o),
(674.15,227.67,o),
(667.98,213.02,c)
);
},
{
closed = 1;
nodes = (
(220.98,119.02,o),
(241.98,143.02,o),
(284.98,143.02,cs),
(329.19,143.02,o),
(369.86,116.48,o),
(406.99,85.86,c),
(368.61,56.5,o),
(328.15,41.02,o),
(291.99,41.02,cs),
(243.99,41.02,o),
(220.99,68.02,o),
(220.98,94.02,c)
);
}
);
width = 653;
}
);
leftKerningGroup = Q;
rightKerningGroup = A;
unicode = 81;
},
{
glyphname = R;
layers = (
{
anchors = (
{
name = t.uni0302_2;
position = "{345, 700}";
},
{
name = b.uni0326_1_2;
position = "{334, 0}";
}
);
hints = (
{
horizontal = 1;
place = (-6,43);
type = Stem;
},
{
horizontal = 1;
place = (-3,21);
target = up;
type = BottomGhost;
},
{
horizontal = 1;
place = (299,43);
type = Stem;
},
{
horizontal = 1;
place = (310,46);
type = Stem;
},
{
horizontal = 1;
place = (661,43);
type = Stem;
},
{
place = (56,48);
type = Stem;
},
{
place = (168,48);
type = Stem;
},
{
place = (212,48);
type = Stem;
},
{
place = (509,48);
type = Stem;
}
);
layerId = "DBA80DC6-7182-4C80-9763-30666CA5316C";
shapes = (
{
closed = 1;
nodes = (
(665,213,l),
(627,122,o),
(589,37,o),
(554,37,cs),
(530,37,o),
(501,76,o),
(453,173,cs),
(430.22,219.38,o),
(407.44,273.05,o),
(384.66,303.83,c),
(492.4,324.37,o),
(557.01,407.93,o),
(557.01,505.01,cs),
(557.01,617.01,o),
(470.01,704.01,o),
(329.01,704.01,cs),
(160.01,704.01,o),
(56.01,600.01,o),
(56.01,472.01,cs),
(56.01,449.01,o),
(68.01,440.01,o),
(80.01,440.01,cs),
(92.01,440.01,o),
(104.01,449.01,o),
(104.01,472.01,cs),
(104.01,577.01,o),
(189.01,661.01,o),
(329.01,661.01,cs),
(444.01,661.01,o),
(509.01,596.01,o),
(509.01,503.01,cs),
(509.01,413.01,o),
(448.01,342.01,o),
(327.01,342.01,cs),
(300.49,342.01,o),
(276.48,344.2,o),
(256.21,346.85,c),
(258.55,371.16,o),
(260.01,396.77,o),
(260.01,424.01,cs),
(260.01,510.01,o),
(247.01,566.01,o),
(220.01,566.01,cs),
(208.01,566.01,o),
(199.01,557.01,o),
(199.01,542.01,cs),
(199.01,528.01,o),
(212.01,498.01,o),
(212.01,424.01,cs),
(212.01,399.44,o),
(210.82,376.26,o),
(208.88,354.28,c),
(202.33,355.33,o),
(197.3,356,o),
(194.01,356,cs),
(179.01,356,o),
(171.01,345,o),
(171.01,334,cs),
(171.01,324,o),
(177.01,314,o),
(191.01,312,cs),
(195.04,311.46,o),
(199.35,310.88,o),
(203.89,310.28,c),
(199.77,280.04,o),
(194.67,252.15,o),
(190,226.01,cs),
(174,137.01,o),
(168,89.01,o),
(168,25.01,cs),
(168,7.01,o),
(180,-2.99,o),
(192,-2.99,cs),
(204,-2.99,o),
(216,7.01,o),
(216,30.01,cs),
(216,83.01,o),
(224,139.01,o),
(232,189.01,cs),
(237.85,225.16,o),
(245.39,263.01,o),
(251.17,304.5,c),
(278.88,301.46,o),
(308.2,299.01,o),
(332.,299.01,cs),
(333.07,299.01,l),
(357.1,267.96,o),
(384.18,206.48,o),
(405.,162.01,cs),
(460.,45.01,o),
(501.,-5.99,o),
(554.,-5.99,cs),
(618.,-5.99,o),
(655.,88.01,o),
(701.,196.01,cs),
(703.55,201.96,o),
(704.66,207.47,o),
(704.66,212.34,cs),
(704.66,225.2,o),
(696.96,233.57,o),
(687.79,233.57,cs),
(679.99,233.57,o),
(671.12,227.51,o),
(665.02,213.01,c)
);
}
);
width = 650;
}
);
leftKerningGroup = R;
rightKerningGroup = A;
unicode = 82;
},
{
glyphname = S;
layers = (
{
anchors = (
{
name = t.uni0302_2;
position = "{317, 700}";
},
{
name = b.uni0326_1_2;
position = "{292, -5}";
}
);
hints = (
{
horizontal = 1;
place = (-2,43);
type = Stem;
},
{
horizontal = 1;
place = (661,43);
type = Stem;
},
{
place = (79,48);
type = Stem;
},
{
place = (154,48);
type = Stem;
},
{
place = (399,45);
type = Stem;
},
{
place = (434,48);
type = Stem;
}
);
layerId = "DBA80DC6-7182-4C80-9763-30666CA5316C";
shapes = (
{
closed = 1;
nodes = (
(401,-2,o),
(482,79,o),
(482,178,cs),
(482,283,o),
(404,340,o),
(332,398,cs),
(268,449,o),
(202,498,o),
(202,564,cs),
(202,621,o),
(244,661,o),
(304,661,cs),
(364,661,o),
(399,626,o),
(399,581,cs),
(399,567,o),
(397,556,o),
(397,548,cs),
(397,537,o),
(405,529,o),
(418,529,cs),
(433,529,o),
(444,547,o),
(444,580,cs),
(444,651,o),
(391,704,o),
(306,704,cs),
(214,704,o),
(154,642,o),
(154,564,cs),
(154,479,o),
(226,419,o),
(301,361,cs),
(364,312,o),
(434,260,o),
(434,178,cs),
(434,103,o),
(372,41,o),
(277,41,cs),
(183,41,o),
(127,97,o),
(127,173,cs),
(127,218,o),
(145,245,o),
(145,267,cs),
(145,280,o),
(137,289,o),
(124,289,cs),
(112,289,o),
(103,280,o),
(97,265,cs),
(84,232,o),
(79,201,o),
(79,174,cs),
(79,70,o),
(153,-2,o),
(277,-2,cs)
);
}
);
width = 532;
}
);
leftKerningGroup = S2;
rightKerningGroup = S;
unicode = 83;
},
{
glyphname = T;
layers = (
{
anchors = (
{
name = t.uni0302_2;
position = "{406, 695}";
},
{
name = b.uni0326_1_2;
position = "{257, 0}";
}
);
hints = (
{
horizontal = 1;
place = (-4,43);
type = Stem;
},
{
horizontal = 1;
place = (612,43);
type = Stem;
},
{
horizontal = 1;
place = (654,43);
type = Stem;
},
{
place = (96,48);
type = Stem;
},
{
place = (367,47);
type = Stem;
}
);
layerId = "DBA80DC6-7182-4C80-9763-30666CA5316C";
shapes = (
{
closed = 1;
nodes = (
(652,728,l),
(623,728,o),
(639,655,o),
(537,655,cs),
(457,655,o),
(332,697,o),
(245,697,cs),
(142,697,o),
(96,645,o),
(96,572,cs),
(96,515,o),
(133,477,o),
(175,453,cs),
(182,449,o),
(188,448,o),
(194,448,cs),
(207,448,o),
(215,456,o),
(215,465,cs),
(215,472,o),
(210,481,o),
(199,488,cs),
(169,507,o),
(144,527,o),
(144,573,cs),
(144,622,o),
(176,654,o),
(245,654,cs),
(272.07,654,o),
(317.65,645.73,o),
(366.88,636.53,c),
(358.92,512.9,o),
(347.73,337.79,o),
(342.01,271,cs),
(328.2,111.19,o),
(295.9,38.96,o),
(233.59,38.96,cs),
(198.55,38.96,o),
(169.84,60.87,o),
(139.02,103.,cs),
(133.02,111.,o),
(126.02,115.,o),
(118.02,115.,cs),
(108.02,115.,o),
(98.02,107.,o),
(98.02,94.,cs),
(98.02,88.,o),
(100.02,81.,o),
(105.02,73.,cs),
(132.02,29.,o),
(181.02,-4.,o),
(231.02,-4.,cs),
(329.02,-4.,o),
(376.02,82.,o),
(390.02,267.,cs),
(394.79,331.94,o),
(403.21,457.99,o),
(414.41,627.72,c),
(461.27,619.25,o),
(507.2,612.,o),
(540.02,612.,cs),
(623.02,612.,o),
(670.02,659.,o),
(670.02,707.,cs),
(670.02,720.,o),
(662.02,728.,o),
(652.02,728.,c)
);
}
);
width = 525;
}
);
leftKerningGroup = T2;
rightKerningGroup = T;
unicode = 84;
},
{
glyphname = U;
layers = (
{
anchors = (
{
name = t.uni0302_2;
position = "{426, 700}";
}
);
hints = (
{
horizontal = 1;
place = (-3,43);
type = Stem;
},
{
horizontal = 1;
place = (662,43);
type = Stem;
},
{
place = (164,48);
type = Stem;
},
{
place = (228,48);
type = Stem;
},
{
place = (531,48);
type = Stem;
},
{
place = (559,49);
type = Stem;
}
);
layerId = "DBA80DC6-7182-4C80-9763-30666CA5316C";
shapes = (
{
closed = 1;
nodes = (
(741,213,l),
(706,130,o),
(666,40,o),
(633,40,cs),
(605,40,o),
(579,87,o),
(579,212,cs),
(579,364,o),
(589,442,o),
(602,538,cs),
(605,560,o),
(608,582,o),
(608,588,cs),
(608,605,o),
(597,614,o),
(585,614,cs),
(574,614,o),
(561,604,o),
(559,583,cs),
(558.51,577.09,o),
(557.84,570.28,o),
(557.06,562.99,c),
(557.06,562.99,l),
(506.06,254.99,o),
(396.06,39.99,o),
(285.06,39.99,cs),
(242.06,39.99,o),
(212.06,69.99,o),
(212.06,128.99,cs),
(212.06,220.99,o),
(276.06,522.99,o),
(276.06,597.99,cs),
(276.06,668.99,o),
(237.06,704.99,o),
(190.06,704.99,cs),
(147.06,704.99,o),
(97.06,677.99,o),
(66.06,623.99,cs),
(62.06,616.99,o),
(60.06,610.99,o),
(60.06,605.99,cs),
(60.06,593.99,o),
(69.06,585.99,o),
(80.06,585.99,cs),
(88.06,585.99,o),
(96.06,589.99,o),
(102.06,599.99,cs),
(126.06,638.99,o),
(160.06,661.99,o),
(185.06,661.99,cs),
(210.06,661.99,o),
(228.06,640.99,o),
(228.06,599.99,cs),
(228.06,536.99,o),
(164.06,217.99,o),
(164.06,129.99,cs),
(164.06,43.99,o),
(211.06,-3.01,o),
(284.06,-3.01,cs),
(388.97,-3.01,o),
(473.6,118.62,o),
(532.93,295.82,c),
(531.68,266.91,o),
(531.06,237.94,o),
(531.06,206.99,cs),
(531.06,55.99,o),
(575.06,-3.01,o),
(632.06,-3.01,cs),
(695.06,-3.01,o),
(734.06,91.99,o),
(777.06,195.99,cs),
(779.76,202.57,o),
(780.92,208.35,o),
(780.92,213.26,cs),
(780.92,225.67,o),
(773.49,232.5,o),
(764.68,232.5,cs),
(756.32,232.5,o),
(746.72,226.35,o),
(741.05,212.99,c)
);
}
);
width = 726;
}
);
leftKerningGroup = U;
rightKerningGroup = A;
unicode = 85;
},
{
glyphname = V;
layers = (
{
hints = (
{
horizontal = 1;
place = (-6,21);
target = up;
type = BottomGhost;
},
{
horizontal = 1;
place = (673,43);
type = Stem;
},
{
horizontal = 1;
place = (707,-20);
target = down;
type = TopGhost;
},
{
place = (6,656);
type = Stem;
}
);
layerId = "DBA80DC6-7182-4C80-9763-30666CA5316C";
shapes = (
{
closed = 1;
nodes = (
(641,707,l),
(633,707,o),
(624,703,o),
(614,694,cs),
(488.06,581.22,o),
(376.25,344.77,o),
(313.44,90.92,c),
(292.2,228.18,o),
(275.51,359.01,o),
(253.99,567,cs),
(243.99,664,o),
(200.99,716,o),
(127.99,716,cs),
(67.99,716,o),
(26.99,677,o),
(8.99,632,cs),
(6.99,627,o),
(5.99,622,o),
(5.99,618,cs),
(5.99,605,o),
(16.99,597,o),
(27.99,597,cs),
(38.99,597,o),
(43.99,603,o),
(48.99,614,cs),
(66.99,654,o),
(93.99,673,o),
(124.99,673,cs),
(170.99,673,o),
(196.99,635,o),
(205.99,563,cs),
(224.99,411,o),
(239.99,205,o),
(275.99,24,cs),
(279.99,4,o),
(292.99,-6,o),
(306.99,-6,cs),
(320.99,-6,o),
(333.99,4,o),
(339.99,25,cs),
(412.99,279,o),
(494.99,522,o),
(646.99,659,cs),
(656.99,668,o),
(661.99,678,o),
(661.99,686,cs),
(661.99,698,o),
(652.99,707,o),
(640.99,707,c)
);
}
);
width = 512;
}
);
unicode = 86;
},
{
glyphname = W;
layers = (
{
anchors = (
{
name = t.uni0302_2;
position = "{577, 700}";
}
);
hints = (
{
horizontal = 1;
place = (-3,43);
type = Stem;
},
{
horizontal = 1;
place = (1,43);
type = Stem;
},
{
horizontal = 1;
place = (670,43);
type = Stem;
},
{
horizontal = 1;
place = (700,-20);
target = down;
type = TopGhost;
},
{
place = (178,48);
type = Stem;
},
{
place = (221,48);
type = Stem;
},
{
place = (529,45);
type = Stem;
},
{
place = (872,48);
type = Stem;
}
);
layerId = "DBA80DC6-7182-4C80-9763-30666CA5316C";
shapes = (
{
closed = 1;
nodes = (
(872,679,l),
(865,694,o),
(854,700,o),
(845,700,cs),
(833,700,o),
(824,691,o),
(824,677,cs),
(824,671,o),
(826,665,o),
(829,658,c),
(856,602,o),
(872,517,o),
(872,428,cs),
(872,245,o),
(815,44,o),
(698,44,cs),
(620,44,o),
(574,136,o),
(574,318,cs),
(574,402,o),
(586,477,o),
(591,508,cs),
(593,519,o),
(594,524,o),
(594,530,cs),
(594,546,o),
(584,555,o),
(572,555,cs),
(560,555,o),
(548,547,o),
(545,529,cs),
(544.32,525.34,o),
(543.66,521.68,o),
(543.02,518,c),
(543.02,518,l),
(491.02,223,o),
(409.02,40,o),
(309.02,40,cs),
(256.02,40,o),
(226.02,72,o),
(226.02,155,cs),
(226.02,248,o),
(269.02,540,o),
(269.02,609,cs),
(269.02,675,o),
(228.02,713,o),
(169.02,713,cs),
(113.02,713,o),
(77.02,678,o),
(55.02,645,cs),
(51.02,639,o),
(49.02,633,o),
(49.02,627,cs),
(49.02,615,o),
(58.02,606,o),
(69.02,606,cs),
(77.02,606,o),
(85.02,610,o),
(92.02,620,cs),
(117.02,656,o),
(140.02,670,o),
(169.02,670,cs),
(201.02,670,o),
(221.02,647,o),
(221.02,612,cs),
(221.02,551,o),
(178.02,247,o),
(178.02,148,cs),
(178.02,48,o),
(229.02,-3,o),
(301.02,-3,cs),
(401.83,-3,o),
(474.07,90.95,o),
(529.14,286.19,c),
(532.52,73.64,o),
(609.06,1,o),
(698.02,1,cs),
(844.02,1,o),
(920.02,221,o),
(920.02,427,cs),
(920.02,522,o),
(904.02,613,o),
(872.02,679,c)
);
}
);
width = 946;
}
);
leftKerningGroup = W2;
rightKerningGroup = W;
unicode = 87;
},
{
glyphname = X;
layers = (
{
hints = (
{
horizontal = 1;
place = (-4,43);
type = Stem;
},
{
horizontal = 1;
place = (696,-20);
target = down;
type = TopGhost;
},
{
horizontal = 1;
place = (709,-20);
target = down;
type = TopGhost;
},
{
place = (25,570);
type = Stem;
}
);
layerId = "DBA80DC6-7182-4C80-9763-30666CA5316C";
shapes = (
{
closed = 1;
nodes = (
(573,696,l),
(567,696,o),
(560,694,o),
(553,688,cs),
(454.49,603.44,o),
(393.22,483.15,o),
(338.05,361.6,c),
(301.05,463.31,o),
(277.61,572.79,o),
(269,683.01,cs),
(268,700.01,o),
(256,709.01,o),
(245,709.01,cs),
(233,709.01,o),
(221,701.01,o),
(221,684.01,cs),
(221,682.01,o),
(221,680.01,o),
(222,668.01,cs),
(232.4,543.25,o),
(261.91,417.02,o),
(310.42,300.,c),
(245.,153.79,o),
(189.84,39.,o),
(126.,39.,cs),
(103.,39.,o),
(85.,50.,o),
(68.,65.,c),
(59.,74.,o),
(52.,77.,o),
(45.,77.,cs),
(33.,77.,o),
(25.,68.,o),
(25.,56.,cs),
(25.,49.,o),
(28.,42.,o),
(34.,34.,c),
(57.,9.,o),
(89.,-4.,o),
(126.,-4.,cs),
(221.88,-4.,o),
(276.81,110.82,o),
(336.12,242.61,c),
(382.93,145.52,o),
(443.58,56.43,o),
(518.,-17.99,cs),
(525.,-24.99,o),
(532.,-27.99,o),
(539.,-27.99,cs),
(552.,-27.99,o),
(562.,-16.99,o),
(562.,-4.99,cs),
(562.,2.01,o),
(559.,9.01,o),
(553.,15.01,cs),
(473.96,92.13,o),
(409.78,190.62,o),
(362.26,300.62,c),
(423.38,435.55,o),
(482.85,566.43,o),
(582.01,651.01,c),
(591.01,658.01,o),
(595.01,666.01,o),
(595.01,674.01,cs),
(595.01,686.01,o),
(585.01,696.01,o),
(573.01,696.01,c)
);
}
);
width = 557;
}
);
unicode = 88;
},
{
glyphname = Y;
layers = (
{
anchors = (
{
name = t.uni0302_2;
position = "{413, 700}";
}
);
hints = (
{
horizontal = 1;
place = (-1,43);
type = Stem;
},
{
horizontal = 1;
place = (249,43);
type = Stem;
},
{
horizontal = 1;
place = (659,43);
type = Stem;
},
{
place = (221,48);
type = Stem;
},
{
place = (237,48);
type = Stem;
},
{
place = (553,45);
type = Stem;
}
);
layerId = "DBA80DC6-7182-4C80-9763-30666CA5316C";
shapes = (
{
closed = 1;
nodes = (
(597,692,o),
(586,700,o),
(574,700,cs),
(562,700,o),
(550,690,o),
(550,672,cs),
(550,663,o),
(553,617,o),
(553,572,cs),
(553,569.94,l),
(547.98,420.96,o),
(465.98,291.99,o),
(360.99,291.99,cs),
(304.99,291.99,o),
(268.99,327.99,o),
(268.99,393.99,cs),
(268.99,463.99,o),
(284.99,567.99,o),
(284.99,605.99,cs),
(284.99,662.99,o),
(245.99,701.99,o),
(192.99,701.99,cs),
(147.99,701.99,o),
(105.99,674.99,o),
(70.99,633.99,cs),
(64.99,626.99,o),
(62.99,619.99,o),
(62.99,612.99,cs),
(62.99,601.99,o),
(71.99,592.99,o),
(81.99,592.99,cs),
(88.99,592.99,o),
(95.99,595.99,o),
(101.99,602.99,cs),
(136.99,643.99,o),
(161.99,658.99,o),
(187.99,658.99,cs),
(216.99,658.99,o),
(236.99,638.99,o),
(236.99,602.99,cs),
(236.99,572.99,o),
(220.99,458.99,o),
(220.99,394.99,cs),
(220.99,301.99,o),
(273.99,248.99,o),
(356.99,248.99,cs),
(434.34,248.99,o),
(494.97,295.75,o),
(536.29,367.21,c),
(508.15,196.32,o),
(443.47,41.99,o),
(334.99,41.99,cs),
(298.99,41.99,o),
(267.99,58.99,o),
(236.99,94.99,cs),
(229.99,102.99,o),
(222.99,105.99,o),
(215.99,105.99,cs),
(204.99,105.99,o),
(194.99,97.99,o),
(194.99,84.99,cs),
(194.99,77.99,o),
(196.99,70.99,o),
(202.99,62.99,cs),
(230.99,25.99,o),
(278.99,-1.01,o),
(335.99,-1.01,cs),
(516.99,-1.01,o),
(590.99,265.99,o),
(600.99,568.99,cs),
(601.99,598.99,o),
(599.99,640.99,o),
(598,674,cs)
);
}
);
width = 638;
}
);
leftKerningGroup = Y2;
rightKerningGroup = Y;
unicode = 89;
},
{
glyphname = Z;
layers = (
{
anchors = (
{
name = t.uni0302_2;
position = "{355, 700}";
}
);
hints = (
{
horizontal = 1;
place = (-4,43);
type = Stem;
},
{
horizontal = 1;
place = (-3,43);
type = Stem;
},
{
horizontal = 1;
place = (108,41);
type = Stem;
},
{
horizontal = 1;
place = (617,43);
type = Stem;
},
{
horizontal = 1;
place = (649,43);
type = Stem;
},
{
place = (37,48);
type = Stem;
},
{
place = (99,47);
type = Stem;
}
);
layerId = "DBA80DC6-7182-4C80-9763-30666CA5316C";
shapes = (
{
closed = 1;
nodes = (
(556,213,l),
(509,99,o),
(463,39,o),
(421,39,cs),
(383.7,39,o),
(335.8,65.5,o),
(285.82,92.48,c),
(296.61,107.41,o),
(307.32,124.22,o),
(318,143.,cs),
(419,320.,o),
(539,615.,o),
(539,665.,cs),
(539,681.,o),
(531,689.,o),
(517,689.,cs),
(495,689.,o),
(466,660.,o),
(416,660.,cs),
(342,660.,o),
(266,692.,o),
(203,692.,cs),
(140,692.,o),
(99,650.,o),
(99,586.,cs),
(99,538.,o),
(121,507.,o),
(143,507.,cs),
(154,507.,o),
(161,514.,o),
(161,524.,cs),
(161,536.,o),
(146,554.,o),
(146,586.,cs),
(146,625.,o),
(167,649.,o),
(203,649.,cs),
(265,649.,o),
(336,617.,o),
(411,617.,cs),
(435,617.,o),
(458,620.,o),
(482,628.,c),
(429.53,478.36,o),
(316.64,214.48,o),
(242.4,115.25,c),
(204.54,134.09,o),
(166.88,149.,o),
(133.01,149.,cs),
(70.01,149.,o),
(37.01,110.,o),
(37.01,72.,cs),
(37.01,34.,o),
(69.01,-3.,o),
(133.01,-3.,cs),
(177.73,-3.,o),
(218.55,16.03,o),
(257.76,58.06,c),
(312.7,27.71,o),
(371.02,-4.,o),
(417.01,-4.,cs),
(483.01,-4.,o),
(528.01,45.,o),
(592.01,196.,cs),
(594.71,202.41,o),
(595.87,208.11,o),
(595.87,212.99,cs),
(595.87,225.5,o),
(588.24,232.64,o),
(579.28,232.64,cs),
(571.01,232.64,o),
(561.6,226.56,o),
(556.01,213.,c)
);
},
{
closed = 1;
nodes = (
(132.01,40.,l),
(101.01,40.,o),
(85.01,56.,o),
(85.01,73.,cs),
(85.01,90.,o),
(101.01,108.,o),
(132.01,108.,cs),
(154.12,108.,o),
(182.49,97.05,o),
(213.66,81.37,c),
(185.85,52.43,o),
(159.31,40.01,o),
(132.,40.01,c)
);
}
);
width = 541;
}
);
leftKerningGroup = Z;
rightKerningGroup = A;
unicode = 90;
},
{
glyphname = bracketleft;
layers = (
{
hints = (
{
horizontal = 1;
place = (-7,42);
type = Stem;
},
{
horizontal = 1;
place = (616,41);
type = Stem;
},
{
place = (80,46);
type = Stem;
}
);
layerId = "DBA80DC6-7182-4C80-9763-30666CA5316C";
shapes = (
{
closed = 1;
nodes = (
(224,-3,l),
(240.86,-0.66,o),
(248.73,9.14,o),
(248.73,18.49,cs),
(248.73,29.1,o),
(238.6,39.12,o),
(220.,36.99,cs),
(202.05,35.32,o),
(185.67,34.52,o),
(172.31,34.52,cs),
(153.67,34.52,o),
(140.91,36.08,o),
(138.,38.99,cs),
(131.,45.99,o),
(126.,166.99,o),
(126.,331.99,cs),
(126.,485.99,o),
(136.,600.99,o),
(145.,608.99,c),
(151.,613.99,o),
(186.,614.99,o),
(223.,615.99,cs),
(240.81,616.51,o),
(250.94,627.46,o),
(250.94,637.91,cs),
(250.94,647.41,o),
(242.57,656.5,o),
(224.,656.98,cs),
(178.,657.98,o),
(121.,655.98,o),
(109.,640.98,cs),
(90.,617.98,o),
(80.,483.98,o),
(80.,331.98,cs),
(80.,140.98,o),
(84.,32.98,o),
(100.,11.98,cs),
(109.51,-0.93,o),
(137.03,-6.91,o),
(171.58,-6.91,cs),
(187.87,-6.91,o),
(205.73,-5.58,o),
(224.,-3.02,c)
);
}
);
width = 281;
}
);
unicode = 91;
},
{
glyphname = backslash;
layers = (
{
hints = (
{
horizontal = 1;
place = (-3,21);
target = up;
type = BottomGhost;
},
{
place = (22,307);
type = Stem;
}
);
layerId = "DBA80DC6-7182-4C80-9763-30666CA5316C";
shapes = (
{
closed = 1;
nodes = (
(321.42,-3,o),
(329.36,7.44,o),
(329.36,19.4,cs),
(329.36,24.3,o),
(328.06,29.65,o),
(325,35.,cs),
(253,160.,o),
(151,505.,o),
(63,643.,cs),
(56,654.,o),
(47,658.,o),
(40,658.,cs),
(31,658.,o),
(23,651.,o),
(22,641.,c),
(21,634.,o),
(23,625.,o),
(29,615.,cs),
(120,463.,o),
(202,156.,o),
(288,12.,cs),
(294,2.,o),
(303,-3.,o),
(310,-3,c)
);
}
);
width = 355;
}
);
unicode = 92;
},
{
glyphname = bracketright;
layers = (
{
hints = (
{
horizontal = 1;
place = (-7,42);
type = Stem;
},
{
horizontal = 1;
place = (616,41);
type = Stem;
},
{
place = (155,46);
type = Stem;
}
);
layerId = "DBA80DC6-7182-4C80-9763-30666CA5316C";
shapes = (
{
closed = 1;
nodes = (
(75.27,-5.56,o),
(93.13,-6.89,o),
(109.42,-6.89,cs),
(143.97,-6.89,o),
(171.49,-0.91,o),
(181,12,cs),
(197,33,o),
(201,141,o),
(201,332,cs),
(201,484,o),
(191,618,o),
(172,641,cs),
(160,656,o),
(103,658,o),
(57,657,cs),
(38.43,656.52,o),
(30.06,647.43,o),
(30.06,637.93,cs),
(30.06,627.48,o),
(40.19,616.53,o),
(58,616.01,cs),
(95,615.01,o),
(130,614.01,o),
(136,609.01,c),
(145,601.01,o),
(155,486.01,o),
(155,332.01,cs),
(155,167.01,o),
(150,46.01,o),
(143,39.01,cs),
(140.09,36.1,o),
(127.33,34.54,o),
(108.69,34.54,cs),
(95.33,34.54,o),
(78.95,35.34,o),
(61,37.01,cs),
(42.4,38.6,o),
(32.27,28.61,o),
(32.27,18.15,cs),
(32.27,8.93,o),
(40.14,-0.65,o),
(57,-3,cs)
);
}
);
width = 281;
}
);
unicode = 93;
},
{
glyphname = asciicircum;
layers = (
{
hints = (
{
horizontal = 1;
place = (393,270);
type = Stem;
},
{
place = (30,265);
type = Stem;
}
);
layerId = "DBA80DC6-7182-4C80-9763-30666CA5316C";
shapes = (
{
closed = 1;
nodes = (
(56,393,o),
(64,398,o),
(70,410,cs),
(155,590,ls),
(157,594,o),
(158,598,o),
(162,598,cs),
(166,598,o),
(167,594,o),
(169,590,cs),
(253,413,ls),
(259,401,o),
(268,395,o),
(277,395,cs),
(286,395,o),
(295,402,o),
(295,414,cs),
(295,419,o),
(294,424,o),
(291,429,c),
(187,643,ls),
(181,656,o),
(172,663,o),
(162,663,cs),
(151,663,o),
(142,656,o),
(136,643,cs),
(33,428,l),
(31,423,o),
(30,418,o),
(30,413,cs),
(30,401,o),
(38,393,o),
(48,393,cs)
);
}
);
width = 325;
}
);
unicode = 94;
},
{
glyphname = underscore;
layers = (
{
hints = (
{
horizontal = 1;
place = (-9,40);
type = Stem;
},
{
place = (25,255);
type = Stem;
}
);
layerId = "DBA80DC6-7182-4C80-9763-30666CA5316C";
shapes = (
{
closed = 1;
nodes = (
(271.82,-9.07,o),
(280,0.42,o),
(280,9,cs),
(280,19,o),
(271,29,o),
(253,29,c),
(208.34,30.46,o),
(148.14,31.39,o),
(99.47,31.39,cs),
(81.66,31.39,o),
(65.39,31.27,o),
(51.99,31,c),
(33.99,30,o),
(24.99,20,o),
(24.99,11,cs),
(24.99,1,o),
(33.99,-7,o),
(51.99,-7,c),
(66.19,-6.73,o),
(82.98,-6.61,o),
(101.08,-6.61,cs),
(151.4,-6.61,o),
(211.88,-9.07,o),
(255.46,-9.07,cs)
);
}
);
width = 306;
}
);
leftKerningGroup = slash;
unicode = 95;
},
{
glyphname = grave;
layers = (
{
hints = (
{
horizontal = 1;
place = (765,108);
type = Stem;
},
{
place = (38,104);
type = Stem;
}
);
layerId = "DBA80DC6-7182-4C80-9763-30666CA5316C";
shapes = (
{
closed = 1;
nodes = (
(133,802,l),
(76,862,ls),
(68.71,869.59,o),
(61.16,872.75,o),
(54.75,872.75,cs),
(45.25,872.75,o),
(38.25,865.82,o),
(38.25,856.07,cs),
(38.25,849.84,o),
(41.11,842.46,o),
(48.01,835,cs),
(105.01,775,ls),
(112.09,767.64,o),
(119.33,764.61,o),
(125.52,764.61,cs),
(135.21,764.61,o),
(142.35,772.03,o),
(142.35,781.92,cs),
(142.35,788.05,o),
(139.6,795.14,o),
(133.01,802,c)
);
}
);
width = 182;
}
);
unicode = 96;
},
{
glyphname = a;
layers = (
{
anchors = (
{
name = t.uni0302_2;
position = "{201, 400}";
}
);
hints = (
{
horizontal = 1;
place = (-4,42);
type = Stem;
},
{
horizontal = 1;
place = (-1,42);
type = Stem;
},
{
horizontal = 1;
place = (347,43);
type = Stem;
},
{
horizontal = 1;
place = (393,-20);
target = down;
type = TopGhost;
},
{
place = (8,46);
type = Stem;
},
{
place = (282,38);
type = Stem;
}
);
layerId = "DBA80DC6-7182-4C80-9763-30666CA5316C";
shapes = (
{
closed = 1;
nodes = (
(455,213,l),
(415,116,o),
(378,41,o),
(350,41,cs),
(333,41,o),
(320,58,o),
(320,111,cs),
(320,227,o),
(331,350,o),
(331,367,cs),
(331,384,o),
(322,393,o),
(309,393,cs),
(295,393,o),
(285,382,o),
(283,362,c),
(256,382,o),
(226,390,o),
(194,390,cs),
(95,390,o),
(8,284,o),
(8,149,cs),
(8,59,o),
(58,-4,o),
(131,-4,cs),
(191.34,-4,o),
(243.51,36.12,o),
(275.97,98.43,c),
(282.21,24.98,o),
(310.13,-1,o),
(349,-1,cs),
(405,-1,o),
(445,81,o),
(491,196,cs),
(493.45,202.21,o),
(494.51,207.73,o),
(494.51,212.47,cs),
(494.51,225.11,o),
(486.96,232.22,o),
(478.07,232.22,cs),
(469.9,232.22,o),
(460.6,226.22,o),
(454.99,213.,c)
);
},
{
closed = 1;
nodes = (
(88.99,38.,o),
(53.99,77.,o),
(53.99,149.,cs),
(53.99,260.,o),
(120.99,347.,o),
(200.99,347.,cs),
(232.99,347.,o),
(257.99,337.,o),
(281.99,316.,c),
(281.99,133.,o),
(209.99,38.,o),
(135.99,38.,cs)
);
}
);
width = 440;
}
);
leftKerningGroup = a;
rightKerningGroup = A;
unicode = 97;
},
{
glyphname = b;
layers = (
{
hints = (
{
horizontal = 1;
place = (-3,42);
type = Stem;
},
{
horizontal = 1;
place = (333,42);
type = Stem;
},
{
horizontal = 1;
place = (448,41);
type = Stem;
},
{
horizontal = 1;
place = (663,42);
type = Stem;
},
{
place = (15,46);
type = Stem;
},
{
place = (109,45);
type = Stem;
},
{
place = (294,45);
type = Stem;
},
{
place = (296,46);
type = Stem;
}
);
layerId = "DBA80DC6-7182-4C80-9763-30666CA5316C";
shapes = (
{
closed = 1;
nodes = (
(421,213,l),
(399.36,161.98,o),
(363.98,127.69,o),
(319.01,114.75,c),
(333.6,148.46,o),
(342.01,187.21,o),
(342.01,227.99,cs),
(342.01,324.99,o),
(292.01,374.99,o),
(225.01,374.99,cs),
(159.01,374.99,o),
(109.01,324.99,o),
(109.01,242.99,cs),
(109.01,147.78,o),
(168.65,89.49,o),
(240.07,73.49,c),
(220.25,51.9,o),
(196.62,38.95,o),
(171.62,38.95,cs),
(101.11,38.95,o),
(61.02,126.58,o),
(61.02,267.99,cs),
(61.02,334.16,o),
(67.59,395.97,o),
(79.49,450.15,c),
(92.5,448.64,o),
(105.67,447.99,o),
(119.01,447.99,cs),
(231.01,447.99,o),
(339.01,506.99,o),
(339.01,610.99,cs),
(339.01,662.99,o),
(297.01,704.99,o),
(236.01,704.99,cs),
(151.36,704.99,o),
(83.25,626.98,o),
(46.03,500.22,c),
(37.23,502.9,o),
(30.25,505.,o),
(23.01,505.,cs),
(11.01,505.,o),
(3.01,496.,o),
(3.01,486.,cs),
(3.01,477.,o),
(9.01,468.,o),
(23.01,463.,cs),
(27.12,461.54,o),
(31.25,460.2,o),
(35.4,458.98,c),
(22.19,400.04,o),
(15.01,332.6,o),
(15.01,259.,cs),
(15.01,92.,o),
(72.01,-3.,o),
(169.01,-3.,cs),
(217.4,-3.,o),
(261.82,25.09,o),
(293.53,69.41,c),
(359.14,73.72,o),
(422.23,112.31,o),
(457.02,196.,cs),
(459.77,202.53,o),
(460.95,208.35,o),
(460.95,213.34,cs),
(460.95,225.84,o),
(453.51,233.09,o),
(444.62,233.09,cs),
(436.42,233.09,o),
(426.98,226.92,o),
(421.02,213.01,c)
);
},
{
closed = 1;
nodes = (
(236.02,663.01,l),
(272.02,663.01,o),
(294.02,641.01,o),
(294.02,609.01,cs),
(294.02,533.01,o),
(209.02,489.01,o),
(121.02,489.01,cs),
(109.06,489.01,o),
(98.77,489.65,o),
(89.8,490.67,c),
(120.36,595.49,o),
(172.92,663.02,o),
(236.02,663.02,c)
);
},
{
closed = 1;
nodes = (
(154.02,293.02,o),
(183.02,333.02,o),
(223.02,333.02,cs),
(263.02,333.02,o),
(296.02,300.02,o),
(296.02,234.02,cs),
(296.02,188.41,o),
(284.37,144.26,o),
(265.44,109.53,c),
(206.08,114.86,o),
(154.02,161.23,o),
(154.02,242.02,c)
);
}
);
width = 406;
}
);
leftKerningGroup = b;
rightKerningGroup = A;
unicode = 98;
},
{
glyphname = c;
layers = (
{
anchors = (
{
name = t.uni0302_2;
position = "{179, 382}";
},
{
name = b.uni0326_1_2;
position = "{170, 0}";
}
);
hints = (
{
horizontal = 1;
place = (-3,42);
type = Stem;
},
{
horizontal = 1;
place = (347,42);
type = Stem;
},
{
place = (13,46);
type = Stem;
},
{
place = (240,41);
type = Stem;
}
);
layerId = "DBA80DC6-7182-4C80-9763-30666CA5316C";
shapes = (
{
closed = 1;
nodes = (
(177,-3,l),
(277,-3,o),
(353,79,o),
(402,196,cs),
(404.45,202.05,o),
(405.51,207.43,o),
(405.51,212.06,cs),
(405.51,224.48,o),
(397.86,231.49,o),
(388.9,231.49,cs),
(380.77,231.49,o),
(371.56,225.72,o),
(365.99,212.99,cs),
(324.99,116.99,o),
(263.99,38.99,o),
(176.99,38.99,cs),
(95.99,38.99,o),
(58.99,106.99,o),
(58.99,179.99,cs),
(58.99,260.99,o),
(104.99,346.99,o),
(181.99,346.99,cs),
(217.99,346.99,o),
(239.99,324.99,o),
(239.99,287.99,cs),
(239.99,272.99,o),
(249.99,263.99,o),
(258.99,263.99,cs),
(269.99,263.99,o),
(280.99,273.99,o),
(280.99,296.99,cs),
(280.99,346.99,o),
(238.99,388.99,o),
(181.99,388.99,cs),
(75.99,388.99,o),
(12.99,280.99,o),
(12.99,178.99,cs),
(12.99,85.99,o),
(63.99,-3.01,o),
(176.99,-3.01,c)
);
}
);
width = 351;
}
);
leftKerningGroup = c;
rightKerningGroup = A;
unicode = 99;
},
{
glyphname = d;
layers = (
{
hints = (
{
horizontal = 1;
place = (-2,42);
type = Stem;
},
{
horizontal = 1;
place = (0,42);
type = Stem;
},
{
horizontal = 1;
place = (347,42);
type = Stem;
},
{
horizontal = 1;
place = (658,42);
type = Stem;
},
{
place = (8,46);
type = Stem;
},
{
place = (257,42);
type = Stem;
},
{
place = (263,42);
type = Stem;
},
{
place = (396,46);
type = Stem;
}
);
layerId = "DBA80DC6-7182-4C80-9763-30666CA5316C";
shapes = (
{
closed = 1;
nodes = (
(486,213,l),
(444,114,o),
(404,42,o),
(372,42,cs),
(348.74,42,o),
(317.67,67.84,o),
(304.88,212.22,c),
(354.48,302.58,o),
(442.,494.41,o),
(442.,617,cs),
(442.,674,o),
(416.,700,o),
(376.,700,cs),
(294.18,700,o),
(256.71,590.46,o),
(256.71,392.92,cs),
(256.71,382.84,o),
(256.81,372.53,o),
(257.,361.99,c),
(257.42,360.29,l),
(238.,380.22,o),
(211.69,388.99,o),
(180.,388.99,cs),
(71.,388.99,o),
(8.,261.99,o),
(8.,152.99,cs),
(8.,70.99,o),
(43.,-2.01,o),
(117.,-2.01,cs),
(177.52,-2.01,o),
(239.98,55.1,o),
(272.39,128.24,c),
(282.7,36.19,o),
(324.84,-0.01,o),
(370.,-0.01,cs),
(435.,-0.01,o),
(472.,78.99,o),
(522.,195.99,cs),
(524.5,201.82,o),
(525.58,207.07,o),
(525.58,211.62,cs),
(525.58,223.75,o),
(517.88,230.91,o),
(508.79,230.91,cs),
(500.84,230.91,o),
(491.83,225.42,o),
(486.,212.97,c)
);
},
{
closed = 1;
nodes = (
(386.,657.97,o),
(396.,647.97,o),
(396.,624.97,cs),
(396.,550.1,o),
(352.8,407.79,o),
(300.05,296.99,c),
(299.36,319.35,o),
(298.99,343.62,o),
(298.99,369.96,cs),
(298.99,534.96,o),
(327.99,657.96,o),
(373.,657.97,c)
);
},
{
closed = 1;
nodes = (
(75.99,39.96,o),
(53.99,90.96,o),
(53.99,151.96,cs),
(53.99,239.96,o),
(100.99,346.96,o),
(186.99,346.96,cs),
(233.99,346.96,o),
(262.99,316.96,o),
(262.99,246.96,cs),
(262.99,147.96,o),
(180.99,39.96,o),
(120.99,39.96,cs)
);
}
);
width = 471;
}
);
leftKerningGroup = a;
rightKerningGroup = A;
unicode = 100;
},
{
glyphname = e;
layers = (
{
anchors = (
{
name = t.uni0302_2;
position = "{188, 382}";
}
);
hints = (
{
horizontal = 1;
place = (-2,42);
type = Stem;
},
{
horizontal = 1;
place = (163,39);
type = Stem;
},
{
horizontal = 1;
place = (347,42);
type = Stem;
},
{
place = (13,46);
type = Stem;
},
{
place = (251,46);
type = Stem;
}
);
layerId = "DBA80DC6-7182-4C80-9763-30666CA5316C";
shapes = (
{
closed = 1;
nodes = (
(317,101,o),
(265,40,o),
(179,40,cs),
(109,40,o),
(59,89,o),
(59,177,cs),
(59,181.6,o),
(59.11,186.12,o),
(59.32,190.55,c),
(85.98,172.18,o),
(120.72,163.,o),
(156.,163.,cs),
(240.,163.,o),
(297.,216.,o),
(297.,289.,cs),
(297.,347.,o),
(255.,389.,o),
(188.,389.,cs),
(94.,389.,o),
(13.,308.,o),
(13.,179.,cs),
(13.,64.,o),
(79.,-2.,o),
(181.,-2.,cs),
(278.,-2.,o),
(346.,59.,o),
(404.,196.,cs),
(406.75,202.53,o),
(407.93,208.29,o),
(407.93,213.19,cs),
(407.93,225.38,o),
(400.59,232.22,o),
(391.78,232.22,cs),
(383.53,232.22,o),
(373.99,226.22,o),
(368,213,cs)
);
},
{
closed = 1;
nodes = (
(228.99,347,o),
(250.99,325,o),
(250.99,290,cs),
(250.99,239,o),
(212.99,202,o),
(150.99,202,cs),
(122.4,202,o),
(91.28,210.83,o),
(64.15,229,c),
(80.25,305.21,o),
(131.88,347,o),
(188.99,347,cs)
);
}
);
width = 353;
}
);
leftKerningGroup = c;
rightKerningGroup = A;
unicode = 101;
},
{
glyphname = f;
layers = (
{
hints = (
{
horizontal = 1;
place = (-249,42);
type = Stem;
},
{
horizontal = 1;
place = (82,42);
type = Stem;
},
{
horizontal = 1;
place = (658,42);
type = Stem;
},
{
place = (14,46);
type = Stem;
},
{
place = (205,46);
type = Stem;
},
{
place = (231,46);
type = Stem;
}
);
layerId = "DBA80DC6-7182-4C80-9763-30666CA5316C";
shapes = (
{
closed = 1;
nodes = (
(297,213,l),
(271,158,o),
(247,124,o),
(214,124,cs),
(209.75,124,o),
(205.45,124.78,o),
(201.13,126.37,c),
(179.41,171.11,o),
(153.63,201.77,o),
(130.26,201.99,c),
(130.26,201.99,o),
(130.17,201.99,o),
(130.08,201.99,c),
(129.75,201.99,l),
(129.75,201.99,o),
(129.69,201.99,o),
(129.63,201.99,c),
(129.63,201.99,l),
(113,201.7,o),
(104.2,188.79,o),
(104.2,170.99,cs),
(104.2,141.88,o),
(132.37,104.55,o),
(170.73,88.68,c),
(190.84,39.52,o),
(205.19,-25.09,o),
(205.19,-81.01,cs),
(205.19,-165.01,o),
(188.19,-207.01,o),
(151.19,-207.01,cs),
(106.19,-207.01,o),
(60.19,-161.01,o),
(60.19,200.99,cs),
(60.19,219.94,o),
(60.47,238.51,o),
(61.02,256.67,c),
(209.85,387.65,o),
(277.19,531.6,o),
(277.19,613.99,cs),
(277.19,667.99,o),
(245.19,699.99,o),
(197.19,699.99,cs),
(78.19,699.99,o),
(14.19,514.99,o),
(14.19,182.99,cs),
(14.19,-190.01,o),
(73.19,-249.01,o),
(149.19,-249.01,cs),
(213.19,-249.01,o),
(251.19,-189.01,o),
(251.19,-85.01,cs),
(251.19,-31.27,o),
(238.6,29.8,o),
(219.94,81.75,c),
(259.44,86.88,o),
(300.44,118.69,o),
(333.18,195.99,cs),
(335.88,202.4,o),
(337.04,207.99,o),
(337.04,212.7,cs),
(337.04,224.59,o),
(329.64,230.92,o),
(320.86,230.92,cs),
(312.49,230.92,o),
(302.86,225.17,o),
(297.18,213.,c)
);
},
{
closed = 1;
nodes = (
(216.18,658.,o),
(231.18,643.,o),
(231.18,612.,cs),
(231.18,541.75,o),
(165.5,412.49,o),
(63.86,316.15,c),
(77.37,519.83,o),
(126.86,657.99,o),
(192.18,658.,c)
);
}
);
width = 282;
}
);
leftKerningGroup = f;
rightKerningGroup = A;
unicode = 102;
},
{
glyphname = g;
layers = (
{
anchors = (
{
name = t.uni0302_2;
position = "{196, 382}";
}
);
hints = (
{
horizontal = 1;
place = (-249,42);
type = Stem;
},
{
horizontal = 1;
place = (-14,21);
target = up;
type = BottomGhost;
},
{
horizontal = 1;
place = (25,42);
type = Stem;
},
{
horizontal = 1;
place = (352,42);
type = Stem;
},
{
place = (8,46);
type = Stem;
},
{
place = (88,46);
type = Stem;
},
{
place = (280,46);
type = Stem;
}
);
layerId = "DBA80DC6-7182-4C80-9763-30666CA5316C";
shapes = (
{
closed = 1;
nodes = (
(373.85,139.86,o),
(344.93,81.58,o),
(309.38,44.39,c),
(315.66,140.55,o),
(325.99,287.15,o),
(325.99,302.,cs),
(325.99,347.,o),
(269.99,394.,o),
(191.99,394.,cs),
(82.99,394.,o),
(7.99,294.,o),
(7.99,176.,cs),
(7.99,81.,o),
(63.99,25.,o),
(145.99,25.,cs),
(191.99,25.,o),
(235.99,46.,o),
(266.99,87.,c),
(265.99,58.,o),
(263.99,33.,o),
(261.99,9.,c),
(157.99,-50.,o),
(87.99,-101.,o),
(87.99,-170.,cs),
(87.99,-215.,o),
(121.99,-249.,o),
(173.99,-249.,cs),
(253.05,-249.,o),
(294.05,-173.73,o),
(305.83,-14.33,c),
(368.61,36.37,o),
(401.41,99.84,o),
(441.99,196.,cs),
(444.84,202.78,o),
(446.07,208.92,o),
(446.07,214.22,cs),
(446.07,226.97,o),
(438.93,234.81,o),
(430.12,234.81,cs),
(422.08,234.81,o),
(412.65,228.28,o),
(406,213,cs)
);
},
{
closed = 1;
nodes = (
(89.99,66.99,o),
(53.99,103.99,o),
(53.99,179.99,cs),
(53.99,264.99,o),
(106.99,351.99,o),
(188.99,351.99,cs),
(235.99,351.99,o),
(271.99,327.99,o),
(279.99,305.99,c),
(275.99,188.99,o),
(263.99,66.99,o),
(151.99,66.99,cs)
);
},
{
closed = 1;
nodes = (
(149.99,-207.01,o),
(133.99,-191.01,o),
(133.99,-169.01,cs),
(133.99,-122.01,o),
(192.99,-79.01,o),
(256.99,-42.01,c),
(239.99,-178.01,o),
(212.99,-207.01,o),
(173.99,-207.01,cs)
);
}
);
width = 391;
}
);
leftKerningGroup = a;
rightKerningGroup = A;
unicode = 103;
},
{
glyphname = h;
layers = (
{
anchors = (
{
name = t.uni0302_2;
position = "{209, 700}";
}
);
hints = (
{
horizontal = 1;
place = (0,42);
type = Stem;
},
{
horizontal = 1;
place = (360,42);
type = Stem;
},
{
horizontal = 1;
place = (433,40);
type = Stem;
},
{
horizontal = 1;
place = (440,42);
type = Stem;
},
{
horizontal = 1;
place = (660,42);
type = Stem;
},
{
place = (17,46);
type = Stem;
},
{
place = (227,46);
type = Stem;
},
{
place = (261,46);
type = Stem;
},
{
place = (273,46);
type = Stem;
}
);
layerId = "DBA80DC6-7182-4C80-9763-30666CA5316C";
shapes = (
{
closed = 1;
nodes = (
(428,213,l),
(388,122,o),
(347,42,o),
(309,42,cs),
(288,42,o),
(273,57,o),
(273,90,cs),
(273,167,o),
(319,245,o),
(319,320,cs),
(319,369,o),
(286,402,o),
(238,402,cs),
(173.6,402,o),
(107.24,358.39,o),
(63.27,277.68,c),
(64.47,335.87,o),
(68.39,387.78,o),
(74.87,433.16,c),
(79.35,433.04,o),
(83.73,433.,o),
(87.99,433.,cs),
(229.99,433.,o),
(306.99,530.,o),
(306.99,610.,cs),
(306.99,666.,o),
(270.99,702.,o),
(214.99,702.,cs),
(126.57,702.,o),
(66.17,625.44,o),
(36.98,478.69,c),
(28.3,480.48,o),
(21.4,482.,o),
(14.,482.,cs),
(3.,482.,o),
(-5.,473.,o),
(-5.,463.,cs),
(-5.,454.,o),
(1.,446.,o),
(14.,442.,cs),
(19.4,440.4,o),
(24.72,439.08,o),
(29.95,437.99,c),
(21.44,380.71,o),
(16.86,314.41,o),
(16.86,239.84,cs),
(16.86,165.55,o),
(21.34,81.38,o),
(24.99,23,cs),
(25.99,7,o),
(36.99,-1,o),
(47.99,-1,cs),
(59.99,-1,o),
(71.99,8,o),
(70.99,26,cs),
(69.07,65.73,o),
(65.92,118.6,o),
(64.17,172.25,c),
(70.43,256.11,o),
(157.,360.,o),
(233.,360.,cs),
(258.,360.,o),
(273.,345.,o),
(273.,313.,cs),
(273.,255.,o),
(227.,179.,o),
(227.,90.,cs),
(227.,31.,o),
(258.,-0.,o),
(304.,-0.,cs),
(369.,-0.,o),
(414.,79.,o),
(464.,196.,cs),
(466.45,201.72,o),
(467.51,206.88,o),
(467.51,211.37,cs),
(467.51,223.66,o),
(459.55,230.93,o),
(450.35,230.93,cs),
(442.35,230.93,o),
(433.43,225.44,o),
(427.98,212.99,c)
);
},
{
closed = 1;
nodes = (
(241.98,659.99,o),
(260.98,640.99,o),
(260.98,608.99,cs),
(260.98,531.99,o),
(188.98,472.99,o),
(91.98,472.99,cs),
(88.31,472.99,o),
(84.84,473.05,o),
(81.55,473.16,c),
(105.36,595.53,o),
(151.19,659.99,o),
(214.98,659.99,cs)
);
}
);
width = 413;
}
);
leftKerningGroup = h;
rightKerningGroup = A;
unicode = 104;
},
{
glyphname = i;
layers = (
{
hints = (
{
horizontal = 1;
place = (-1,42);
type = Stem;
},
{
horizontal = 1;
place = (389,-20);
target = down;
type = TopGhost;
},
{
horizontal = 1;
place = (447,60);
type = Stem;
},
{
place = (13,46);
type = Stem;
},
{
place = (43,59);
type = Stem;
}
);
layerId = "DBA80DC6-7182-4C80-9763-30666CA5316C";
shapes = (
{
closed = 1;
nodes = (
(89,447,o),
(102,461,o),
(102,477,cs),
(102,493,o),
(89,507,o),
(73,507,cs),
(56,507,o),
(43,493,o),
(43,477,cs),
(43,461,o),
(56,447,o),
(73,447,cs)
);
},
{
closed = 1;
nodes = (
(166,-1,o),
(212,77,o),
(261,196,cs),
(263.65,202.36,o),
(264.8,208.32,o),
(264.8,213.58,cs),
(264.8,226.74,o),
(257.6,235.57,o),
(248.63,235.57,cs),
(240.9,235.57,o),
(231.86,229,o),
(225,212.99,cs),
(182,111.99,o),
(142,40.99,o),
(104,40.99,cs),
(80,40.99,o),
(59,61.99,o),
(59,150.99,cs),
(59,195.99,o),
(68,272.99,o),
(81,359.99,cs),
(84,379.99,o),
(71,388.99,o),
(59,388.99,cs),
(48,388.99,o),
(38,381.99,o),
(36,367.99,cs),
(26,295.99,o),
(13,201.99,o),
(13,152.99,cs),
(13,36.99,o),
(51,-1.01,o),
(104,-1,c)
);
}
);
width = 210;
}
);
leftKerningGroup = i;
rightKerningGroup = A;
unicode = 105;
},
{
glyphname = j;
layers = (
{
hints = (
{
horizontal = 1;
place = (-249,42);
type = Stem;
},
{
horizontal = 1;
place = (390,-20);
target = down;
type = TopGhost;
},
{
horizontal = 1;
place = (438,58);
type = Stem;
},
{
place = (-174,46);
type = Stem;
},
{
place = (-1,48);
type = Stem;
},
{
place = (29,46);
type = Stem;
},
{
place = (30,58);
type = Stem;
}
);
layerId = "DBA80DC6-7182-4C80-9763-30666CA5316C";
shapes = (
{
closed = 1;
nodes = (
(75,438,o),
(88,451,o),
(88,467,cs),
(88,483,o),
(75,496,o),
(59,496,cs),
(43,496,o),
(30,483,o),
(30,467,cs),
(30,451,o),
(43,438,o),
(59,438,cs)
);
},
{
closed = 1;
nodes = (
(152,213,l),
(119.01,134.87,o),
(79.99,68.8,o),
(46.72,35.72,c),
(47.14,40.66,o),
(47.56,45.76,o),
(47.98,51,cs),
(55.98,152,o),
(71.98,306,o),
(74.98,361,cs),
(75.98,381,o),
(63.98,390,o),
(51.98,390,cs),
(40.98,390,o),
(29.98,381,o),
(28.98,364,cs),
(25.98,312,o),
(15.98,186,o),
(-0.02,19,cs),
(-0.34,15.67,o),
(-0.67,12.38,o),
(-1.,9.14,c),
(-104.1,-47.09,o),
(-174.02,-100.99,o),
(-174.02,-170.,cs),
(-174.02,-215.,o),
(-140.02,-249.,o),
(-88.02,-249.,cs),
(-15.02,-249.,o),
(19.98,-182.,o),
(39.98,-31.,cs),
(40.3,-28.59,o),
(40.65,-25.8,o),
(41.02,-22.66,c),
(105.99,25.07,o),
(147.43,100.75,o),
(187.98,196,cs),
(190.68,202.31,o),
(191.86,208.36,o),
(191.86,213.78,cs),
(191.86,227.13,o),
(184.71,236.62,o),
(175.68,236.62,cs),
(168.06,236.62,o),
(159.11,229.87,o),
(151.98,212.99,c)
);
},
{
closed = 1;
nodes = (
(-112.02,-207.01,o),
(-128.02,-191.01,o),
(-128.02,-169.01,cs),
(-128.02,-121.97,o),
(-69.6,-76.7,o),
(-6.89,-42.36,c),
(-23.32,-168.25,o),
(-46.17,-207.01,o),
(-88.02,-207.01,cs)
);
}
);
width = 137;
}
);
leftKerningGroup = j;
rightKerningGroup = A;
unicode = 106;
},
{
glyphname = k;
layers = (
{
anchors = (
{
name = b.uni0326_1_2;
position = "{152, 0}";
}
);
hints = (
{
horizontal = 1;
place = (-2,42);
type = Stem;
},
{
horizontal = 1;
place = (341,42);
type = Stem;
},
{
horizontal = 1;
place = (423,40);
type = Stem;
},
{
horizontal = 1;
place = (430,42);
type = Stem;
},
{
horizontal = 1;
place = (660,42);
type = Stem;
},
{
place = (17,46);
type = Stem;
},
{
place = (145,47);
type = Stem;
},
{
place = (262,46);
type = Stem;
},
{
place = (274,46);
type = Stem;
}
);
layerId = "DBA80DC6-7182-4C80-9763-30666CA5316C";
shapes = (
{
closed = 1;
nodes = (
(399,213,l),
(354,117,o),
(312,40,o),
(271,40,cs),
(237,40,o),
(192,95,o),
(192,141,cs),
(192,156,o),
(196,159,o),
(224,174,cs),
(277,202,o),
(320,231,o),
(320,292,cs),
(320,347,o),
(281,383,o),
(222,383,cs),
(170.62,383,o),
(105.9,351.2,o),
(65.46,283.18,c),
(65.9,292.27,o),
(66.41,301.54,o),
(67.,311,cs),
(69.49,351.06,o),
(73.67,388.59,o),
(79.35,423.08,c),
(82.56,423.02,o),
(85.77,423,o),
(89.,423,cs),
(231.,423,o),
(308.,530,o),
(308.,610,cs),
(308.,666,o),
(272.,702,o),
(216.,702,cs),
(133.68,702,o),
(72.28,617.76,o),
(41.09,468.76,c),
(32.47,470.51,o),
(25.66,471.98,o),
(20.,471.98,cs),
(8.,471.98,o),
(-1.,462.98,o),
(-1.,452.98,cs),
(-1.,443.98,o),
(5.,435.98,o),
(19.,431.98,cs),
(24.06,430.48,o),
(28.91,429.23,o),
(33.6,428.18,c),
(27.8,392.22,o),
(23.56,353.08,o),
(20.99,310.98,cs),
(17.88,260.76,o),
(16.74,215.69,o),
(16.74,175.6,cs),
(16.74,112.71,o),
(19.56,62.06,o),
(22.,22.98,cs),
(23.,6.98,o),
(34.,-1.02,o),
(45.,-1.02,cs),
(56.53,-1.02,o),
(68.06,7.29,o),
(68.06,23.91,cs),
(68.06,54.91,o),
(64.32,94.05,o),
(63.4,141.74,c),
(70.56,290.44,o),
(168.98,341.,o),
(215.,341.,cs),
(253.,341.,o),
(274.,321.,o),
(274.,291.,cs),
(274.,258.,o),
(249.,235.,o),
(192.,206.,cs),
(151.,185.,o),
(145.,175.,o),
(145.,151.,cs),
(145.,72.,o),
(205.,-2.,o),
(269.,-2.,cs),
(336.,-2.,o),
(385.,79.,o),
(435.,196.,cs),
(437.5,201.83,o),
(438.58,207.08,o),
(438.58,211.63,cs),
(438.58,223.76,o),
(430.88,230.92,o),
(421.79,230.92,cs),
(413.84,230.92,o),
(404.83,225.43,o),
(399,212.98,c)
);
},
{
closed = 1;
nodes = (
(243,659.98,o),
(262,640.98,o),
(262,608.98,cs),
(262,531.98,o),
(190,462.98,o),
(93,462.98,cs),
(90.91,462.98,o),
(88.87,463.01,o),
(86.88,463.06,c),
(112.98,585.08,o),
(159.67,659.98,o),
(216,659.98,cs)
);
}
);
width = 384;
}
);
leftKerningGroup = k;
rightKerningGroup = A;
unicode = 107;
},
{
glyphname = l;
layers = (
{
anchors = (
{
name = t.uni0302_2;
position = "{169, 688}";
},
{
name = b.uni0326_1_2;
position = "{154, 0}";
}
);
hints = (
{
horizontal = 1;
place = (-3,42);
type = Stem;
},
{
horizontal = 1;
place = (651,42);
type = Stem;
},
{
place = (14,46);
type = Stem;
},
{
place = (204,46);
type = Stem;
}
);
layerId = "DBA80DC6-7182-4C80-9763-30666CA5316C";
shapes = (
{
closed = 1;
nodes = (
(289,213,l),
(252,128,o),
(204,39,o),
(153,39,cs),
(96.33,39,o),
(67.1,105.64,o),
(61.15,214.62,c),
(182.64,345.3,o),
(249.99,481.2,o),
(249.99,594.01,cs),
(249.99,655.01,o),
(220.99,693.01,o),
(168.99,693.01,cs),
(69.99,693.01,o),
(13.99,553.01,o),
(13.99,259.01,cs),
(13.99,96.01,o),
(57.99,-2.99,o),
(145.99,-2.99,cs),
(226.99,-2.99,o),
(274.99,79.01,o),
(324.99,196.01,cs),
(327.44,201.73,o),
(328.5,206.89,o),
(328.5,211.38,cs),
(328.5,223.67,o),
(320.54,230.94,o),
(311.34,230.94,cs),
(303.34,230.94,o),
(294.42,225.45,o),
(288.97,213.,c)
);
},
{
closed = 1;
nodes = (
(190.97,651.,o),
(203.97,631.,o),
(203.97,594.,cs),
(203.97,496.74,o),
(153.9,383.72,o),
(60.01,271.01,c),
(61.49,529.75,o),
(110.82,651.,o),
(165.97,651.,cs)
);
}
);
width = 274;
}
);
leftKerningGroup = l;
rightKerningGroup = A;
unicode = 108;
},
{
glyphname = m;
layers = (
{
hints = (
{
horizontal = 1;
place = (-1,42);
type = Stem;
},
{
horizontal = 1;
place = (320,42);
type = Stem;
},
{
horizontal = 1;
place = (346,41);
type = Stem;
},
{
place = (9,46);
type = Stem;
},
{
place = (231,46);
type = Stem;
},
{
place = (445,46);
type = Stem;
},
{
place = (461,46);
type = Stem;
}
);
layerId = "DBA80DC6-7182-4C80-9763-30666CA5316C";
shapes = (
{
closed = 1;
nodes = (
(624,213,l),
(581,109,o),
(549,41,o),
(518,41,cs),
(503,41,o),
(491,53,o),
(491,80,cs),
(491,135,o),
(507,261,o),
(507,305,cs),
(507,355,o),
(475,387,o),
(425,387,cs),
(377.07,387,o),
(332.01,362.95,o),
(296.92,309.25,c),
(287.55,340.33,o),
(257.68,362,o),
(219.,362,cs),
(169.75,362,o),
(105.38,324.72,o),
(62.41,242.62,c),
(66.59,299.16,o),
(70.99,335.25,o),
(70.99,361.99,cs),
(70.99,378.99,o),
(59.99,386.99,o),
(48.99,386.99,cs),
(37.99,386.99,o),
(25.99,378.99,o),
(24.99,362.99,cs),
(17.99,257.99,o),
(8.99,95.99,o),
(8.99,29.99,cs),
(8.99,10.99,o),
(16.99,1.99,o),
(30.99,1.99,cs),
(46.99,1.99,o),
(54.99,11.99,o),
(54.99,29.99,cs),
(54.99,58.98,o),
(55.34,85.54,o),
(55.94,109.92,c),
(69.59,231.81,o),
(154.67,320,o),
(216.99,320,cs),
(242.99,320,o),
(257.99,305,o),
(257.99,278,cs),
(257.99,241.37,o),
(230.99,183,o),
(230.99,62.74,cs),
(230.99,32.25,o),
(231.87,-1,o),
(259.,-1,cs),
(272.,-1,o),
(280.,8,o),
(280.,23,cs),
(280.,31,o),
(277.,57,o),
(277.,93,cs),
(277.,113.15,o),
(278.54,133.17,o),
(280.82,152.49,cs),
(295.52,259.61,o),
(348.49,346,o),
(416.,346,cs),
(446.,346,o),
(461.,329,o),
(461.,295,cs),
(461.,256,o),
(445.,132,o),
(445.,82,cs),
(445.,28,o),
(474.,-1,o),
(517.,-1,cs),
(579.,-1,o),
(611.,79,o),
(660.,196,cs),
(662.65,202.3,o),
(663.79,207.85,o),
(663.79,212.59,cs),
(663.79,224.96,o),
(656.02,231.79,o),
(647.02,231.79,cs),
(638.65,231.79,o),
(629.22,225.88,o),
(623.99,213.01,c)
);
}
);
width = 609;
}
);
leftKerningGroup = m;
rightKerningGroup = A;
unicode = 109;
},
{
glyphname = n;
layers = (
{
anchors = (
{
name = t.uni0302_2;
position = "{190, 400}";
},
{
name = b.uni0326_1_2;
position = "{149, 0}";
}
);
hints = (
{
horizontal = 1;
place = (-1,42);
type = Stem;
},
{
horizontal = 1;
place = (345,42);
type = Stem;
},
{
place = (9,46);
type = Stem;
},
{
place = (238,46);
type = Stem;
},
{
place = (254,46);
type = Stem;
}
);
layerId = "DBA80DC6-7182-4C80-9763-30666CA5316C";
shapes = (
{
closed = 1;
nodes = (
(417,213,l),
(369,104,o),
(342,41,o),
(313,41,cs),
(296,41,o),
(284,53,o),
(284,80,cs),
(284,135,o),
(300,264,o),
(300,296,cs),
(300,355,o),
(266,387,o),
(214,387,cs),
(159.68,387,o),
(107.07,357.45,o),
(68.51,292.18,c),
(71.09,327.23,o),
(73,353.21,o),
(73,362.,cs),
(73,379.,o),
(63,387.,o),
(52,387.,cs),
(41,387.,o),
(30,379.,o),
(28,363.,cs),
(18,280.,o),
(9,96.,o),
(9,30.,cs),
(9,11.,o),
(17,2.,o),
(31,2.,cs),
(47,2.,o),
(55,12.,o),
(55,30.,cs),
(55,67.07,o),
(56.84,111.59,o),
(59.34,155.9,c),
(72.44,267.49,o),
(138.87,345.01,o),
(209,345.01,cs),
(239,345.01,o),
(254,329.01,o),
(254,295.01,cs),
(254,256.01,o),
(238,132.01,o),
(238,82.01,cs),
(238,28.01,o),
(267,-0.99,o),
(310,-0.99,cs),
(372,-0.99,o),
(403,79.01,o),
(453,196.01,cs),
(455.45,201.73,o),
(456.51,206.89,o),
(456.51,211.38,cs),
(456.51,223.67,o),
(448.55,230.94,o),
(439.35,230.94,cs),
(431.35,230.94,o),
(422.43,225.45,o),
(416.98,213,c)
);
}
);
width = 402;
}
);
leftKerningGroup = m;
rightKerningGroup = A;
unicode = 110;
},
{
glyphname = o;
layers = (
{
anchors = (
{
name = t.uni0302_2;
position = "{210, 382}";
},
{
name = b.uni0326_1_2;
position = "{150, 0}";
}
);
hints = (
{
horizontal = 1;
place = (-3,42);
type = Stem;
},
{
horizontal = 1;
place = (346,45);
type = Stem;
},
{
place = (10,46);
type = Stem;
},
{
place = (120,44);
type = Stem;
},
{
place = (283,46);
type = Stem;
}
);
layerId = "DBA80DC6-7182-4C80-9763-30666CA5316C";
shapes = (
{
closed = 1;
nodes = (
(406,213,l),
(382.95,159.5,o),
(351.09,127,o),
(309.87,117.18,c),
(322.06,149.54,o),
(328.99,188.23,o),
(328.99,233.01,cs),
(328.99,309.13,o),
(290.22,367.7,o),
(240.21,383.05,c),
(225.81,388.22,o),
(209.18,391.01,o),
(191.99,391.01,cs),
(87.99,391.01,o),
(9.99,291.01,o),
(9.99,170.01,cs),
(9.99,59.01,o),
(71.99,-2.99,o),
(150.99,-2.99,cs),
(205.4,-2.99,o),
(255.31,23.35,o),
(288.35,74.2,c),
(351.12,77.07,o),
(408.49,112.7,o),
(442.01,196.02,cs),
(444.66,202.65,o),
(445.8,208.37,o),
(445.8,213.17,cs),
(445.8,225.32,o),
(438.48,231.54,o),
(429.82,231.54,cs),
(421.26,231.54,o),
(411.4,225.46,o),
(406.01,213.02,c)
);
},
{
closed = 1;
nodes = (
(259.7,116.33,l),
(207.81,127.21,o),
(164.02,176.13,o),
(164.02,255.02,cs),
(164.02,308.02,o),
(183.02,346.02,o),
(216.02,346.02,cs),
(247.02,346.02,o),
(283.02,305.02,o),
(283.02,232.02,cs),
(283.02,185.02,o),
(274.12,146.37,o),
(259.71,116.33,c)
);
},
{
closed = 1;
nodes = (
(155.02,39.02,l),
(86.02,39.02,o),
(56.02,101.02,o),
(56.02,170.02,cs),
(56.02,239.51,o),
(88.1,314.35,o),
(143.52,339.35,c),
(129.56,317.46,o),
(120.01,288.61,o),
(120.01,254.03,cs),
(120.01,160.53,o),
(172.48,99.32,o),
(236.6,80.33,c),
(213.31,52.96,o),
(183.95,39.03,o),
(155.01,39.03,c)
);
}
);
width = 391;
}
);
rightKerningGroup = A;
unicode = 111;
},
{
glyphname = p;
layers = (
{
hints = (
{
horizontal = 1;
place = (-248,21);
target = up;
type = BottomGhost;
},
{
horizontal = 1;
place = (5,61);
type = Stem;
},
{
horizontal = 1;
place = (350,42);
type = Stem;
},
{
horizontal = 1;
place = (396,-20);
target = down;
type = TopGhost;
},
{
place = (17,46);
type = Stem;
},
{
place = (285,46);
type = Stem;
}
);
layerId = "DBA80DC6-7182-4C80-9763-30666CA5316C";
shapes = (
{
closed = 1;
nodes = (
(402,213,l),
(370.53,141.06,o),
(330.39,100.89,o),
(265.15,81.36,c),
(304.44,130.08,o),
(331.,196.08,o),
(331.,261.01,cs),
(331.,344.01,o),
(283.,392.01,o),
(218.,392.01,cs),
(159.1,392.01,o),
(97.92,350.95,o),
(59.86,286.92,c),
(57.34,322.79,o),
(53.49,353.25,o),
(49.01,379.01,cs),
(47.01,391.01,o),
(37.01,396.01,o),
(28.01,396.01,cs),
(17.01,396.01,o),
(5.01,388.01,o),
(5.01,373.01,cs),
(5.01,354.01,o),
(17.01,310.01,o),
(17.01,189.01,cs),
(17.01,4.01,o),
(-15.99,-194.99,o),
(-15.99,-224.99,cs),
(-15.99,-239.99,o),
(-4.99,-247.99,o),
(6.01,-247.99,cs),
(16.01,-247.99,o),
(27.01,-240.99,o),
(29.01,-225.99,cs),
(50.01,-64.99,o),
(63.01,81.01,o),
(63.01,192.01,cs),
(63.01,197.01,l),
(81.01,279.01,o),
(151.01,350.01,o),
(211.01,350.01,cs),
(255.01,350.01,o),
(285.01,320.01,o),
(285.01,263.01,cs),
(285.01,188.44,o),
(244.66,108.32,o),
(189.03,68.15,c),
(170.84,66.69,o),
(151.22,66.02,o),
(130.01,66.02,cs),
(107.01,66.02,o),
(93.01,50.02,o),
(93.01,35.02,cs),
(93.01,20.02,o),
(106.01,5.02,o),
(132.01,5.02,cs),
(158.37,5.02,o),
(184.8,14.24,o),
(209.4,30.15,c),
(326.46,44.71,o),
(392.92,92.18,o),
(438.,196.02,cs),
(440.65,202.15,o),
(441.79,207.54,o),
(441.79,212.13,cs),
(441.79,224.13,o),
(433.99,230.66,o),
(424.97,230.66,cs),
(416.62,230.66,o),
(407.22,225.06,o),
(402.01,213.03,c)
);
}
);
width = 387;
}
);
leftKerningGroup = p;
rightKerningGroup = A;
unicode = 112;
},
{
glyphname = q;
layers = (
{
anchors = (
{
name = t.uni0302_2;
position = "{197, 390}";
},
{
name = b.uni0326_1_2;
position = "{197, 0}";
}
);
hints = (
{
horizontal = 1;
place = (-249,42);
type = Stem;
},
{
horizontal = 1;
place = (26,42);
type = Stem;
},
{
horizontal = 1;
place = (351,42);
type = Stem;
},
{
place = (8,46);
type = Stem;
},
{
place = (217,46);
type = Stem;
},
{
place = (278,42);
type = Stem;
},
{
place = (338,44);
type = Stem;
}
);
layerId = "DBA80DC6-7182-4C80-9763-30666CA5316C";
shapes = (
{
closed = 1;
nodes = (
(297,-249,l),
(344,-249,o),
(382,-212,o),
(382,-126,cs),
(382,-49,o),
(342,24,o),
(331,47,c),
(386,76,o),
(418,132,o),
(445,196,cs),
(447.45,201.72,o),
(448.51,206.88,o),
(448.51,211.37,cs),
(448.51,223.66,o),
(440.55,230.93,o),
(431.35,230.93,cs),
(423.35,230.93,o),
(414.43,225.44,o),
(408.98,212.99,cs),
(369.98,122.99,o),
(345.98,100.99,o),
(288.98,71.99,c),
(303.98,167.99,o),
(319.98,258.99,o),
(319.98,293.99,cs),
(319.98,336.99,o),
(269.98,392.99,o),
(193.98,392.99,cs),
(88.98,392.99,o),
(7.98,294.99,o),
(7.98,166.99,cs),
(7.98,80.99,o),
(60.98,25.99,o),
(135.98,25.99,cs),
(176.98,25.99,o),
(212.98,41.99,o),
(241.98,70.99,c),
(228.98,-16.01,o),
(216.98,-101.01,o),
(216.98,-149.01,cs),
(216.98,-218.01,o),
(247.98,-249.01,o),
(296.98,-249.01,c)
);
},
{
closed = 1;
nodes = (
(85.98,67.99,o),
(53.98,106.99,o),
(53.98,170.99,cs),
(53.98,271.99,o),
(118.98,350.99,o),
(200.98,350.99,cs),
(230.98,350.99,o),
(266.98,334.99,o),
(277.98,307.99,c),
(267.98,187.99,o),
(249.98,67.99,o),
(140.98,67.99,cs)
);
},
{
closed = 1;
nodes = (
(277.98,-207.01,o),
(262.98,-192.01,o),
(262.98,-158.01,cs),
(262.98,-107.01,o),
(272.98,-32.01,o),
(283.98,43.99,c),
(297.98,6.99,o),
(337.98,-53.01,o),
(337.98,-122.01,cs),
(337.98,-187.01,o),
(319.98,-207.01,o),
(296.98,-207.01,cs)
);
}
);
width = 394;
}
);
leftKerningGroup = a;
rightKerningGroup = A;
unicode = 113;
},
{
glyphname = r;
layers = (
{
anchors = (
{
name = t.uni0302_2;
position = "{201, 382}";
},
{
name = b.uni0326_1_2;
position = "{256, 0}";
}
);
hints = (
{
horizontal = 1;
place = (-3,42);
type = Stem;
},
{
horizontal = 1;
place = (335,42);
type = Stem;
},
{
place = (140,46);
type = Stem;
}
);
layerId = "DBA80DC6-7182-4C80-9763-30666CA5316C";
shapes = (
{
closed = 1;
nodes = (
(378,213,l),
(345,134,o),
(299,39,o),
(248,39,cs),
(213,39,o),
(186,64,o),
(186,139,cs),
(186,202,o),
(214,274,o),
(254,338,cs),
(259,346,o),
(262,354,o),
(262,361,cs),
(262,371,o),
(254,384,o),
(237,384,cs),
(228,384,o),
(219,377,o),
(198,377,cs),
(153,377,o),
(128,395,o),
(121,424,cs),
(118,436,o),
(109,442,o),
(99,442,cs),
(88,442,o),
(73,433,o),
(73,412,cs),
(73,405.6,o),
(74.28,400.48,o),
(74.28,395.1,cs),
(74.28,393.76,o),
(74.2,392.4,o),
(74,391.,c),
(66,351.,o),
(45,285.,o),
(15,213.,cs),
(12.87,207.83,o),
(11.94,203.17,o),
(11.94,199.09,cs),
(11.94,186.74,o),
(20.41,179.65,o),
(29.79,179.65,cs),
(37.73,179.65,o),
(46.32,184.73,o),
(50.98,196.,cs),
(74.13,251.74,o),
(92.87,308.21,o),
(110.98,363.53,c),
(130.47,347.3,o),
(171.32,335.11,o),
(199.09,335.13,c),
(162.13,262.86,o),
(139.98,199.93,o),
(139.98,137.,cs),
(139.98,40.,o),
(187.98,-3.,o),
(241.98,-3.,cs),
(322.98,-3.,o),
(369.98,90.,o),
(413.98,196.,cs),
(416.53,202.12,o),
(417.64,207.75,o),
(417.64,212.69,cs),
(417.64,225.61,o),
(410.07,233.83,o),
(401.,233.83,cs),
(393.14,233.83,o),
(384.14,227.65,o),
(377.97,213.,c)
);
}
);
width = 363;
}
);
leftKerningGroup = r;
rightKerningGroup = A;
unicode = 114;
},
{
glyphname = s;
layers = (
{
anchors = (
{
name = t.uni0302_2;
position = "{139, 400}";
},
{
name = b.uni0326_1_2;
position = "{134, 0}";
}
);
hints = (
{
horizontal = 1;
place = (-4,53);
type = Stem;
},
{
place = (82,61);
type = Stem;
},
{
place = (204,46);
type = Stem;
}
);
layerId = "DBA80DC6-7182-4C80-9763-30666CA5316C";
shapes = (
{
closed = 1;
nodes = (
(327,213,l),
(300.81,151.5,o),
(279.16,106.86,o),
(245.24,79.82,c),
(248.32,91.54,o),
(250.01,104.58,o),
(250.01,119,cs),
(250.01,217,o),
(143.01,304,o),
(143.01,362,cs),
(143.01,384,o),
(157.01,393,o),
(157.01,409,cs),
(157.01,425,o),
(146.01,435,o),
(127.01,435,cs),
(102.01,435,o),
(82.01,415,o),
(82.01,384,c),
(82.01,383.46,l),
(59.35,320.83,o),
(31.52,250.88,o),
(15.01,213,cs),
(13.11,208.62,o),
(12.28,204.58,o),
(12.28,200.96,cs),
(12.28,188.99,o),
(21.38,181.6,o),
(31.14,181.6,cs),
(38.65,181.6,o),
(46.55,185.97,o),
(51.01,196,cs),
(65.89,230.46,o),
(84.45,279.03,o),
(102.37,327.3,c),
(137.08,264.66,o),
(204.01,181.96,o),
(204.01,119.,cs),
(204.01,87.48,o),
(190.04,61.87,o),
(168.4,50.44,c),
(159.55,49.48,o),
(150.11,49.,o),
(140.01,49.,cs),
(95.01,49.,o),
(87.01,65.,o),
(66.01,65.,cs),
(53.01,65.,o),
(45.01,55.,o),
(45.01,45.,cs),
(45.01,36.,o),
(50.01,26.,o),
(61.01,18.,cs),
(80.01,4.,o),
(106.01,-4.,o),
(132.01,-4.,cs),
(156.55,-4.,o),
(181.45,2.62,o),
(202.01,16.77,c),
(281.45,38.31,o),
(321.31,99.19,o),
(363.02,196,cs),
(365.52,201.83,o),
(366.6,207.16,o),
(366.6,211.84,cs),
(366.6,224.42,o),
(358.76,232.24,o),
(349.57,232.24,cs),
(341.68,232.24,o),
(332.79,226.47,o),
(327.02,213,c)
);
}
);
width = 312;
}
);
leftKerningGroup = r;
rightKerningGroup = A;
unicode = 115;
},
{
glyphname = t;
layers = (
{
anchors = (
{
name = b.uni0326_1_2;
position = "{124, 0}";
}
);
hints = (
{
horizontal = 1;
place = (-4,42);
type = Stem;
},
{
horizontal = 1;
place = (427,45);
type = Stem;
},
{
horizontal = 1;
place = (436,38);
type = Stem;
},
{
place = (13,46);
type = Stem;
}
);
layerId = "DBA80DC6-7182-4C80-9763-30666CA5316C";
shapes = (
{
closed = 1;
nodes = (
(256,213,l),
(212,117,o),
(178,38,o),
(127,38,cs),
(87,38,o),
(59,66,o),
(59,153,cs),
(59,215,o),
(75,325,o),
(90,434,c),
(90,434.34,l),
(138.05,431.74,o),
(150.07,426.99,o),
(168.95,426.99,cs),
(181.95,426.99,o),
(188.95,434.99,o),
(188.95,444.99,cs),
(188.95,451.99,o),
(182.95,459.99,o),
(168.95,462.99,cs),
(149.05,467.07,o),
(122.64,469.85,o),
(95.16,471.59,c),
(106.14,551,o),
(112.95,601.41,o),
(112.95,610.98,cs),
(112.95,627.98,o),
(101.95,636.98,o),
(90.95,636.98,cs),
(79.95,636.98,o),
(68.95,627.98,o),
(66.95,610.98,cs),
(62.03,572.4,o),
(55.76,524.39,o),
(49.25,473.58,c),
(38.38,473.85,o),
(27.83,473.98,o),
(17.96,473.98,cs),
(1.96,473.98,o),
(-6.04,463.98,o),
(-6.04,454.98,cs),
(-6.04,444.98,o),
(0.96,435.98,o),
(17.96,435.98,cs),
(27.46,435.98,o),
(36.25,435.92,o),
(44.39,435.8,c),
(29.53,328.1,o),
(12.96,217.21,o),
(12.96,157.98,cs),
(12.96,42.98,o),
(59.96,-4.02,o),
(123.96,-4.02,cs),
(201.96,-4.02,o),
(242.96,78.98,o),
(291.96,195.98,cs),
(294.71,202.51,o),
(295.89,208.27,o),
(295.89,213.17,cs),
(295.89,225.36,o),
(288.55,232.2,o),
(279.74,232.2,cs),
(271.49,232.2,o),
(261.95,226.2,o),
(255.95,212.98,c)
);
}
);
width = 241;
}
);
leftKerningGroup = t;
rightKerningGroup = A;
unicode = 116;
},
{
glyphname = u;
layers = (
{
anchors = (
{
name = t.uni0302_2;
position = "{163, 382}";
}
);
hints = (
{
horizontal = 1;
place = (-3,42);
type = Stem;
},
{
horizontal = 1;
place = (-1,42);
type = Stem;
},
{
horizontal = 1;
place = (390,-20);
target = down;
type = TopGhost;
},
{
place = (5,46);
type = Stem;
},
{
place = (28,46);
type = Stem;
},
{
place = (255,43);
type = Stem;
}
);
layerId = "DBA80DC6-7182-4C80-9763-30666CA5316C";
shapes = (
{
closed = 1;
nodes = (
(426,213,l),
(385,118,o),
(347,41,o),
(327,41,cs),
(313,41,o),
(298,67,o),
(298,171,cs),
(298,227,o),
(300,287,o),
(313,363,cs),
(316,381,o),
(304,390,o),
(291,390,cs),
(280,390,o),
(269,383,o),
(267,368,cs),
(262.7,334.2,o),
(258.78,295.49,o),
(256.16,256.98,c),
(256,256.98,l),
(242,135.98,o),
(183,38.98,o),
(109,38.98,cs),
(72,38.98,o),
(51,59.98,o),
(51,103.98,cs),
(51,155.98,o),
(74,286.98,o),
(74,340.98,cs),
(74,383.98,o),
(46,407.98,o),
(21,407.98,cs),
(7,407.98,o),
(-1,398.98,o),
(-1,389.98,cs),
(-1,366.98,o),
(28,371.98,o),
(28,338.98,cs),
(28,296.98,o),
(5,161.98,o),
(5,99.98,cs),
(5,36.76,o),
(44.03,-3.04,o),
(106.67,-3.04,cs),
(166.89,-3.04,o),
(218.27,37.13,o),
(254.93,114.02,c),
(263.11,18.67,o),
(294.04,-1.02,o),
(327,-1.02,cs),
(376,-1.02,o),
(413,78.98,o),
(462,195.98,cs),
(464.75,202.51,o),
(465.93,208.36,o),
(465.93,213.39,cs),
(465.93,226.04,o),
(458.44,233.49,o),
(449.51,233.49,cs),
(441.33,233.49,o),
(431.94,227.23,o),
(426,212.97,c)
);
}
);
width = 411;
}
);
leftKerningGroup = u;
rightKerningGroup = A;
unicode = 117;
},
{
glyphname = v;
layers = (
{
hints = (
{
horizontal = 1;
place = (-3,42);
type = Stem;
},
{
horizontal = 1;
place = (119,42);
type = Stem;
},
{
horizontal = 1;
place = (389,-20);
target = down;
type = TopGhost;
},
{
horizontal = 1;
place = (390,-20);
target = down;
type = TopGhost;
},
{
place = (9,46);
type = Stem;
},
{
place = (27,46);
type = Stem;
},
{
place = (229,78);
type = Stem;
}
);
layerId = "DBA80DC6-7182-4C80-9763-30666CA5316C";
shapes = (
{
closed = 1;
nodes = (
(381,183,o),
(363,161,o),
(343,161,cs),
(324.36,161,o),
(305.33,176.06,o),
(293.59,206.67,c),
(302.19,238.19,o),
(307,271.16,o),
(307,303.99,cs),
(307,359.99,o),
(293,389.99,o),
(268,389.99,cs),
(244,389.99,o),
(229,359.99,o),
(229,307.99,cs),
(229,268.26,o),
(235.07,233.26,o),
(245.61,204.53,c),
(217.48,98.43,o),
(145.56,38.99,o),
(102,38.99,cs),
(76,38.99,o),
(55,59.99,o),
(55,109.99,cs),
(55,179.99,o),
(73,274.99,o),
(73,361.99,cs),
(73,379.99,o),
(61,388.99,o),
(50,388.99,cs),
(38,388.99,o),
(27,378.99,o),
(27,359.99,cs),
(27,263.99,o),
(9,199.99,o),
(9,113.99,cs),
(9,34.99,o),
(47,-3.01,o),
(98,-3.01,cs),
(167.63,-3.01,o),
(235.96,63.87,o),
(274.66,152.85,c),
(293.21,131.05,o),
(316.14,118.99,o),
(341,118.99,cs),
(379,118.99,o),
(410,146.99,o),
(430,195.99,cs),
(432.85,202.95,o),
(434.08,209.21,o),
(434.08,214.57,cs),
(434.08,227.37,o),
(427.06,235.09,o),
(418.36,235.09,cs),
(410.27,235.09,o),
(400.72,228.43,o),
(394,213,cs)
);
}
);
width = 379;
}
);
leftKerningGroup = v;
rightKerningGroup = A;
unicode = 118;
},
{
glyphname = w;
layers = (
{
anchors = (
{
name = t.uni0302_2;
position = "{266, 382}";
}
);
hints = (
{
horizontal = 1;
place = (-4,42);
type = Stem;
},
{
horizontal = 1;
place = (1,42);
type = Stem;
},
{
horizontal = 1;
place = (120,42);
type = Stem;
},
{
horizontal = 1;
place = (390,-20);
target = down;
type = TopGhost;
},
{
horizontal = 1;
place = (391,-20);
target = down;
type = TopGhost;
},
{
place = (9,46);
type = Stem;
},
{
place = (27,46);
type = Stem;
},
{
place = (245,46);
type = Stem;
},
{
place = (442,78);
type = Stem;
}
);
layerId = "DBA80DC6-7182-4C80-9763-30666CA5316C";
shapes = (
{
closed = 1;
nodes = (
(607,213,l),
(594,183,o),
(578,162,o),
(556,162,cs),
(535.25,162,o),
(517.66,175.71,o),
(506.78,203.55,c),
(515.29,236.19,o),
(520,270.59,o),
(520,304.99,cs),
(520,360.99,o),
(506,390.99,o),
(481,390.99,cs),
(457,390.99,o),
(442,360.99,o),
(442,308.99,cs),
(442,268.21,o),
(448.14,232.42,o),
(458.91,203.27,c),
(433.01,99.49,o),
(369.2,42.99,o),
(325.99,42.99,cs),
(292.99,42.99,o),
(273.99,69.99,o),
(273.99,114.99,cs),
(273.99,163.99,o),
(290.99,236.99,o),
(290.99,325.99,cs),
(290.99,344.99,o),
(280.99,352.99,o),
(269.99,352.99,cs),
(257.99,352.99,o),
(244.99,341.99,o),
(244.99,323.99,cs),
(244.99,291.12,o),
(242.52,258.58,o),
(239.58,228.11,c),
(218.05,85.79,o),
(153.98,37.99,o),
(109.98,37.99,cs),
(77.98,37.99,o),
(54.98,60.99,o),
(54.98,108.99,cs),
(54.98,178.99,o),
(72.98,275.99,o),
(72.98,362.99,cs),
(72.98,381.99,o),
(62.98,389.99,o),
(51.98,389.99,cs),
(39.98,389.99,o),
(26.98,378.99,o),
(26.98,360.99,cs),
(26.98,264.99,o),
(8.98,198.99,o),
(8.98,112.99,cs),
(8.98,35.99,o),
(46.98,-4.01,o),
(105.98,-4.01,cs),
(161.61,-4.01,o),
(203.45,31.12,o),
(232.63,80.87,c),
(241.91,28.6,o),
(275.01,0.98,o),
(322.98,0.98,cs),
(390.96,0.98,o),
(453.49,64.69,o),
(489.13,150.87,c),
(506.99,130.95,o),
(528.89,119.98,o),
(552.98,119.98,cs),
(590.98,119.98,o),
(619.98,141.98,o),
(642.98,195.98,cs),
(645.89,202.71,o),
(647.15,208.91,o),
(647.15,214.3,cs),
(647.15,227.12,o),
(640.05,235.39,o),
(631.18,235.39,cs),
(623.26,235.39,o),
(613.93,228.8,o),
(606.98,212.98,c)
);
}
);
width = 592;
}
);
leftKerningGroup = v;
rightKerningGroup = A;
unicode = 119;
},
{
glyphname = x;
layers = (
{
hints = (
{
horizontal = 1;
place = (-1,42);
type = Stem;
},
{
horizontal = 1;
place = (351,42);
type = Stem;
},
{
place = (12,481);
type = Stem;
}
);
layerId = "DBA80DC6-7182-4C80-9763-30666CA5316C";
shapes = (
{
closed = 1;
nodes = (
(453,213,l),
(412,115,o),
(376,41,o),
(352,41,cs),
(336,41,o),
(319,67,o),
(286,144,cs),
(281.66,154.22,o),
(276.99,165.42,o),
(271.98,177.64,c),
(308.3,231.53,o),
(342.59,289.27,o),
(371.,347.01,cs),
(374.,353.01,o),
(375.,359.01,o),
(375.,364.01,cs),
(375.,377.01,o),
(366.,385.01,o),
(355.,385.01,cs),
(347.,385.01,o),
(337.,380.01,o),
(332.,369.01,cs),
(313.2,328.72,o),
(284.78,278.81,o),
(251.76,227.89,c),
(241.89,252.79,o),
(231.,280.75,o),
(219.,312.02,cs),
(197.,369.02,o),
(172.,393.02,o),
(137.,393.02,cs),
(101.,393.02,o),
(78.,363.02,o),
(58.,315.02,cs),
(46.,286.02,o),
(32.,252.02,o),
(15.,213.02,cs),
(13.18,208.81,o),
(12.38,204.97,o),
(12.38,201.55,cs),
(12.38,189.75,o),
(21.92,182.94,o),
(31.79,182.94,cs),
(39.42,182.94,o),
(47.25,187.02,o),
(51,196.02,cs),
(68,236.02,o),
(81,268.02,o),
(92,292.02,cs),
(110,332.02,o),
(121,351.02,o),
(136,351.02,cs),
(156,351.02,o),
(165,324.02,o),
(203,226.02,cs),
(208.14,212.6,o),
(213.03,199.92,o),
(217.73,187.92,c),
(178.7,133.16,o),
(136.86,80.88,o),
(98,42.02,cs),
(89,33.02,o),
(86,25.02,o),
(86,19.02,cs),
(86,7.02,o),
(96,-1.98,o),
(107,-1.98,cs),
(116,-1.98,o),
(122,2.02,o),
(129,9.02,cs),
(163.58,43.6,o),
(201,88.14,o),
(237.67,138.44,c),
(241.89,128.36,o),
(245.98,118.9,o),
(249.99,110.02,cs),
(285.99,30.02,o),
(310.99,-0.98,o),
(350.99,-0.98,cs),
(404.99,-0.98,o),
(437.99,77.02,o),
(488.99,196.02,cs),
(491.64,202.21,o),
(492.79,208.08,o),
(492.79,213.32,cs),
(492.79,226.56,o),
(485.44,235.76,o),
(476.35,235.76,cs),
(468.68,235.76,o),
(459.77,229.21,o),
(452.99,213.01,c)
);
}
);
width = 438;
}
);
leftKerningGroup = r;
rightKerningGroup = A;
unicode = 120;
},
{
glyphname = y;
layers = (
{
anchors = (
{
name = t.uni0302_2;
position = "{170, 382}";
}
);
hints = (
{
horizontal = 1;
place = (-249,42);
type = Stem;
},
{
horizontal = 1;
place = (3,42);
type = Stem;
},
{
place = (5,46);
type = Stem;
},
{
place = (28,46);
type = Stem;
},
{
place = (70,46);
type = Stem;
},
{
place = (252,40);
type = Stem;
}
);
layerId = "DBA80DC6-7182-4C80-9763-30666CA5316C";
shapes = (
{
closed = 1;
nodes = (
(400,213,l),
(362.18,126.8,o),
(328.22,71.55,o),
(291.33,37.04,c),
(293.,53.01,ls),
(302.,152.01,o),
(316.,298.01,o),
(319.,352.01,cs),
(320.,372.01,o),
(308.,381.01,o),
(296.,381.01,cs),
(285.,381.01,o),
(274.,372.01,o),
(273.,355.01,cs),
(271.84,334.9,o),
(269.63,305.07,o),
(266.43,266.39,c),
(251.21,147.35,o),
(182.05,45.01,o),
(108.99,45.01,cs),
(71.99,45.01,o),
(50.99,66.01,o),
(50.99,110.01,cs),
(50.99,162.01,o),
(73.99,287.01,o),
(73.99,341.01,cs),
(73.99,384.01,o),
(45.99,408.01,o),
(20.99,408.01,cs),
(6.99,408.01,o),
(-1.01,399.01,o),
(-1.01,390.01,cs),
(-1.01,367.01,o),
(27.99,372.01,o),
(27.99,339.01,cs),
(27.99,297.01,o),
(4.99,168.01,o),
(4.99,106.01,cs),
(4.99,42.79,o),
(44.02,2.99,o),
(106.66,2.99,cs),
(160.17,2.99,o),
(212.68,39.99,o),
(252.35,107.54,c),
(249.78,79.85,o),
(246.99,50.31,o),
(243.99,19.01,cs),
(243.67,15.68,o),
(243.34,12.39,o),
(243.01,9.15,c),
(139.91,-47.08,o),
(69.99,-100.98,o),
(69.99,-169.99,cs),
(69.99,-214.99,o),
(103.99,-248.99,o),
(155.99,-248.99,cs),
(228.99,-248.99,o),
(267.99,-182.99,o),
(283.99,-30.99,cs),
(284.27,-28.73,o),
(284.57,-26.19,o),
(284.89,-23.39,c),
(355.07,29.51,o),
(392.38,98.39,o),
(435.98,196.01,cs),
(438.68,202.08,o),
(439.84,207.5,o),
(439.84,212.16,cs),
(439.84,224.25,o),
(432.01,231.22,o),
(422.9,231.22,cs),
(414.71,231.22,o),
(405.49,225.6,o),
(399.98,213.01,c)
);
},
{
closed = 1;
nodes = (
(131.98,-206.99,o),
(115.98,-190.99,o),
(115.98,-168.99,cs),
(115.98,-121.95,o),
(174.4,-76.68,o),
(237.11,-42.34,c),
(220.68,-168.23,o),
(197.83,-206.99,o),
(155.98,-206.99,cs)
);
}
);
width = 385;
}
);
leftKerningGroup = u;
rightKerningGroup = A;
unicode = 121;
},
{
glyphname = z;
layers = (
{
anchors = (
{
name = t.uni0302_2;
position = "{197, 382}";
}
);
hints = (
{
horizontal = 1;
place = (-2,42);
type = Stem;
},
{
horizontal = 1;
place = (10,43);
type = Stem;
},
{
horizontal = 1;
place = (315,41);
type = Stem;
},
{
place = (12,409);
type = Stem;
}
);
layerId = "DBA80DC6-7182-4C80-9763-30666CA5316C";
shapes = (
{
closed = 1;
nodes = (
(350,138,o),
(305,40,o),
(272,40,cs),
(249,40,o),
(210,53,o),
(171,53,cs),
(157.83,53,o),
(145.65,52.02,o),
(131.45,50.05,c),
(209.76,118.79,o),
(277.34,260.65,o),
(301.01,318.,cs),
(306.01,330.,o),
(308.01,339.,o),
(308.01,344.,cs),
(308.01,356.,o),
(301.01,365.,o),
(289.01,365.,cs),
(273.01,365.,o),
(266.01,356.,o),
(235.01,356.,cs),
(187.01,356.,o),
(139.01,379.,o),
(122.01,416.,cs),
(113.01,436.,o),
(107.01,442.,o),
(95.01,442.,cs),
(81.01,442.,o),
(71.01,428.,o),
(71.01,413.,cs),
(71.01,409.,o),
(73.01,400.,o),
(74.01,397.,c),
(74.01,370.,o),
(35.01,262.,o),
(15.01,213.,cs),
(13.03,208.29,o),
(12.16,203.85,o),
(12.16,199.83,cs),
(12.16,187.2,o),
(20.73,178.7,o),
(30.34,178.7,cs),
(37.77,178.7,o),
(45.82,183.79,o),
(51.,196,cs),
(75.,253,o),
(93.,306,o),
(110.,361,c),
(140.,336,o),
(180.,315,o),
(251.,315,c),
(204.,213,o),
(164.,137,o),
(68.,51,cs),
(58.,42,o),
(54.,33,o),
(54.,23,cs),
(54.,9,o),
(64.,-3,o),
(81.,-3,cs),
(97.,-3,o),
(117.,10,o),
(168.,10,cs),
(192.,10,o),
(231.,-2,o),
(274.,-2,cs),
(333.,-2,o),
(379.,104,o),
(417.,196,cs),
(419.55,202.12,o),
(420.66,207.78,o),
(420.66,212.76,cs),
(420.66,225.83,o),
(413.06,234.27,o),
(403.96,234.27,cs),
(396.11,234.27,o),
(387.15,228,o),
(381,213,cs)
);
}
);
width = 366;
}
);
leftKerningGroup = r;
rightKerningGroup = A;
unicode = 122;
},
{
glyphname = braceleft;
layers = (
{
hints = (
{
horizontal = 1;
place = (-2,43);
type = Stem;
},
{
horizontal = 1;
place = (615,43);
type = Stem;
},
{
place = (131,46);
type = Stem;
},
{
place = (132,37);
type = Stem;
}
);
layerId = "DBA80DC6-7182-4C80-9763-30666CA5316C";
shapes = (
{
closed = 1;
nodes = (
(246,43,o),
(233,41,o),
(223,41,cs),
(195,41,o),
(177,59,o),
(177,84,cs),
(177,118,o),
(185,224,o),
(185,242,cs),
(185,283.35,o),
(157.81,322.17,o),
(127.56,334.83,c),
(157.86,345.7,o),
(176,368.61,o),
(176,403.99,cs),
(176,439.99,o),
(169,490.99,o),
(169,546.99,cs),
(169,595.99,o),
(189,614.99,o),
(227,614.99,cs),
(236,614.99,o),
(245,612.99,o),
(263,605.99,cs),
(268.1,603.99,o),
(272.79,603.1,o),
(276.96,603.1,cs),
(289.38,603.1,o),
(297.15,610.96,o),
(297.15,620.44,cs),
(297.15,628.38,o),
(291.71,637.45,o),
(279,644.,cs),
(262,653.,o),
(243,658.,o),
(227,658.,cs),
(163,658.,o),
(123,615.,o),
(123,547.,cs),
(123,522.,o),
(132,442.,o),
(132,406.,cs),
(132,373.,o),
(112,360.,o),
(77,350.,c),
(65,347.,o),
(60,340.,o),
(60,332.,cs),
(60,325.,o),
(66,318.,o),
(77,316.,cs),
(116,308.,o),
(139,280.,o),
(139,242.,cs),
(139,223.,o),
(131,117.,o),
(131,84.,cs),
(131,33.,o),
(166,-2.,o),
(223,-2.,cs),
(245,-2.,o),
(267,7.,o),
(287,24.,c),
(294.54,30.91,o),
(297.74,38.51,o),
(297.74,45.1,cs),
(297.74,54.71,o),
(290.94,62.16,o),
(280.91,62.16,cs),
(275.93,62.16,o),
(270.15,60.32,o),
(264,56,cs)
);
}
);
width = 328;
}
);
unicode = 123;
},
{
glyphname = bar;
layers = (
{
hints = (
{
horizontal = 1;
place = (-251,21);
target = up;
type = BottomGhost;
},
{
horizontal = 1;
place = (693,-20);
target = down;
type = TopGhost;
},
{
place = (62,47);
type = Stem;
}
);
layerId = "DBA80DC6-7182-4C80-9763-30666CA5316C";
shapes = (
{
closed = 1;
nodes = (
(86,-251,o),
(97,-241,o),
(98,-221,cs),
(105,-79,o),
(109,62,o),
(109,202,cs),
(109,357,o),
(104,512,o),
(96,667,cs),
(95,685,o),
(84,693,o),
(73,693,cs),
(62,693,o),
(50,684,o),
(50,665,cs),
(50,641,o),
(62,425,o),
(62,197,cs),
(62,28,o),
(52,-171,o),
(52,-220,cs),
(52,-240,o),
(63,-251,o),
(75,-251,cs)
);
}
);
width = 159;
}
);
unicode = 124;
},
{
glyphname = braceright;
layers = (
{
hints = (
{
horizontal = 1;
place = (-2,43);
type = Stem;
},
{
horizontal = 1;
place = (615,43);
type = Stem;
},
{
place = (151,46);
type = Stem;
},
{
place = (159,37);
type = Stem;
}
);
layerId = "DBA80DC6-7182-4C80-9763-30666CA5316C";
shapes = (
{
closed = 1;
nodes = (
(212,348,o),
(189,376,o),
(189,414,cs),
(189,433,o),
(197,539,o),
(197,572,cs),
(197,623,o),
(162,658,o),
(105,658,cs),
(83,658,o),
(61,649,o),
(41,632,c),
(33.46,625.09,o),
(30.26,617.49,o),
(30.26,610.9,cs),
(30.26,601.29,o),
(37.06,593.84,o),
(47.09,593.84,cs),
(52.07,593.84,o),
(57.85,595.68,o),
(64,600,cs),
(82,613,o),
(95,615,o),
(105,615,cs),
(131,615,o),
(151,597,o),
(151,572,cs),
(151,538,o),
(143,432,o),
(143,414,cs),
(143,372.65,o),
(170.19,333.83,o),
(200.44,321.17,c),
(170.14,310.3,o),
(152,287.39,o),
(152,252.01,cs),
(152,216.01,o),
(159,165.01,o),
(159,109.01,cs),
(159,60.01,o),
(139,41.01,o),
(101,41.01,cs),
(92,41.01,o),
(83,43.01,o),
(65,50.01,cs),
(59.9,52.01,o),
(55.21,52.9,o),
(51.04,52.9,cs),
(38.62,52.9,o),
(30.85,45.04,o),
(30.85,35.56,cs),
(30.85,27.62,o),
(36.29,18.55,o),
(49,12.,cs),
(66,3.,o),
(85,-2.,o),
(101,-2.,cs),
(165,-2.,o),
(205,41.,o),
(205,109.,cs),
(205,134.,o),
(196,214.,o),
(196,250.,cs),
(196,283.,o),
(216,296.,o),
(251,306.,c),
(263,309.,o),
(268,316.,o),
(268,323.,cs),
(268,331.,o),
(263,338.,o),
(251,340,c)
);
}
);
width = 328;
}
);
unicode = 125;
},
{
glyphname = asciitilde;
layers = (
{
hints = (
{
horizontal = 1;
place = (302,42);
type = Stem;
},
{
horizontal = 1;
place = (334,42);
type = Stem;
},
{
place = (30,259);
type = Stem;
}
);
layerId = "DBA80DC6-7182-4C80-9763-30666CA5316C";
shapes = (
{
closed = 1;
nodes = (
(246,348,o),
(237,344,o),
(221,344,cs),
(182,344,o),
(144,376,o),
(100,376,cs),
(77,376,o),
(52,365,o),
(36,340,cs),
(32,334,o),
(30,328,o),
(30,323,cs),
(30,313,o),
(37,307,o),
(46,307,cs),
(52,307,o),
(59,311,o),
(65,318,cs),
(74,329,o),
(85,334,o),
(99,334,cs),
(131,334,o),
(174,302,o),
(221,302,cs),
(244,302,o),
(268,313,o),
(282,333,cs),
(287,340,o),
(289,346,o),
(289,352,cs),
(289,363,o),
(282,371,o),
(273,371,cs),
(268,371,o),
(261,368,o),
(256,361,c)
);
}
);
width = 319;
}
);
unicode = 126;
},
{
glyphname = exclamdown;
layers = (
{
hints = (
{
horizontal = 1;
place = (-254,21);
target = up;
type = BottomGhost;
},
{
horizontal = 1;
place = (386,77);
type = Stem;
},
{
place = (5,76);
type = Stem;
},
{
place = (36,49);
type = Stem;
}
);
layerId = "DBA80DC6-7182-4C80-9763-30666CA5316C";
shapes = (
{
closed = 1;
nodes = (
(22,463,o),
(5,446,o),
(5,424,cs),
(5,403,o),
(22,386,o),
(43,386,cs),
(64,386,o),
(81,403,o),
(81,424,cs),
(81,446,o),
(64,463,o),
(43,463,cs)
);
},
{
closed = 1;
nodes = (
(39,315,o),
(27,304,o),
(27,284,cs),
(27,249,o),
(36,175,o),
(36,-21,cs),
(36,-95,o),
(35,-166,o),
(31,-221,cs),
(29,-243,o),
(41,-254,o),
(53,-254,cs),
(65,-254,o),
(78,-244,o),
(79,-224,c),
(83,-174,o),
(85,-108,o),
(85,-37,cs),
(85,74,o),
(81,197,o),
(75,283,cs),
(74,304,o),
(62,315,o),
(50,315,cs)
);
}
);
width = 140;
}
);
leftKerningGroup = colon;
unicode = 161;
},
{
glyphname = cent;
layers = (
{
hints = (
{
horizontal = 1;
place = (11,42);
type = Stem;
},
{
place = (22,46);
type = Stem;
},
{
place = (177,47);
type = Stem;
},
{
place = (190,44);
type = Stem;
},
{
place = (295,46);
type = Stem;
}
);
layerId = "DBA80DC6-7182-4C80-9763-30666CA5316C";
shapes = (
{
closed = 1;
nodes = (
(442,256,l),
(434,256,o),
(424,250,o),
(418,237,cs),
(363.83,119.47,o),
(302.07,61.8,o),
(226.53,53.15,c),
(230.35,126.85,o),
(234.01,202.27,o),
(234.01,317,cs),
(234.01,365.15,o),
(233.21,410.12,o),
(231.62,450.49,c),
(272.05,446.57,o),
(295.01,420.1,o),
(295.01,385.98,cs),
(295.01,361.98,o),
(294.01,337.98,o),
(316.01,337.98,cs),
(330.01,337.98,o),
(341.01,354.98,o),
(341.01,385.98,cs),
(341.01,444.94,o),
(297.61,488.52,o),
(229.72,492.66,c),
(228.65,518.58,o),
(226.83,541.94,o),
(225.01,561.98,cs),
(223.01,580.98,o),
(213.01,588.98,o),
(203.01,588.98,cs),
(193.01,588.98,o),
(182.01,579.98,o),
(182.01,562.98,cs),
(182.01,547.47,o),
(184.51,531.96,o),
(186.47,488.37,c),
(106.3,466.28,o),
(22.02,366.75,o),
(22.02,233.97,cs),
(22.02,105.23,o),
(92.05,24.84,o),
(180.35,11.84,c),
(177.87,-22.84,o),
(177.02,-44.58,o),
(177.02,-51.03,cs),
(177.02,-70.03,o),
(187.02,-80.03,o),
(198.02,-80.03,cs),
(209.02,-80.03,o),
(220.02,-71.03,o),
(221.02,-51.03,c),
(222.65,-29.81,o),
(223.62,-9.26,o),
(224.46,10.63,c),
(319.37,17.51,o),
(385.08,78.74,o),
(449.02,200.98,cs),
(461.02,223.98,o),
(461.02,229.98,o),
(461.02,234.98,cs),
(461.02,247.98,o),
(452.02,255.98,o),
(442.02,255.98,c)
);
},
{
closed = 1;
nodes = (
(68.02,341.19,o),
(130.46,421.04,o),
(188.35,444.15,c),
(189.23,413.28,o),
(190.02,372.7,o),
(190.02,320.99,cs),
(190.02,214.21,o),
(186.45,120.83,o),
(182.68,54.34,c),
(120.37,67.03,o),
(68.02,130.68,o),
(68.02,233.98,c)
);
}
);
width = 488;
}
);
unicode = 162;
},
{
glyphname = sterling;
layers = (
{
hints = (
{
horizontal = 1;
place = (-5,43);
type = Stem;
},
{
horizontal = 1;
place = (326,40);
type = Stem;
},
{
horizontal = 1;
place = (634,43);
type = Stem;
},
{
place = (104,46);
type = Stem;
},
{
place = (123,46);
type = Stem;
},
{
place = (370,45);
type = Stem;
}
);
layerId = "DBA80DC6-7182-4C80-9763-30666CA5316C";
shapes = (
{
closed = 1;
nodes = (
(387,158,o),
(376,150,o),
(373,134,cs),
(361,70,o),
(326,38,o),
(289,38,cs),
(251,38,o),
(204,57,o),
(150,80,c),
(168,105,o),
(169,135,o),
(169,182,cs),
(169,220.68,o),
(164.33,273.38,o),
(159.62,326.44,c),
(226,325.99,l),
(243,325.99,o),
(252,335.99,o),
(252,345.99,cs),
(252,355.99,o),
(243,365.99,o),
(226,365.99,c),
(156.12,366.46,l),
(152.73,406.47,o),
(150,444.68,o),
(150,474.99,cs),
(150,583.99,o),
(199,633.99,o),
(277,633.99,cs),
(335,633.99,o),
(370,599.99,o),
(370,562.99,cs),
(370,539.99,o),
(356,510.99,o),
(356,501.99,cs),
(356,487.99,o),
(366,479.99,o),
(376,479.99,cs),
(385,479.99,o),
(395,485.99,o),
(400,498.99,cs),
(409,521.99,o),
(415,544.99,o),
(415,564.99,cs),
(415,623.99,o),
(359,676.99,o),
(277,676.99,cs),
(171,676.99,o),
(104,608.99,o),
(104,474.99,cs),
(104,441.71,o),
(106.54,404.55,o),
(109.76,366.78,c),
(77.99,366.99,l),
(61.99,366.99,o),
(53.99,356.99,o),
(53.99,346.99,cs),
(53.99,336.99,o),
(61.99,326.99,o),
(77.99,326.99,c),
(113.34,326.75,l),
(118.14,274.56,o),
(122.99,223.43,o),
(122.99,182.,cs),
(122.99,99.,o),
(99.99,92.,o),
(46.99,62.,cs),
(30.99,53.,o),
(24.99,41.,o),
(24.99,31.,cs),
(24.99,17.,o),
(34.99,6.,o),
(50.99,6.,cs),
(57.99,6.,o),
(66.99,8.,o),
(75.99,14.,cs),
(93.99,26.,o),
(106.99,39.,o),
(119.99,39.,cs),
(145.99,39.,o),
(213.99,-5.,o),
(291.99,-5.,cs),
(372.99,-5.,o),
(416.99,90.,o),
(416.99,133.,cs),
(416.99,149.,o),
(406.99,158.,o),
(396,158,c)
);
}
);
width = 442;
}
);
unicode = 163;
},
{
glyphname = currency;
layers = (
{
hints = (
{
horizontal = 1;
place = (73,42);
type = Stem;
},
{
horizontal = 1;
place = (481,42);
type = Stem;
},
{
place = (28,46);
type = Stem;
},
{
place = (340,46);
type = Stem;
}
);
layerId = "DBA80DC6-7182-4C80-9763-30666CA5316C";
shapes = (
{
closed = 1;
nodes = (
(386,62,l),
(330.17,132.79,l),
(365.02,173.49,o),
(386,232.49,o),
(386,301.99,cs),
(386,372.9,o),
(366.96,430.65,o),
(334.06,469.31,c),
(372.,517.99,ls),
(377.,524.58,o),
(379.11,531.07,o),
(379.11,536.81,cs),
(379.11,548.51,o),
(370.36,557.09,o),
(359.52,557.09,cs),
(352.28,557.09,o),
(344.11,553.26,o),
(337.,543.98,cs),
(301.2,498.55,l),
(277.1,514.43,o),
(248.67,522.99,o),
(217.,522.99,cs),
(180.89,522.99,o),
(147.8,512.37,o),
(119.75,493.26,c),
(79.,544.98,ls),
(71.89,554.26,o),
(63.72,558.09,o),
(56.48,558.09,cs),
(45.64,558.09,o),
(36.89,549.51,o),
(36.89,537.81,cs),
(36.89,532.07,o),
(39.,525.58,o),
(44.,518.99,cs),
(86.67,464.25,l),
(50.13,423.64,o),
(28.,364.51,o),
(28.,295,cs),
(28.,221.3,o),
(46.55,163.35,o),
(80.23,125.16,c),
(31.,62,ls),
(26.,55.41,o),
(23.89,48.92,o),
(23.89,43.18,cs),
(23.89,31.48,o),
(32.64,22.9,o),
(43.48,22.9,cs),
(50.72,22.9,o),
(58.89,26.73,o),
(66.,36.01,cs),
(113.81,96.69,l),
(138.83,81.18,o),
(168.8,73.01,o),
(203.,73.01,cs),
(238.22,73.01,o),
(270.4,83.7,o),
(297.62,102.97,c),
(350.99,36.01,ls),
(358.41,26.73,o),
(366.79,22.9,o),
(374.14,22.9,cs),
(385.,22.9,o),
(393.62,31.24,o),
(393.62,42.68,cs),
(393.62,48.54,o),
(391.36,55.21,o),
(385.98,61.99,c)
);
},
{
closed = 1;
nodes = (
(121.98,114.99,o),
(73.98,179.99,o),
(73.98,294.99,cs),
(73.98,401.99,o),
(134.98,480.99,o),
(216.98,480.99,cs),
(289.98,480.99,o),
(339.98,409.99,o),
(339.98,301.99,cs),
(339.98,192.99,o),
(281.98,114.99,o),
(202.98,114.99,cs)
);
}
);
width = 418;
}
);
unicode = 164;
},
{
glyphname = yen;
layers = (
{
hints = (
{
horizontal = 1;
place = (-6,21);
target = up;
type = BottomGhost;
},
{
horizontal = 1;
place = (182,38);
type = Stem;
},
{
horizontal = 1;
place = (271,38);
type = Stem;
},
{
place = (161,46);
type = Stem;
}
);
layerId = "DBA80DC6-7182-4C80-9763-30666CA5316C";
shapes = (
{
closed = 1;
nodes = (
(388,645,o),
(377,652,o),
(367,652,cs),
(358,652,o),
(348,646,o),
(340,632,cs),
(290,545,o),
(232,424,o),
(189,333,c),
(135,410,o),
(92,541,o),
(71,631,cs),
(67,648,o),
(57,655,o),
(47,655,cs),
(36,655,o),
(25,647,o),
(25,630,cs),
(25,586.21,o),
(84.38,410.02,o),
(152.95,308.35,c),
(90.,309,l),
(72.,309,o),
(63.,300,o),
(63.,290,cs),
(63.,281,o),
(72.,271,o),
(90.,271,c),
(164.,270.24,l),
(158.27,221.3,l),
(89.99,222,l),
(71.99,222,o),
(62.99,213,o),
(62.99,203,cs),
(62.99,194,o),
(71.99,184,o),
(89.99,184,c),
(153.82,183.34,l),
(138.68,54.3,o),
(134.98,23.71,o),
(134.98,19,cs),
(134.98,2,o),
(144.98,-6,o),
(155.98,-6,cs),
(166.98,-6,o),
(177.98,2,o),
(179.98,19,cs),
(199.89,182.87,l),
(283.98,182,l),
(301.98,182,o),
(309.98,192,o),
(309.98,201,cs),
(309.98,211,o),
(301.98,220,o),
(284.98,220,c),
(204.51,220.83,l),
(210.46,269.76,l),
(283.99,269,l),
(301.99,269,o),
(309.99,279,o),
(309.99,288,cs),
(309.99,298,o),
(301.99,307,o),
(284.99,307,c),
(225.66,307.61,l),
(300.99,467.82,o),
(357.88,570.26,o),
(377.99,605.,cs),
(384.99,617.,o),
(387.99,624.,o),
(388,631,c)
);
}
);
width = 417;
}
);
unicode = 165;
},
{
glyphname = brokenbar;
layers = (
{
hints = (
{
horizontal = 1;
place = (-247,21);
target = up;
type = BottomGhost;
},
{
horizontal = 1;
place = (693,-20);
target = down;
type = TopGhost;
},
{
place = (61,46);
type = Stem;
}
);
layerId = "DBA80DC6-7182-4C80-9763-30666CA5316C";
shapes = (
{
closed = 1;
nodes = (
(96,304,o),
(107,315,o),
(107,335,cs),
(107,456,o),
(102,596,o),
(96,669,cs),
(95,684,o),
(83,693,o),
(72,693,cs),
(62,693,o),
(51,684,o),
(51,667,cs),
(51,621,o),
(61,490,o),
(61,334,cs),
(61,314,o),
(73,304,o),
(84,304,cs)
);
},
{
closed = 1;
nodes = (
(83,-247,o),
(95,-238,o),
(96,-218,cs),
(102,-125,o),
(107,43,o),
(107,110,cs),
(107,131,o),
(96,142,o),
(85,142,cs),
(73,142,o),
(61,131,o),
(61,110,cs),
(61,-26,o),
(50,-201,o),
(50,-219,cs),
(50,-237,o),
(61,-247,o),
(72,-247,cs)
);
}
);
width = 157;
}
);
unicode = 166;
},
{
glyphname = section;
layers = (
{
hints = (
{
horizontal = 1;
place = (-6,43);
type = Stem;
},
{
horizontal = 1;
place = (605,43);
type = Stem;
},
{
place = (51,44);
type = Stem;
},
{
place = (70,45);
type = Stem;
},
{
place = (79,45);
type = Stem;
},
{
place = (248,45);
type = Stem;
},
{
place = (260,45);
type = Stem;
}
);
layerId = "DBA80DC6-7182-4C80-9763-30666CA5316C";
shapes = (
{
closed = 1;
nodes = (
(305,435,o),
(124,468,o),
(124,558,cs),
(124,584,o),
(145,605,o),
(184,605,cs),
(212,605,o),
(234,595,o),
(256,569,cs),
(263,561,o),
(270,557,o),
(277,557,cs),
(287,557,o),
(295,565,o),
(295,577,cs),
(295,583,o),
(293,589,o),
(288,596,cs),
(262,631,o),
(224,648,o),
(183,648,cs),
(119,648,o),
(79,608,o),
(79,558,cs),
(79,516.04,o),
(99.73,486.1,o),
(127.16,460.71,c),
(90.79,437.48,o),
(70.01,407.78,o),
(70.01,367,cs),
(70.01,252,o),
(248.01,223,o),
(248.01,116,cs),
(248.01,63,o),
(223.01,37,o),
(179.01,37,cs),
(128.01,37,o),
(95.01,70,o),
(95.01,112,cs),
(95.01,121,o),
(98.01,139,o),
(98.01,148,cs),
(98.01,160,o),
(90.01,166,o),
(80.01,166,cs),
(57.01,166,o),
(51.01,137,o),
(51.01,110,cs),
(51.01,43,o),
(101.01,-6,o),
(179.01,-6,cs),
(248.01,-6,o),
(293.01,40,o),
(293.01,108,cs),
(293.01,148.26,o),
(279.47,179.47,o),
(259.86,205.39,c),
(287.14,236.39,o),
(305.01,273.27,o),
(305,313,c)
);
},
{
closed = 1;
nodes = (
(115.01,396.19,o),
(132.09,417.4,o),
(160.09,433.67,c),
(208.25,397.27,o),
(260.01,365.22,o),
(260.01,308.,cs),
(260.01,279.44,o),
(250.69,256.87,o),
(232.05,235.95,c),
(180.52,284.52,o),
(115.02,315.22,o),
(115.01,368,c)
);
}
);
width = 357;
}
);
unicode = 167;
},
{
glyphname = dieresis;
layers = (
{
hints = (
{
horizontal = 1;
place = (767,60);
type = Stem;
},
{
place = (24,60);
type = Stem;
},
{
place = (155,60);
type = Stem;
}
);
layerId = "DBA80DC6-7182-4C80-9763-30666CA5316C";
shapes = (
{
closed = 1;
nodes = (
(71,767,o),
(84,780,o),
(84,797,cs),
(84,814,o),
(71,827,o),
(54,827,cs),
(37,827,o),
(24,814,o),
(24,797,cs),
(24,780,o),
(37,767,o),
(54,767,cs)
);
},
{
closed = 1;
nodes = (
(202,767,o),
(215,780,o),
(215,797,cs),
(215,814,o),
(202,827,o),
(185,827,cs),
(168,827,o),
(155,814,o),
(155,797,cs),
(155,780,o),
(168,767,o),
(185,767,cs)
);
}
);
width = 248;
}
);
unicode = 168;
},
{
glyphname = copyright;
layers = (
{
hints = (
{
horizontal = 1;
place = (74,38);
type = Stem;
},
{
horizontal = 1;
place = (184,38);
type = Stem;
},
{
horizontal = 1;
place = (428,38);
type = Stem;
},
{
horizontal = 1;
place = (536,38);
type = Stem;
},
{
place = (20,40);
type = Stem;
},
{
place = (153,40);
type = Stem;
},
{
place = (310,38);
type = Stem;
},
{
place = (476,40);
type = Stem;
}
);
layerId = "DBA80DC6-7182-4C80-9763-30666CA5316C";
shapes = (
{
closed = 1;
nodes = (
(133,574,o),
(20,459,o),
(20,303,cs),
(20,162,o),
(110,74,o),
(263,74,cs),
(406,74,o),
(516,184,o),
(516,342,cs),
(516,488,o),
(429,574,o),
(282,574,cs)
);
},
{
closed = 1;
nodes = (
(406,536,o),
(476,466,o),
(476,341,cs),
(476,206,o),
(383,112,o),
(265,112,cs),
(133,112,o),
(60,185,o),
(60,303,cs),
(60,438,o),
(155,536,o),
(282,536,cs)
);
},
{
closed = 1;
nodes = (
(327,240,o),
(305,222,o),
(269,222,cs),
(223,222,o),
(193,252,o),
(193,319,cs),
(193,389,o),
(232,428,o),
(275,428,cs),
(299,428,o),
(310,417,o),
(310,398,cs),
(310,382,o),
(319,375,o),
(329,375,cs),
(338,375,o),
(348,383,o),
(348,398,cs),
(348,438,o),
(319,466,o),
(275,466,cs),
(210,466,o),
(153,408,o),
(153,319,cs),
(153,231,o),
(201,184,o),
(265,184,cs),
(315,184,o),
(350,211,o),
(377,245,cs),
(385,255,o),
(387,262,o),
(387,267,cs),
(387,276,o),
(381,281,o),
(373,281,cs),
(367,281,o),
(360,278,o),
(353,270,cs)
);
}
);
width = 541;
}
);
unicode = 169;
},
{
glyphname = guillemotleft;
layers = (
{
hints = (
{
horizontal = 1;
place = (404,-20);
target = down;
type = TopGhost;
},
{
horizontal = 1;
place = (405,-20);
target = down;
type = TopGhost;
},
{
place = (35,51);
type = Stem;
},
{
place = (35,260);
type = Stem;
},
{
place = (170,51);
type = Stem;
}
);
layerId = "DBA80DC6-7182-4C80-9763-30666CA5316C";
shapes = (
{
closed = 1;
nodes = (
(292.5,181.5,o),
(294.75,186.25,o),
(294.75,191.75,cs),
(294.75,197.25,o),
(292.5,203.5,o),
(287,210,cs),
(267,234,o),
(248,258,o),
(228,282,cs),
(223.62,287.36,o),
(221.37,292.72,o),
(221.37,298.08,cs),
(221.37,303.72,o),
(223.87,309.36,o),
(229,315,cs),
(246,333,o),
(263,351,o),
(281,369,cs),
(288.38,376.38,o),
(291.25,383.44,o),
(291.25,389.26,cs),
(291.25,393.69,o),
(289.59,397.4,o),
(287,399.99,cs),
(284.02,402.97,o),
(280.13,404.5,o),
(275.87,404.5,cs),
(270.14,404.5,o),
(263.74,401.73,o),
(258.,395.99,cs),
(178.,315.99,ls),
(172.61,310.6,o),
(169.83,305.21,o),
(169.83,299.5,cs),
(169.83,294.63,o),
(171.85,289.53,o),
(176.,284.,cs),
(202.,250.,o),
(228.,218.,o),
(256.,186.,cs),
(263.38,177.39,o),
(271.14,173.32,o),
(277.88,173.32,cs),
(282.1,173.32,o),
(285.92,174.92,o),
(289,178,cs)
);
},
{
closed = 1;
nodes = (
(153.,177.,l),
(157.1,179.57,o),
(159.63,184.77,o),
(159.63,190.98,cs),
(159.63,196.87,o),
(157.36,203.67,o),
(152.,210,cs),
(132.,234,o),
(113.,258,o),
(93.,282,cs),
(88.62,287.36,o),
(86.37,292.72,o),
(86.37,298.08,cs),
(86.37,303.72,o),
(88.87,309.36,o),
(94.,315,cs),
(111.,333,o),
(128.,351,o),
(146.,369,cs),
(153.37,376.37,o),
(156.59,383.74,o),
(156.59,389.72,cs),
(156.59,393.48,o),
(155.32,396.69,o),
(153.,399.01,cs),
(149.7,402.31,o),
(145.28,404.28,o),
(140.38,404.28,cs),
(134.9,404.28,o),
(128.81,401.82,o),
(123.,396.01,cs),
(43.,316.01,ls),
(37.61,310.62,o),
(34.83,305.23,o),
(34.83,299.52,cs),
(34.83,294.65,o),
(36.85,289.55,o),
(41.,284.02,cs),
(67.,250.02,o),
(95.,220.02,o),
(121.,186.02,cs),
(127.89,177.26,o),
(135.56,173.98,o),
(142.3,173.98,cs),
(146.33,173.98,o),
(150.02,175.15,o),
(153.02,177.02,c)
);
}
);
width = 310;
}
);
leftKerningGroup = guillemotleft2;
rightKerningGroup = guillemotleft;
unicode = 171;
},
{
glyphname = logicalnot;
layers = (
{
hints = (
{
horizontal = 1;
place = (316,42);
type = Stem;
},
{
place = (272,40);
type = Stem;
}
);
layerId = "DBA80DC6-7182-4C80-9763-30666CA5316C";
shapes = (
{
closed = 1;
nodes = (
(312,345,ls),
(312,353,o),
(307,358,o),
(299,358,cs),
(51,358,ls),
(34,358,o),
(26,347,o),
(26,337,cs),
(26,326,o),
(34,316,o),
(51,316,cs),
(259,316,ls),
(267,316,o),
(272,311,o),
(272,303,cs),
(272,251,ls),
(272,235,o),
(282,227,o),
(292,227,cs),
(302,227,o),
(312,235,o),
(312,251,cs)
);
}
);
width = 337;
}
);
unicode = 172;
},
{
glyphname = uni00AD;
layers = (
{
hints = (
{
horizontal = 1;
place = (215,38);
type = Stem;
},
{
place = (100,215);
type = Stem;
}
);
layerId = "DBA80DC6-7182-4C80-9763-30666CA5316C";
shapes = (
{
closed = 1;
nodes = (
(306,213,o),
(315,223,o),
(315,232,cs),
(315,242,o),
(306,251,o),
(288,251,c),
(233,252,o),
(174,253,o),
(127,253,cs),
(109,253,o),
(100,243,o),
(100,234,cs),
(100,224,o),
(109,215,o),
(127,215,cs),
(177,215,o),
(235,214,o),
(288,213,c)
);
}
);
width = 390;
}
);
leftKerningGroup = endash;
unicode = 173;
},
{
glyphname = registered;
layers = (
{
hints = (
{
horizontal = 1;
place = (302,36);
type = Stem;
},
{
horizontal = 1;
place = (470,28);
type = Stem;
},
{
horizontal = 1;
place = (552,28);
type = Stem;
},
{
horizontal = 1;
place = (628,36);
type = Stem;
},
{
place = (21,38);
type = Stem;
},
{
place = (145,30);
type = Stem;
},
{
place = (225,30);
type = Stem;
},
{
place = (339,38);
type = Stem;
}
);
layerId = "DBA80DC6-7182-4C80-9763-30666CA5316C";
shapes = (
{
closed = 1;
nodes = (
(103,664,o),
(21,581,o),
(21,468,cs),
(21,370,o),
(91,302,o),
(193,302,cs),
(298,302,o),
(377,387,o),
(377,496,cs),
(377,596,o),
(311,664,o),
(212,664,cs)
);
},
{
closed = 1;
nodes = (
(111,338,o),
(59,390,o),
(59,468,cs),
(59,559,o),
(123,628,o),
(212,628,cs),
(291,628,o),
(339,576,o),
(339,496,cs),
(339,406,o),
(278,338,o),
(193,338,cs)
);
},
{
closed = 1;
nodes = (
(226.78,476.65,l),
(245.59,486.6,o),
(255,506.3,o),
(255,526.,cs),
(255,553.,o),
(236,580.,o),
(200,580.,cs),
(183,580.,o),
(169,575.,o),
(151,565.,c),
(145,417.,l),
(145,405.,o),
(152,399.,o),
(159,399.,cs),
(166,399.,o),
(173,404.,o),
(174,415.,c),
(177.08,473.49,l),
(184.29,471.44,o),
(191.59,470.13,o),
(197.16,470.01,c),
(202.52,454.59,o),
(211.59,426.76,o),
(229.,404.99,cs),
(234.,398.99,o),
(239.,395.99,o),
(244.,395.99,cs),
(252.,395.99,o),
(258.,401.99,o),
(258.,409.99,cs),
(258.,413.99,o),
(257.,417.99,o),
(254.,421.99,cs),
(240.75,439.65,o),
(233.75,454.19,o),
(226.78,476.63,c)
);
},
{
closed = 1;
nodes = (
(181.,547.98,l),
(187.,550.98,o),
(193.,551.98,o),
(200.,551.98,cs),
(217.,551.98,o),
(225.,538.98,o),
(225.,525.98,cs),
(225.,511.98,o),
(216.,497.98,o),
(198.,497.98,cs),
(192.86,497.98,o),
(184.41,498.81,o),
(178.5,500.46,c)
);
}
);
width = 401;
}
);
unicode = 174;
},
{
glyphname = macron;
layers = (
{
hints = (
{
horizontal = 1;
place = (777,38);
type = Stem;
},
{
place = (33,193);
type = Stem;
}
);
layerId = "DBA80DC6-7182-4C80-9763-30666CA5316C";
shapes = (
{
closed = 1;
nodes = (
(201,777,l),
(217.5,777,o),
(225.75,786.5,o),
(225.75,796,cs),
(225.75,805.5,o),
(217.5,815,o),
(201,815,c),
(60,817,ls),
(42,817.5,o),
(33,808.25,o),
(33,798.75,cs),
(33,789.25,o),
(42,779.5,o),
(60,779,cs)
);
}
);
width = 256;
}
);
unicode = 175;
},
{
glyphname = degree;
layers = (
{
hints = (
{
horizontal = 1;
place = (484,39);
type = Stem;
},
{
horizontal = 1;
place = (624,39);
type = Stem;
},
{
place = (24,41);
type = Stem;
},
{
place = (168,40);
type = Stem;
}
);
layerId = "DBA80DC6-7182-4C80-9763-30666CA5316C";
shapes = (
{
closed = 1;
nodes = (
(172,484,o),
(208,537,o),
(208,585,cs),
(208,625,o),
(183,663,o),
(128,663,cs),
(61,663,o),
(24,610,o),
(24,563,cs),
(24,522,o),
(51,484,o),
(107,484,cs)
);
},
{
closed = 1;
nodes = (
(79,523,o),
(65,543,o),
(65,565,cs),
(65,593,o),
(87,624,o),
(125,624,cs),
(155,624,o),
(168,605,o),
(168,584,cs),
(168,556,o),
(146,523,o),
(110,523,cs)
);
}
);
width = 233;
}
);
unicode = 176;
},
{
glyphname = plusminus;
layers = (
{
hints = (
{
horizontal = 1;
place = (182,39);
type = Stem;
},
{
horizontal = 1;
place = (342,39);
type = Stem;
},
{
place = (183,41);
type = Stem;
}
);
layerId = "DBA80DC6-7182-4C80-9763-30666CA5316C";
shapes = (
{
closed = 1;
nodes = (
(183,342,l),
(183,282,ls),
(183,264,o),
(193,255,o),
(204,255,cs),
(214,255,o),
(224,264,o),
(224,282,cs),
(224,342,l),
(302,342,ls),
(321,342,o),
(331,352,o),
(331,362,cs),
(331,371,o),
(321,381,o),
(302,381,cs),
(224,381,l),
(224,456,ls),
(224,475,o),
(214,485,o),
(204,485,cs),
(193,485,o),
(183,475,o),
(183,456,cs),
(183,381,l),
(103,381,ls),
(84,381,o),
(75,371,o),
(75,362,cs),
(75,352,o),
(84,342,o),
(103,342,cs)
);
},
{
closed = 1;
nodes = (
(103,221,ls),
(84,221,o),
(75,211,o),
(75,202,cs),
(75,192,o),
(84,182,o),
(103,182,cs),
(302,182,ls),
(321,182,o),
(331,192,o),
(331,202,cs),
(331,211,o),
(321,221,o),
(302,221,cs)
);
}
);
width = 356;
}
);
unicode = 177;
},
{
glyphname = uni00B2;
layers = (
{
hints = (
{
horizontal = 1;
place = (380,33);
type = Stem;
},
{
horizontal = 1;
place = (668,34);
type = Stem;
},
{
place = (51,33);
type = Stem;
},
{
place = (168,36);
type = Stem;
}
);
layerId = "DBA80DC6-7182-4C80-9763-30666CA5316C";
shapes = (
{
closed = 1;
nodes = (
(218,380,o),
(246,420,o),
(246,437,cs),
(246,446,o),
(239,452,o),
(231,452,cs),
(225,452,o),
(218,449,o),
(213,440,cs),
(202,420,o),
(186,413,o),
(172,413,cs),
(154,413,o),
(135,423,o),
(120,427,c),
(171,478,o),
(204,549,o),
(204,616,cs),
(204,670,o),
(170,702,o),
(127,702,cs),
(89,702,o),
(51,675,o),
(51,620,cs),
(51,607,o),
(60,600,o),
(68,600,cs),
(76,600,o),
(84,606,o),
(84,620,cs),
(84,652,o),
(104,668,o),
(125,668,cs),
(151,668,o),
(168,651,o),
(168,616,cs),
(168,548,o),
(127,472,o),
(82,438,cs),
(74,432,o),
(68,429,o),
(59,425,cs),
(48,420,o),
(43,412,o),
(43,404,cs),
(43,395,o),
(49,387,o),
(62,387,cs),
(76,387,o),
(88,397,o),
(98,397,cs),
(119,397,o),
(141,380,o),
(176,380,cs)
);
}
);
width = 292;
}
);
unicode = 178;
},
{
glyphname = uni00B3;
layers = (
{
hints = (
{
horizontal = 1;
place = (382,33);
type = Stem;
},
{
horizontal = 1;
place = (667,33);
type = Stem;
},
{
place = (49,32);
type = Stem;
},
{
place = (158,36);
type = Stem;
},
{
place = (182,36);
type = Stem;
}
);
layerId = "DBA80DC6-7182-4C80-9763-30666CA5316C";
shapes = (
{
closed = 1;
nodes = (
(158.72,565.22,l),
(181.21,581.2,o),
(194.01,605.6,o),
(194.01,630.,cs),
(194.01,672.,o),
(165.01,700.,o),
(125.01,700.,cs),
(79.01,700.,o),
(49.01,669.,o),
(49.01,619.,cs),
(49.01,605.,o),
(57.01,598.,o),
(65.01,598.,cs),
(73.01,598.,o),
(81.01,605.,o),
(81.01,618.,cs),
(81.01,648.,o),
(100.01,667.,o),
(124.01,667.,cs),
(144.01,667.,o),
(158.01,653.,o),
(158.01,629.,cs),
(158.01,604.,o),
(146.01,583.,o),
(117.01,574.,cs),
(107.01,571.,o),
(103.01,564.,o),
(103.01,558.,cs),
(103.01,550.,o),
(110.01,542.,o),
(121.01,542.,cs),
(162.01,542.,o),
(182.01,512.,o),
(182.01,480.,cs),
(182.01,448.,o),
(162.01,415.,o),
(124.01,415.,cs),
(102.01,415.,o),
(84.01,426.,o),
(73.01,444.,cs),
(68.01,452.,o),
(62.01,455.,o),
(56.01,455.,cs),
(47.01,455.,o),
(40.01,448.,o),
(40.01,439.,cs),
(40.01,413.,o),
(79.01,382.,o),
(124.01,382.,cs),
(184.01,382.,o),
(218.01,433.,o),
(218.01,482.,cs),
(218.01,517.54,o),
(197.24,550.94,o),
(158.73,565.22,c)
);
}
);
width = 261;
}
);
unicode = 179;
},
{
glyphname = acute;
layers = (
{
hints = (
{
horizontal = 1;
place = (765,108);
type = Stem;
},
{
place = (39,104);
type = Stem;
}
);
layerId = "DBA80DC6-7182-4C80-9763-30666CA5316C";
shapes = (
{
closed = 1;
nodes = (
(48,802,ls),
(41.41,795.14,o),
(38.66,788.05,o),
(38.66,781.92,cs),
(38.66,772.03,o),
(45.8,764.61,o),
(55.49,764.61,cs),
(61.68,764.61,o),
(68.92,767.64,o),
(76.,775,cs),
(133.,835,ls),
(139.9,842.46,o),
(142.76,849.84,o),
(142.76,856.07,cs),
(142.76,865.82,o),
(135.76,872.75,o),
(126.26,872.75,cs),
(119.85,872.75,o),
(112.3,869.59,o),
(105.01,862,cs)
);
}
);
width = 182;
}
);
unicode = 180;
},
{
glyphname = paragraph;
layers = (
{
hints = (
{
horizontal = 1;
place = (-6,43);
type = Stem;
},
{
horizontal = 1;
place = (577,43);
type = Stem;
},
{
horizontal = 1;
place = (607,53);
type = Stem;
},
{
place = (30,174);
type = Stem;
},
{
place = (287,40);
type = Stem;
}
);
layerId = "DBA80DC6-7182-4C80-9763-30666CA5316C";
shapes = (
{
closed = 1;
nodes = (
(427,623,l),
(419,623,o),
(412,620,o),
(397,620,cs),
(329,620,o),
(266,660,o),
(177,660,cs),
(89,660,o),
(30,602,o),
(30,431,cs),
(30,290,o),
(64,255,o),
(119,255,cs),
(172,255,o),
(204,287,o),
(204,435,cs),
(204,593,o),
(217,607,o),
(239,607,cs),
(252.95,607,o),
(267.61,601.64,o),
(287.07,595.45,c),
(286.77,548.95,o),
(278.79,335.59,o),
(276.,264,cs),
(270.,117,o),
(225.,37,o),
(168.,37,cs),
(136.,37,o),
(108.,57,o),
(96.,116,cs),
(93.,131,o),
(83.,139,o),
(73.,139,cs),
(63.,139,o),
(53.,130,o),
(53.,113,cs),
(53.,54,o),
(102.,-6,o),
(167.,-6,cs),
(255.,-6,o),
(315.,85,o),
(322.,262,cs),
(324.58,328.21,o),
(331.6,517.18,o),
(332.88,583.44,c),
(352.36,579.68,o),
(375.59,577.,o),
(404.01,577.,cs),
(428.01,577.,o),
(450.01,584.,o),
(450.01,604.,cs),
(450.01,614.,o),
(442.01,623.,o),
(427.01,623.,c)
);
}
);
width = 400;
}
);
unicode = 182;
},
{
glyphname = periodcentered;
layers = (
{
hints = (
{
horizontal = 1;
place = (270,81);
type = Stem;
},
{
place = (30,80);
type = Stem;
}
);
layerId = "DBA80DC6-7182-4C80-9763-30666CA5316C";
shapes = (
{
closed = 1;
nodes = (
(92,270,o),
(110,288,o),
(110,311,cs),
(110,333,o),
(92,351,o),
(70,351,cs),
(48,351,o),
(30,333,o),
(30,311,cs),
(30,288,o),
(48,270,o),
(70,270,cs)
);
}
);
width = 140;
}
);
unicode = 183;
},
{
glyphname = cedilla;
layers = (
{
hints = (
{
horizontal = 1;
place = (-178,38);
type = Stem;
},
{
place = (81,37);
type = Stem;
},
{
place = (125,42);
type = Stem;
}
);
layerId = "DBA80DC6-7182-4C80-9763-30666CA5316C";
shapes = (
{
closed = 1;
nodes = (
(46,-166,l),
(61,-174,o),
(78,-178,o),
(95,-178,cs),
(139,-178,o),
(167,-148,o),
(167,-116,cs),
(167,-98,o),
(158,-79,o),
(139,-65,cs),
(124,-54,o),
(118,-49,o),
(118,-44,cs),
(118,-37,o),
(127,-12,o),
(131,-1,cs),
(135.62,11.12,o),
(128.25,18.91,o),
(119.27,18.91,cs),
(112.69,18.91,o),
(105.24,14.73,o),
(101.01,5,cs),
(91.01,-18,o),
(81.01,-45,o),
(81.01,-56,cs),
(81.01,-62,o),
(86.01,-68,o),
(103.01,-80,cs),
(118.01,-91,o),
(125.01,-101,o),
(125.01,-112,cs),
(125.01,-128,o),
(112.01,-140,o),
(93.01,-140,cs),
(83.01,-140,o),
(71.01,-137,o),
(58.01,-130,cs),
(54.21,-128.02,o),
(50.69,-127.15,o),
(47.54,-127.15,cs),
(37.93,-127.15,o),
(31.78,-135.21,o),
(31.78,-144.46,cs),
(31.78,-152.13,o),
(36.01,-160.62,o),
(46.01,-166.,c)
);
}
);
width = 199;
}
);
unicode = 184;
},
{
glyphname = uni00B9;
layers = (
{
hints = (
{
horizontal = 1;
place = (700,-20);
target = down;
type = TopGhost;
},
{
place = (101,34);
type = Stem;
}
);
layerId = "DBA80DC6-7182-4C80-9763-30666CA5316C";
shapes = (
{
closed = 1;
nodes = (
(118,398,o),
(126,407,o),
(128,424,cs),
(134,475,o),
(135,544,o),
(135,604,cs),
(135,631,o),
(135,659,o),
(134,677,cs),
(133,693,o),
(126,700,o),
(117,700,cs),
(109,700,o),
(101,694,o),
(96,682,cs),
(87,660,o),
(80,639,o),
(53,619,cs),
(45,613,o),
(42,607,o),
(42,601,cs),
(42,593,o),
(48,587,o),
(57,587,cs),
(70,587,o),
(92,608,o),
(101,626,c),
(101,480,o),
(90,432,o),
(90,422,cs),
(90,406,o),
(99,398,o),
(108,398,cs)
);
}
);
width = 182;
}
);
unicode = 185;
},
{
glyphname = guillemotright;
layers = (
{
hints = (
{
horizontal = 1;
place = (404,-20);
target = down;
type = TopGhost;
},
{
horizontal = 1;
place = (405,-20);
target = down;
type = TopGhost;
},
{
place = (25,260);
type = Stem;
},
{
place = (99,51);
type = Stem;
},
{
place = (234,51);
type = Stem;
}
);
layerId = "DBA80DC6-7182-4C80-9763-30666CA5316C";
shapes = (
{
closed = 1;
nodes = (
(34.08,174.92,o),
(37.9,173.32,o),
(42.12,173.32,cs),
(48.86,173.32,o),
(56.62,177.39,o),
(64.,186,cs),
(92.,218,o),
(118.,250,o),
(144.,284,cs),
(148.15,289.53,o),
(150.17,294.63,o),
(150.17,299.5,cs),
(150.17,305.21,o),
(147.39,310.6,o),
(142.,315.99,cs),
(62.,395.99,ls),
(56.26,401.73,o),
(49.86,404.5,o),
(44.13,404.5,cs),
(39.87,404.5,o),
(35.98,402.97,o),
(33.,399.99,cs),
(30.41,397.4,o),
(28.75,393.69,o),
(28.75,389.26,cs),
(28.75,383.44,o),
(31.62,376.38,o),
(39.,369.,cs),
(57.,351.,o),
(74.,333.,o),
(91.,315.,cs),
(96.13,309.36,o),
(98.63,303.72,o),
(98.63,298.08,cs),
(98.63,292.72,o),
(96.38,287.36,o),
(92.,282.,cs),
(72.,258.,o),
(53.,234.,o),
(33.,210.,cs),
(27.5,203.5,o),
(25.25,197.25,o),
(25.25,191.75,cs),
(25.25,186.25,o),
(27.5,181.5,o),
(31,178,cs)
);
},
{
closed = 1;
nodes = (
(167.,177.,l),
(169.96,174.78,o),
(173.6,173.52,o),
(177.57,173.52,cs),
(184.34,173.52,o),
(192.06,177.18,o),
(198.99,186.,cs),
(224.99,220.,o),
(252.99,250.,o),
(278.99,284.,cs),
(283.14,289.53,o),
(285.16,294.63,o),
(285.16,299.5,cs),
(285.16,305.21,o),
(282.38,310.6,o),
(276.99,315.99,cs),
(196.99,395.99,ls),
(191.18,401.8,o),
(185.09,404.26,o),
(179.61,404.26,cs),
(174.71,404.26,o),
(170.29,402.29,o),
(166.99,398.99,cs),
(164.67,396.67,o),
(163.4,393.46,o),
(163.4,389.7,cs),
(163.4,383.72,o),
(166.62,376.35,o),
(173.99,368.98,cs),
(191.99,350.98,o),
(208.99,332.98,o),
(225.99,314.98,cs),
(231.12,309.34,o),
(233.62,303.7,o),
(233.62,298.06,cs),
(233.62,292.7,o),
(231.37,287.34,o),
(226.99,281.98,cs),
(206.99,257.98,o),
(187.99,233.98,o),
(167.99,209.98,cs),
(162.63,203.65,o),
(160.36,197.08,o),
(160.36,191.31,cs),
(160.36,185.23,o),
(162.89,180.05,o),
(166.99,176.97,c)
);
}
);
width = 310;
}
);
leftKerningGroup = guillemotright;
unicode = 187;
},
{
glyphname = onequarter;
layers = (
{
hints = (
{
horizontal = 1;
place = (-3,21);
target = up;
type = BottomGhost;
},
{
horizontal = 1;
place = (0,21);
target = up;
type = BottomGhost;
},
{
horizontal = 1;
place = (125,32);
type = Stem;
},
{
place = (117,34);
type = Stem;
},
{
place = (342,37);
type = Stem;
},
{
place = (422,36);
type = Stem;
},
{
place = (432,46);
type = Stem;
}
);
layerId = "DBA80DC6-7182-4C80-9763-30666CA5316C";
shapes = (
{
closed = 1;
nodes = (
(439,651,o),
(432,658,o),
(423,658,cs),
(416,658,o),
(407,654,o),
(398,643,cs),
(288,508,o),
(140,160,o),
(51,35,cs),
(46,28,o),
(44,21,o),
(44,15,cs),
(44,5,o),
(51,-3,o),
(61,-3,cs),
(68,-3,o),
(78,2,o),
(85,12,cs),
(187,158,o),
(310,467,o),
(428,615,cs),
(436,625,o),
(439,634,o),
(439,641,cs)
);
},
{
closed = 1;
nodes = (
(86,543,o),
(108,564,o),
(117,582,c),
(117,436,o),
(106,388,o),
(106,378,cs),
(106,362,o),
(115,354,o),
(124,354,cs),
(134,354,o),
(142,363,o),
(144,380,cs),
(150,431,o),
(151,500,o),
(151,560,cs),
(151,587,o),
(151,615,o),
(150,633,cs),
(149,649,o),
(142,656,o),
(133,656,cs),
(125,656,o),
(117,650,o),
(112,638,cs),
(103,616,o),
(96,595,o),
(69,575,cs),
(61,569,o),
(58,563,o),
(58,557,cs),
(58,549,o),
(64,543,o),
(73,543,cs)
);
},
{
closed = 1;
nodes = (
(489.04,142.99,o),
(477.85,146.31,o),
(467.07,148.97,c),
(472.86,206.55,o),
(478.,229.84,o),
(478.,239.,cs),
(478.,253.,o),
(470.,259.,o),
(462.,259.,cs),
(454.,259.,o),
(445.,252.,o),
(442.,236.,cs),
(439.22,220.9,o),
(435.49,189.68,o),
(432.01,155.41,c),
(422.77,156.47,o),
(413.52,157,o),
(404.01,157,cs),
(391.01,157,o),
(377.01,156,o),
(363.01,154,c),
(372.01,189,o),
(379.01,222,o),
(379.01,258,cs),
(379.01,290,o),
(377.01,321,o),
(357.01,321,cs),
(349.01,321,o),
(340.01,314,o),
(340.01,301,cs),
(340.01,292.43,o),
(342.21,276.51,o),
(342.21,257.65,cs),
(342.21,219.96,o),
(337.21,171.85,o),
(323.01,150.,cs),
(319.01,144.,o),
(317.01,138.,o),
(317.01,133.,cs),
(317.01,122.,o),
(325.01,115.,o),
(338.01,115.,cs),
(352.01,115.,o),
(370.01,125.,o),
(406.01,125.,cs),
(414.15,125.,o),
(421.78,124.43,o),
(428.91,123.49,c),
(425.01,81.24,o),
(422.01,40.36,o),
(422.01,24.01,cs),
(422.01,9.01,o),
(431.01,0.01,o),
(440.01,0.01,cs),
(448.01,0.01,o),
(457.01,8.01,o),
(458.01,26.01,cs),
(459.86,61.16,o),
(461.92,90.7,o),
(464.,115.51,c),
(479.25,110.76,o),
(490.5,106.01,o),
(498.,106.01,cs),
(509.,106.01,o),
(514.,113.01,o),
(514.,121.01,cs),
(514.,128.01,o),
(510.,136.01,o),
(501,139,cs)
);
}
);
width = 567;
}
);
unicode = 188;
},
{
glyphname = onehalf;
layers = (
{
hints = (
{
horizontal = 1;
place = (-2,33);
type = Stem;
},
{
horizontal = 1;
place = (286,34);
type = Stem;
},
{
place = (116,34);
type = Stem;
},
{
place = (312,33);
type = Stem;
},
{
place = (429,36);
type = Stem;
}
);
layerId = "DBA80DC6-7182-4C80-9763-30666CA5316C";
shapes = (
{
closed = 1;
nodes = (
(187,158,o),
(310,467,o),
(428,615,cs),
(436,625,o),
(439,634,o),
(439,641,cs),
(439,651,o),
(432,658,o),
(423,658,cs),
(416,658,o),
(407,654,o),
(398,643,cs),
(288,508,o),
(140,160,o),
(51,35,cs),
(46,28,o),
(44,21,o),
(44,15,cs),
(44,5,o),
(51,-3,o),
(61,-3,cs),
(68,-3,o),
(78,2,o),
(85,12,cs)
);
},
{
closed = 1;
nodes = (
(133,356,o),
(141,365,o),
(143,382,cs),
(149,433,o),
(150,502,o),
(150,562,cs),
(150,589,o),
(150,617,o),
(149,635,cs),
(148,651,o),
(141,658,o),
(132,658,cs),
(124,658,o),
(116,652,o),
(111,640,cs),
(102,618,o),
(95,597,o),
(68,577,cs),
(60,571,o),
(57,565,o),
(57,559,cs),
(57,551,o),
(63,545,o),
(72,545,cs),
(85,545,o),
(107,566,o),
(116,584,c),
(116,438,o),
(105,390,o),
(105,380,cs),
(105,364,o),
(114,356,o),
(123,356,cs)
);
},
{
closed = 1;
nodes = (
(479,-2,o),
(507,38,o),
(507,55,cs),
(507,64,o),
(500,70,o),
(492,70,cs),
(486,70,o),
(479,67,o),
(474,58,cs),
(463,38,o),
(447,31,o),
(433,31,cs),
(415,31,o),
(396,41,o),
(381,45,c),
(432,96,o),
(465,167,o),
(465,234,cs),
(465,288,o),
(431,320,o),
(388,320,cs),
(350,320,o),
(312,293,o),
(312,238,cs),
(312,225,o),
(321,218,o),
(329,218,cs),
(337,218,o),
(345,224,o),
(345,238,cs),
(345,270,o),
(365,286,o),
(386,286,cs),
(412,286,o),
(429,269,o),
(429,234,cs),
(429,166,o),
(388,90,o),
(343,56,cs),
(335,50,o),
(329,47,o),
(320,43,cs),
(309,38,o),
(304,30,o),
(304,22,cs),
(304,13,o),
(310,5,o),
(323,5,cs),
(337,5,o),
(349,15,o),
(359,15,cs),
(380,15,o),
(402,-2,o),
(437,-2,cs)
);
}
);
width = 552;
}
);
unicode = 189;
},
{
glyphname = threequarters;
layers = (
{
hints = (
{
horizontal = 1;
place = (-3,21);
target = up;
type = BottomGhost;
},
{
horizontal = 1;
place = (130,32);
type = Stem;
},
{
horizontal = 1;
place = (338,33);
type = Stem;
},
{
horizontal = 1;
place = (623,33);
type = Stem;
},
{
place = (50,32);
type = Stem;
},
{
place = (159,36);
type = Stem;
},
{
place = (183,36);
type = Stem;
},
{
place = (384,37);
type = Stem;
},
{
place = (464,36);
type = Stem;
},
{
place = (474,46);
type = Stem;
}
);
layerId = "DBA80DC6-7182-4C80-9763-30666CA5316C";
shapes = (
{
closed = 1;
nodes = (
(479,651,o),
(472,658,o),
(463,658,cs),
(456,658,o),
(447,654,o),
(438,643,cs),
(328,508,o),
(180,160,o),
(91,35,cs),
(86,28,o),
(84,21,o),
(84,15,cs),
(84,5,o),
(91,-3,o),
(101,-3,cs),
(108,-3,o),
(118,2,o),
(125,12,cs),
(227,158,o),
(350,467,o),
(468,615,cs),
(476,625,o),
(479,634,o),
(479,641,cs)
);
},
{
closed = 1;
nodes = (
(219,438,l),
(219,473.54,o),
(198.23,506.94,o),
(159.72,521.22,c),
(182.21,537.2,o),
(195.01,561.6,o),
(195.01,586.,cs),
(195.01,628.,o),
(166.01,656.,o),
(126.01,656.,cs),
(80.01,656.,o),
(50.01,625.,o),
(50.01,575.,cs),
(50.01,561.,o),
(58.01,554.,o),
(66.01,554.,cs),
(74.01,554.,o),
(82.01,561.,o),
(82.01,574.,cs),
(82.01,604.,o),
(101.01,623.,o),
(125.01,623.,cs),
(145.01,623.,o),
(159.01,609.,o),
(159.01,585.,cs),
(159.01,560.,o),
(147.01,538.,o),
(118.01,530.,cs),
(108.01,527.,o),
(104.01,520.,o),
(104.01,514.,cs),
(104.01,506.,o),
(111.01,498.,o),
(122.01,498.,cs),
(163.01,498.,o),
(183.01,468.,o),
(183.01,436.,cs),
(183.01,404.,o),
(163.01,371.,o),
(125.01,371.,cs),
(103.01,371.,o),
(85.01,382.,o),
(74.01,400.,cs),
(69.01,408.,o),
(63.01,411.,o),
(57.01,411.,cs),
(48.01,411.,o),
(41.01,404.,o),
(41.01,395.,cs),
(41.01,369.,o),
(80.01,338.,o),
(125.01,338.,cs),
(185.01,338.,o),
(219.01,389.,o),
(219.01,438.,c)
);
},
{
closed = 1;
nodes = (
(531.05,147.99,o),
(519.86,151.31,o),
(509.08,153.97,c),
(514.87,211.55,o),
(520.01,234.84,o),
(520.01,244.,cs),
(520.01,258.,o),
(512.01,264.,o),
(504.01,264.,cs),
(496.01,264.,o),
(487.01,257.,o),
(484.01,241.,cs),
(481.23,225.9,o),
(477.5,194.68,o),
(474.02,160.41,c),
(464.78,161.47,o),
(455.53,162.,o),
(446.02,162.,cs),
(433.02,162.,o),
(419.02,161.,o),
(405.02,159.,c),
(414.02,194.,o),
(421.02,227.,o),
(421.02,263.,cs),
(421.02,295.,o),
(419.02,326.,o),
(399.02,326.,cs),
(391.02,326.,o),
(382.02,319.,o),
(382.02,306.,cs),
(382.02,297.43,o),
(384.22,281.51,o),
(384.22,262.65,cs),
(384.22,224.96,o),
(379.22,176.85,o),
(365.02,155.,cs),
(361.02,149.,o),
(359.02,143.,o),
(359.02,138.,cs),
(359.02,127.,o),
(367.02,120.,o),
(380.02,120.,cs),
(394.02,120.,o),
(412.02,130.,o),
(448.02,130.,cs),
(456.16,130.,o),
(463.79,129.43,o),
(470.92,128.49,c),
(467.02,86.24,o),
(464.02,45.36,o),
(464.02,29.01,cs),
(464.02,14.01,o),
(473.02,5.01,o),
(482.02,5.01,cs),
(490.02,5.01,o),
(499.02,13.01,o),
(500.02,31.01,cs),
(501.87,66.16,o),
(503.93,95.7,o),
(506.01,120.51,c),
(521.26,115.76,o),
(532.51,111.01,o),
(540.01,111.01,cs),
(551.01,111.01,o),
(556.01,118.01,o),
(556.01,126.01,cs),
(556.01,133.01,o),
(552.01,141.01,o),
(543.01,144.,cs)
);
}
);
width = 612;
}
);
unicode = 190;
},
{
glyphname = questiondown;
layers = (
{
hints = (
{
horizontal = 1;
place = (-249,43);
type = Stem;
},
{
horizontal = 1;
place = (383,77);
type = Stem;
},
{
place = (23,48);
type = Stem;
},
{
place = (165,76);
type = Stem;
},
{
place = (181,48);
type = Stem;
},
{
place = (279,47);
type = Stem;
}
);
layerId = "DBA80DC6-7182-4C80-9763-30666CA5316C";
shapes = (
{
closed = 1;
nodes = (
(182,460,o),
(165,443,o),
(165,421,cs),
(165,400,o),
(182,383,o),
(203,383,cs),
(224,383,o),
(241,400,o),
(241,421,cs),
(241,443,o),
(224,460,o),
(203,460,cs)
);
},
{
closed = 1;
nodes = (
(193,304,o),
(181,294,o),
(181,273,cs),
(181,198,o),
(158,150,o),
(130,110,cs),
(84,45,o),
(23,1,o),
(23,-102,cs),
(23,-203,o),
(99,-249,o),
(175,-249,cs),
(251,-249,o),
(326,-203,o),
(326,-119,cs),
(326,-96,o),
(321,-52,o),
(294,-52,cs),
(283,-52,o),
(273,-60,o),
(273,-76,cs),
(273,-85,o),
(279,-107,o),
(279,-119,cs),
(279,-173,o),
(227,-206,o),
(174,-206,cs),
(123,-206,o),
(71,-175,o),
(71,-102,cs),
(71,-27,o),
(117,17,o),
(160,74,cs),
(196,122,o),
(229,179,o),
(229,273,cs),
(229,293,o),
(217,304,o),
(205,304,cs)
);
}
);
width = 353;
}
);
unicode = 191;
},
{
glyphname = Agrave;
layers = (
{
anchors = (
{
name = t.uni0302_2;
position = "{603, 700}";
}
);
hints = (
{
horizontal = 1;
place = (-2,43);
type = Stem;
},
{
horizontal = 1;
place = (269,41);
type = Stem;
},
{
horizontal = 1;
place = (636,66);
type = Stem;
},
{
place = (530,48);
type = Stem;
}
);
layerId = "DBA80DC6-7182-4C80-9763-30666CA5316C";
shapes = (
{
closed = 1;
nodes = (
(585,775,ls),
(592.08,767.64,o),
(599.32,764.61,o),
(605.51,764.61,cs),
(615.2,764.61,o),
(622.34,772.03,o),
(622.34,781.92,cs),
(622.34,788.05,o),
(619.59,795.14,o),
(613.,802,cs),
(556.,862,ls),
(548.71,869.59,o),
(541.16,872.75,o),
(534.75,872.75,cs),
(525.25,872.75,o),
(518.25,865.82,o),
(518.25,856.07,cs),
(518.25,849.84,o),
(521.11,842.46,o),
(528.01,835,cs)
);
},
{
closed = 1;
nodes = (
(731.01,213,l),
(691.01,119,o),
(657.01,41,o),
(625.01,41,cs),
(593.01,41,o),
(578.01,96,o),
(578.01,216,cs),
(578.01,402,o),
(628.01,623,o),
(628.01,672,cs),
(628.01,690,o),
(616.01,702,o),
(597.01,702,cs),
(546.01,702,o),
(481.01,614,o),
(374.01,365,cs),
(365.86,346.08,o),
(357.86,327.69,o),
(349.97,309.91,c),
(307.33,309.36,o),
(266.25,310.11,o),
(230.01,312,c),
(217.38,313.05,o),
(207.93,304.13,o),
(207.93,291.01,cs),
(207.93,280.01,o),
(215.8,271.94,o),
(229.01,271,cs),
(260.39,269.41,o),
(295.19,268.63,o),
(331.34,268.78,c),
(268.14,132.34,o),
(209.32,41,o),
(129.01,41,cs),
(73.01,41,o),
(58.01,84,o),
(38.01,84,cs),
(28.01,84,o),
(19.01,75,o),
(19.01,63,cs),
(19.01,36,o),
(64.01,-2,o),
(129.01,-2,cs),
(247.48,-2,o),
(315.12,118,o),
(383.53,269.64,c),
(434.04,271.09,o),
(485.23,274.4,o),
(531.81,279.89,c),
(530.66,255.88,o),
(530.,231.19,o),
(530.,206,cs),
(530.,37,o),
(570.,-2,o),
(624.,-2,cs),
(683.,-2,o),
(724.,90,o),
(767.,196,cs),
(769.45,202.05,o),
(770.51,207.46,o),
(770.51,212.13,cs),
(770.51,224.7,o),
(762.81,231.93,o),
(753.81,231.93,cs),
(745.71,231.93,o),
(736.55,226.08,o),
(731,213,c)
);
},
{
closed = 1;
nodes = (
(492.39,316.09,o),
(447.08,312.93,o),
(402.03,311.24,c),
(408.95,326.95,o),
(415.92,342.9,o),
(423,359,cs),
(492,517,o),
(553,636,o),
(574,636,cs),
(585.65,636,o),
(547.44,502.35,o),
(534.29,320.91,c)
);
}
);
width = 716;
}
);
leftKerningGroup = A2;
rightKerningGroup = A;
unicode = 192;
},
{
glyphname = Aacute;
layers = (
{
anchors = (
{
name = t.uni0302_2;
position = "{603, 700}";
}
);
hints = (
{
horizontal = 1;
place = (-2,43);
type = Stem;
},
{
horizontal = 1;
place = (269,41);
type = Stem;
},
{
horizontal = 1;
place = (636,66);
type = Stem;
},
{
place = (530,48);
type = Stem;
}
);
layerId = "DBA80DC6-7182-4C80-9763-30666CA5316C";
shapes = (
{
closed = 1;
nodes = (
(621,775,l),
(678,835,ls),
(684.9,842.46,o),
(687.76,849.84,o),
(687.76,856.07,cs),
(687.76,865.82,o),
(680.76,872.75,o),
(671.26,872.75,cs),
(664.85,872.75,o),
(657.3,869.59,o),
(650.01,862,cs),
(593.01,802,ls),
(586.42,795.14,o),
(583.67,788.05,o),
(583.67,781.92,cs),
(583.67,772.03,o),
(590.81,764.61,o),
(600.5,764.61,cs),
(606.69,764.61,o),
(613.93,767.64,o),
(621.01,775,c)
);
},
{
closed = 1;
nodes = (
(731.01,213,l),
(691.01,119,o),
(657.01,41,o),
(625.01,41,cs),
(593.01,41,o),
(578.01,96,o),
(578.01,216,cs),
(578.01,402,o),
(628.01,623,o),
(628.01,672,cs),
(628.01,690,o),
(616.01,702,o),
(597.01,702,cs),
(546.01,702,o),
(481.01,614,o),
(374.01,365,cs),
(365.86,346.08,o),
(357.86,327.69,o),
(349.97,309.91,c),
(307.33,309.36,o),
(266.25,310.11,o),
(230.01,312,c),
(217.38,313.05,o),
(207.93,304.13,o),
(207.93,291.01,cs),
(207.93,280.01,o),
(215.8,271.94,o),
(229.01,271,cs),
(260.39,269.41,o),
(295.19,268.63,o),
(331.34,268.78,c),
(268.14,132.34,o),
(209.32,41,o),
(129.01,41,cs),
(73.01,41,o),
(58.01,84,o),
(38.01,84,cs),
(28.01,84,o),
(19.01,75,o),
(19.01,63,cs),
(19.01,36,o),
(64.01,-2,o),
(129.01,-2,cs),
(247.48,-2,o),
(315.12,118,o),
(383.53,269.64,c),
(434.04,271.09,o),
(485.23,274.4,o),
(531.81,279.89,c),
(530.66,255.88,o),
(530.,231.19,o),
(530.,206,cs),
(530.,37,o),
(570.,-2,o),
(624.,-2,cs),
(683.,-2,o),
(724.,90,o),
(767.,196,cs),
(769.45,202.05,o),
(770.51,207.46,o),
(770.51,212.13,cs),
(770.51,224.7,o),
(762.81,231.93,o),
(753.81,231.93,cs),
(745.71,231.93,o),
(736.55,226.08,o),
(731,213,c)
);
},
{
closed = 1;
nodes = (
(492.39,316.09,o),
(447.08,312.93,o),
(402.03,311.24,c),
(408.95,326.95,o),
(415.92,342.9,o),
(423,359,cs),
(492,517,o),
(553,636,o),
(574,636,cs),
(585.65,636,o),
(547.44,502.35,o),
(534.29,320.91,c)
);
}
);
width = 716;
}
);
leftKerningGroup = A2;
rightKerningGroup = A;
unicode = 193;
},
{
glyphname = Acircumflex;
layers = (
{
anchors = (
{
name = t.uni0302_2;
position = "{603, 700}";
}
);
hints = (
{
horizontal = 1;
place = (-2,43);
type = Stem;
},
{
horizontal = 1;
place = (269,41);
type = Stem;
},
{
horizontal = 1;
place = (636,66);
type = Stem;
},
{
place = (530,48);
type = Stem;
}
);
layerId = "DBA80DC6-7182-4C80-9763-30666CA5316C";
shapes = (
{
closed = 1;
nodes = (
(610,818,ls),
(613.98,820.66,o),
(617.18,821.94,o),
(620.12,821.94,cs),
(623.82,821.94,o),
(627.1,819.9,o),
(631.,816.,c),
(668.,775.,ls),
(674.74,767.68,o),
(681.82,764.65,o),
(687.91,764.65,cs),
(697.18,764.65,o),
(704.16,771.67,o),
(704.16,781.29,cs),
(704.16,786.93,o),
(701.76,793.47,o),
(696.01,800.01,cs),
(640.01,864.01,ls),
(636.51,868.09,o),
(632.67,870.13,o),
(628.49,870.13,cs),
(625.5,870.13,o),
(622.34,869.09,o),
(619.01,867.01,c),
(529.01,806.01,ls),
(519.1,799.4,o),
(515.08,791.81,o),
(515.08,785.26,cs),
(515.08,776.35,o),
(522.51,769.35,o),
(532.66,769.35,cs),
(537.64,769.35,o),
(543.27,771.03,o),
(549,775,c)
);
},
{
closed = 1;
nodes = (
(731.,213.,l),
(691.,119.,o),
(657.,41.,o),
(625.,41.,cs),
(593.,41.,o),
(578.,96.,o),
(578.,216.,cs),
(578.,402.,o),
(628.,623.,o),
(628.,672.,cs),
(628.,690.,o),
(616.,702.,o),
(597.,702.,cs),
(546.,702.,o),
(481.,614.,o),
(374.,365.,cs),
(365.85,346.08,o),
(357.85,327.69,o),
(349.96,309.91,c),
(307.32,309.36,o),
(266.24,310.11,o),
(230.,312.,c),
(217.37,313.05,o),
(207.92,304.13,o),
(207.92,291.01,cs),
(207.92,280.01,o),
(215.79,271.94,o),
(229.,271.,cs),
(260.38,269.41,o),
(295.18,268.63,o),
(331.33,268.78,c),
(268.13,132.34,o),
(209.31,41.,o),
(129.,41.,cs),
(73.,41.,o),
(58.,84.,o),
(38.,84.,cs),
(28.,84.,o),
(19.,75.,o),
(19.,63.,cs),
(19.,36.,o),
(64.,-2.,o),
(129.,-2.,cs),
(247.47,-2.,o),
(315.11,118.,o),
(383.52,269.64,c),
(434.03,271.09,o),
(485.22,274.4,o),
(531.8,279.89,c),
(530.65,255.88,o),
(529.99,231.19,o),
(529.99,206.,cs),
(529.99,37.,o),
(569.99,-2.,o),
(623.99,-2.,cs),
(682.99,-2.,o),
(723.99,90.,o),
(766.99,196.,cs),
(769.44,202.05,o),
(770.5,207.46,o),
(770.5,212.13,cs),
(770.5,224.7,o),
(762.8,231.93,o),
(753.8,231.93,cs),
(745.7,231.93,o),
(736.54,226.08,o),
(730.99,213.,c)
);
},
{
closed = 1;
nodes = (
(492.38,316.09,o),
(447.07,312.93,o),
(402.02,311.24,c),
(408.94,326.95,o),
(415.91,342.9,o),
(422.99,359.,cs),
(491.99,517.,o),
(552.99,636.,o),
(573.99,636.,cs),
(585.64,636.,o),
(547.43,502.35,o),
(534.28,320.91,c)
);
}
);
width = 716;
}
);
leftKerningGroup = A2;
rightKerningGroup = A;
unicode = 194;
},
{
glyphname = Atilde;
layers = (
{
anchors = (
{
name = t.uni0302_2;
position = "{603, 700}";
}
);
hints = (
{
horizontal = 1;
place = (-2,43);
type = Stem;
},
{
horizontal = 1;
place = (269,41);
type = Stem;
},
{
horizontal = 1;
place = (636,66);
type = Stem;
},
{
horizontal = 1;
place = (771,39);
type = Stem;
},
{
horizontal = 1;
place = (803,39);
type = Stem;
},
{
place = (530,48);
type = Stem;
}
);
layerId = "DBA80DC6-7182-4C80-9763-30666CA5316C";
shapes = (
{
closed = 1;
nodes = (
(543,789,l),
(551,799,o),
(558,803,o),
(567,803,cs),
(594,803,o),
(624,771,o),
(658,771,cs),
(680,771,o),
(697,780,o),
(712,799,cs),
(716.84,805.29,o),
(718.87,811.52,o),
(718.87,816.98,cs),
(718.87,827.36,o),
(711.54,834.98,o),
(702.22,834.98,cs),
(696.17,834.98,o),
(689.27,831.76,o),
(683.,824,cs),
(675.,814,o),
(667.,810,o),
(659.,810,cs),
(635.,810,o),
(609.,842,o),
(568.,842,cs),
(546.,842,o),
(525.,833,o),
(513.,815,cs),
(508.86,808.56,o),
(507.1,802.33,o),
(507.1,796.87,cs),
(507.1,785.76,o),
(514.39,777.85,o),
(523.74,777.85,cs),
(529.77,777.85,o),
(536.66,781.14,o),
(543.,788.99,c)
);
},
{
closed = 1;
nodes = (
(731.,212.99,l),
(691.,118.99,o),
(657.,40.99,o),
(625.,40.99,cs),
(593.,40.99,o),
(578.,95.99,o),
(578.,215.99,cs),
(578.,401.99,o),
(628.,622.99,o),
(628.,671.99,cs),
(628.,689.99,o),
(616.,701.99,o),
(597.,701.99,cs),
(546.,701.99,o),
(481.,613.99,o),
(374.,364.99,cs),
(365.85,346.07,o),
(357.85,327.68,o),
(349.96,309.9,c),
(307.32,309.35,o),
(266.24,310.1,o),
(230.,311.99,c),
(217.37,313.04,o),
(207.92,304.12,o),
(207.92,291,cs),
(207.92,280,o),
(215.79,271.93,o),
(229.,270.99,cs),
(260.38,269.4,o),
(295.18,268.62,o),
(331.33,268.77,c),
(268.13,132.33,o),
(209.31,40.99,o),
(129.,40.99,cs),
(73.,40.99,o),
(58.,83.99,o),
(38.,83.99,cs),
(28.,83.99,o),
(19.,74.99,o),
(19.,62.99,cs),
(19.,35.99,o),
(64.,-2.01,o),
(129.,-2.01,cs),
(247.47,-2.01,o),
(315.11,117.99,o),
(383.52,269.63,c),
(434.03,271.08,o),
(485.22,274.39,o),
(531.8,279.88,c),
(530.65,255.87,o),
(529.99,231.18,o),
(529.99,205.99,cs),
(529.99,36.99,o),
(569.99,-2.01,o),
(623.99,-2.01,cs),
(682.99,-2.01,o),
(723.99,89.99,o),
(766.99,195.99,cs),
(769.44,202.04,o),
(770.5,207.45,o),
(770.5,212.12,cs),
(770.5,224.69,o),
(762.8,231.92,o),
(753.8,231.92,cs),
(745.7,231.92,o),
(736.54,226.07,o),
(730.99,212.99,c)
);
},
{
closed = 1;
nodes = (
(492.38,316.08,o),
(447.07,312.92,o),
(402.02,311.23,c),
(408.94,326.94,o),
(415.91,342.89,o),
(422.99,358.99,cs),
(491.99,516.99,o),
(552.99,635.99,o),
(573.99,635.99,cs),
(585.64,635.99,o),
(547.43,502.34,o),
(534.28,320.9,c)
);
}
);
width = 716;
}
);
leftKerningGroup = A2;
rightKerningGroup = A;
unicode = 195;
},
{
glyphname = Adieresis;
layers = (
{
anchors = (
{
name = t.uni0302_2;
position = "{603, 700}";
}
);
hints = (
{
horizontal = 1;
place = (-2,43);
type = Stem;
},
{
horizontal = 1;
place = (269,41);
type = Stem;
},
{
horizontal = 1;
place = (636,66);
type = Stem;
},
{
horizontal = 1;
place = (767,60);
type = Stem;
},
{
place = (517,60);
type = Stem;
},
{
place = (530,48);
type = Stem;
},
{
place = (648,60);
type = Stem;
}
);
layerId = "DBA80DC6-7182-4C80-9763-30666CA5316C";
shapes = (
{
closed = 1;
nodes = (
(564,767,o),
(577,780,o),
(577,797,cs),
(577,814,o),
(564,827,o),
(547,827,cs),
(530,827,o),
(517,814,o),
(517,797,cs),
(517,780,o),
(530,767,o),
(547,767,cs)
);
},
{
closed = 1;
nodes = (
(695,767,o),
(708,780,o),
(708,797,cs),
(708,814,o),
(695,827,o),
(678,827,cs),
(661,827,o),
(648,814,o),
(648,797,cs),
(648,780,o),
(661,767,o),
(678,767,cs)
);
},
{
closed = 1;
nodes = (
(731,213,l),
(691,119,o),
(657,41,o),
(625,41,cs),
(593,41,o),
(578,96,o),
(578,216,cs),
(578,402,o),
(628,623,o),
(628,672,cs),
(628,690,o),
(616,702,o),
(597,702,cs),
(546,702,o),
(481,614,o),
(374,365,cs),
(365.85,346.08,o),
(357.85,327.69,o),
(349.96,309.91,c),
(307.32,309.36,o),
(266.24,310.11,o),
(230,312,c),
(217.37,313.05,o),
(207.92,304.13,o),
(207.92,291.01,cs),
(207.92,280.01,o),
(215.79,271.94,o),
(229,271,cs),
(260.38,269.41,o),
(295.18,268.63,o),
(331.33,268.78,c),
(268.13,132.34,o),
(209.31,41,o),
(129,41,cs),
(73,41,o),
(58,84,o),
(38,84,cs),
(28,84,o),
(19,75,o),
(19,63,cs),
(19,36,o),
(64,-2,o),
(129,-2,cs),
(247.47,-2,o),
(315.11,118,o),
(383.52,269.64,c),
(434.03,271.09,o),
(485.22,274.4,o),
(531.8,279.89,c),
(530.65,255.88,o),
(529.99,231.19,o),
(529.99,206,cs),
(529.99,37,o),
(569.99,-2,o),
(623.99,-2,cs),
(682.99,-2,o),
(723.99,90,o),
(766.99,196,cs),
(769.44,202.05,o),
(770.5,207.46,o),
(770.5,212.13,cs),
(770.5,224.7,o),
(762.8,231.93,o),
(753.8,231.93,cs),
(745.7,231.93,o),
(736.54,226.08,o),
(730.99,213,c)
);
},
{
closed = 1;
nodes = (
(492.38,316.09,o),
(447.07,312.93,o),
(402.02,311.24,c),
(408.94,326.95,o),
(415.91,342.9,o),
(422.99,359,cs),
(491.99,517,o),
(552.99,636,o),
(573.99,636,cs),
(585.64,636,o),
(547.43,502.35,o),
(534.28,320.91,c)
);
}
);
width = 716;
}
);
leftKerningGroup = A2;
rightKerningGroup = A;
unicode = 196;
},
{
glyphname = Aring;
layers = (
{
anchors = (
{
name = t.uni0302_2;
position = "{603, 700}";
}
);
hints = (
{
horizontal = 1;
place = (-2,43);
type = Stem;
},
{
horizontal = 1;
place = (269,41);
type = Stem;
},
{
horizontal = 1;
place = (636,66);
type = Stem;
},
{
horizontal = 1;
place = (742,34);
type = Stem;
},
{
horizontal = 1;
place = (845,34);
type = Stem;
},
{
place = (530,48);
type = Stem;
},
{
place = (544,35);
type = Stem;
},
{
place = (650,35);
type = Stem;
}
);
layerId = "DBA80DC6-7182-4C80-9763-30666CA5316C";
shapes = (
{
closed = 1;
nodes = (
(660,742,o),
(685,779,o),
(685,815,cs),
(685,848,o),
(665,879,o),
(622,879,cs),
(571,879,o),
(544,840,o),
(544,803,cs),
(544,771,o),
(565,742,o),
(611,742,cs)
);
},
{
closed = 1;
nodes = (
(640,845,o),
(650,830,o),
(650,814,cs),
(650,796,o),
(637,776,o),
(612,776,cs),
(590,776,o),
(579,791,o),
(579,807,cs),
(579,826,o),
(593,845,o),
(619,845,cs)
);
},
{
closed = 1;
nodes = (
(731,213,l),
(691,119,o),
(657,41,o),
(625,41,cs),
(593,41,o),
(578,96,o),
(578,216,cs),
(578,402,o),
(628,623,o),
(628,672,cs),
(628,690,o),
(616,702,o),
(597,702,cs),
(546,702,o),
(481,614,o),
(374,365,cs),
(365.85,346.08,o),
(357.85,327.69,o),
(349.96,309.91,c),
(307.32,309.36,o),
(266.24,310.11,o),
(230,312,c),
(217.37,313.05,o),
(207.92,304.13,o),
(207.92,291.01,cs),
(207.92,280.01,o),
(215.79,271.94,o),
(229,271,cs),
(260.38,269.41,o),
(295.18,268.63,o),
(331.33,268.78,c),
(268.13,132.34,o),
(209.31,41,o),
(129,41,cs),
(73,41,o),
(58,84,o),
(38,84,cs),
(28,84,o),
(19,75,o),
(19,63,cs),
(19,36,o),
(64,-2,o),
(129,-2,cs),
(247.47,-2,o),
(315.11,118,o),
(383.52,269.64,c),
(434.03,271.09,o),
(485.22,274.4,o),
(531.8,279.89,c),
(530.65,255.88,o),
(529.99,231.19,o),
(529.99,206,cs),
(529.99,37,o),
(569.99,-2,o),
(623.99,-2,cs),
(682.99,-2,o),
(723.99,90,o),
(766.99,196,cs),
(769.44,202.05,o),
(770.5,207.46,o),
(770.5,212.13,cs),
(770.5,224.7,o),
(762.8,231.93,o),
(753.8,231.93,cs),
(745.7,231.93,o),
(736.54,226.08,o),
(730.99,213,c)
);
},
{
closed = 1;
nodes = (
(492.38,316.09,o),
(447.07,312.93,o),
(402.02,311.24,c),
(408.94,326.95,o),
(415.91,342.9,o),
(422.99,359,cs),
(491.99,517,o),
(552.99,636,o),
(573.99,636,cs),
(585.64,636,o),
(547.43,502.35,o),
(534.28,320.91,c)
);
}
);
width = 716;
}
);
leftKerningGroup = A2;
rightKerningGroup = A;
unicode = 197;
},
{
glyphname = AE;
layers = (
{
anchors = (
{
name = t.uni0302_2;
position = "{660, 700}";
}
);
hints = (
{
horizontal = 1;
place = (-6,43);
type = Stem;
},
{
horizontal = 1;
place = (-2,43);
type = Stem;
},
{
horizontal = 1;
place = (268,41);
type = Stem;
},
{
horizontal = 1;
place = (375,31);
type = Stem;
},
{
horizontal = 1;
place = (636,66);
type = Stem;
},
{
horizontal = 1;
place = (654,45);
type = Stem;
},
{
place = (530,49);
type = Stem;
},
{
place = (660,49);
type = Stem;
},
{
place = (921,43);
type = Stem;
}
);
layerId = "DBA80DC6-7182-4C80-9763-30666CA5316C";
shapes = (
{
closed = 1;
nodes = (
(970,213,l),
(936,128,o),
(868,37,o),
(756,37,cs),
(642,37,o),
(579,100,o),
(579,187,cs),
(579,294,o),
(676,375,o),
(804,375,cs),
(820,375,o),
(828,383,o),
(828,393,cs),
(828,403,o),
(822,410,o),
(810,415,cs),
(746,442,o),
(709,480,o),
(709,542,cs),
(709,608,o),
(754,654,o),
(820,654,cs),
(877,654,o),
(921,614,o),
(921,562,cs),
(921,557.45,o),
(919.72,552.9,o),
(919.72,542.41,cs),
(919.72,531.04,o),
(928.22,522,o),
(940,522,cs),
(951,522,o),
(960,532,o),
(962,551,cs),
(963,559,o),
(964,565,o),
(964,571,cs),
(964,645,o),
(903,699,o),
(821,699,cs),
(721,699,o),
(660,624,o),
(660,546,cs),
(660,492.97,o),
(687.8,439.21,o),
(752.16,405.99,c),
(701.08,406.22,o),
(617.17,366.86,o),
(582.19,317.72,c),
(593.07,479.99,o),
(628.01,631.38,o),
(628.01,672,cs),
(628.01,690,o),
(616.01,702,o),
(597.01,702,cs),
(546.01,702,o),
(481.01,614,o),
(374.01,365,cs),
(365.66,345.61,o),
(357.47,326.78,o),
(349.39,308.59,c),
(306.96,307.96,o),
(266.09,308.99,o),
(230.02,311.99,cs),
(217.39,313.04,o),
(207.94,304.12,o),
(207.94,291,cs),
(207.94,280,o),
(215.81,271.93,o),
(229.02,270.99,cs),
(260.29,268.78,o),
(294.95,267.77,o),
(330.95,267.89,c),
(267.91,131.94,o),
(209.17,41.,o),
(129.03,41.,cs),
(73.03,41.,o),
(58.03,84.,o),
(38.03,84.,cs),
(28.03,84.,o),
(19.03,75.,o),
(19.03,63.,cs),
(19.03,36.,o),
(64.03,-2.,o),
(129.03,-2.,cs),
(247.29,-2.,o),
(314.9,117.58,o),
(383.19,268.84,c),
(433.82,270.47,o),
(485.15,274.19,o),
(531.84,279.83,c),
(530.69,255.83,o),
(530.04,231.16,o),
(530.04,205.99,cs),
(530.04,70.99,o),
(607.04,-6.01,o),
(748.04,-6.01,cs),
(889.04,-6.01,o),
(961.04,92.99,o),
(1006.04,195.99,cs),
(1007.94,200.37,o),
(1008.77,204.47,o),
(1008.77,208.19,cs),
(1008.77,220.57,o),
(999.55,228.71,o),
(989.72,228.71,cs),
(982.27,228.71,o),
(974.46,224.04,o),
(970.04,212.99,c)
);
},
{
closed = 1;
nodes = (
(408.67,326.21,o),
(415.8,342.52,o),
(423.04,358.99,cs),
(492.04,516.99,o),
(553.04,635.99,o),
(574.04,635.99,cs),
(585.69,635.99,o),
(547.47,502.31,o),
(534.32,320.84,c),
(492.28,315.84,o),
(446.8,312.15,o),
(401.59,310.15,c)
);
}
);
width = 954;
}
);
leftKerningGroup = A2;
rightKerningGroup = A;
unicode = 198;
},
{
glyphname = Ccedilla;
layers = (
{
anchors = (
{
name = t.uni0302_2;
position = "{419, 700}";
},
{
name = b.uni0326_1_2;
position = "{326, 0}";
}
);
hints = (
{
horizontal = 1;
place = (-177,38);
type = Stem;
},
{
horizontal = 1;
place = (-5,43);
type = Stem;
},
{
horizontal = 1;
place = (-4,42);
type = Stem;
},
{
horizontal = 1;
place = (661,43);
type = Stem;
},
{
place = (93,48);
type = Stem;
},
{
place = (294,37);
type = Stem;
},
{
place = (338,42);
type = Stem;
},
{
place = (468,46);
type = Stem;
}
);
layerId = "DBA80DC6-7182-4C80-9763-30666CA5316C";
shapes = (
{
closed = 1;
nodes = (
(490,89,o),
(428,38,o),
(341,38,cs),
(223,38,o),
(141,130,o),
(141,270,cs),
(141,517,o),
(285,661,o),
(383,661,cs),
(441,661,o),
(468,624,o),
(468,582,cs),
(468,542,o),
(447,520,o),
(447,498,cs),
(447,488,o),
(456,480,o),
(467,480,cs),
(474,480,o),
(482,484,o),
(488,493,cs),
(504,517,o),
(514,559,o),
(514,588,cs),
(514,657,o),
(461,704,o),
(384,704,cs),
(246,704,o),
(93,530,o),
(93,275,cs),
(93,112.22,o),
(178.88,7.87,o),
(309.81,-3.89,c),
(301.39,-24.28,o),
(294.01,-45.55,o),
(294.01,-55,cs),
(294.01,-61,o),
(299.01,-67,o),
(316.01,-79,cs),
(331.01,-90,o),
(338.01,-100,o),
(338.01,-111,cs),
(338.01,-127,o),
(325.01,-139,o),
(306.01,-139,cs),
(296.01,-139,o),
(284.01,-136,o),
(271.01,-129,cs),
(267.21,-127.02,o),
(263.69,-126.15,o),
(260.54,-126.15,cs),
(250.93,-126.15,o),
(244.78,-134.21,o),
(244.78,-143.46,cs),
(244.78,-151.13,o),
(249.01,-159.62,o),
(259.01,-165.,cs),
(274.01,-173.,o),
(291.01,-177.,o),
(308.01,-177.,cs),
(352.01,-177.,o),
(380.01,-147.,o),
(380.01,-115.,cs),
(380.01,-97.,o),
(371.01,-78.,o),
(352.01,-64.,cs),
(337.01,-53.,o),
(331.01,-48.,o),
(331.01,-43.,cs),
(331.01,-36.91,o),
(337.83,-17.17,o),
(342.23,-4.91,c),
(446.54,-2.18,o),
(523.31,60.12,o),
(580.01,196.,cs),
(582.56,202.12,o),
(583.67,207.72,o),
(583.67,212.62,cs),
(583.67,225.4,o),
(576.14,233.4,o),
(567.1,233.4,cs),
(559.22,233.4,o),
(550.19,227.32,o),
(544,213,cs)
);
}
);
width = 529;
}
);
leftKerningGroup = C;
rightKerningGroup = A;
unicode = 199;
},
